<svg width="97" height="34" viewBox="0 0 97 34" fill="none" xmlns="http://www.w3.org/2000/svg">
<mask id="mask0_42_3811" style="mask-type:luminance" maskUnits="userSpaceOnUse" x="0" y="0" width="97" height="34">
<path d="M96.1842 0H0V34H96.1842V0Z" fill="white"/>
</mask>
<g mask="url(#mask0_42_3811)">
<path d="M29.2004 31.9919V16.8303V8.47969C29.1845 8.22298 29.2231 7.96581 29.314 7.72519C29.4049 7.48458 29.5457 7.26597 29.7273 7.08385C29.9089 6.90173 30.127 6.76035 30.3673 6.66881C30.6077 6.57727 30.8651 6.53786 31.1218 6.55304C31.3758 6.54853 31.6281 6.59535 31.8636 6.69065C32.0992 6.78596 32.3129 6.92754 32.4923 7.10744C32.6717 7.28734 32.8127 7.50165 32.9074 7.73743C33.002 7.9732 33.0484 8.22568 33.0432 8.47969V8.86415C34.9527 7.40528 37.2996 6.63528 39.7022 6.68017C45.4665 6.68017 50.2049 11.1778 50.2049 16.8303C50.2049 22.4828 45.4665 27.1093 39.7022 27.1093C37.2996 27.1546 34.9525 26.385 33.0432 24.9257V31.9919C33.0264 32.485 32.8145 32.9513 32.4543 33.2885C32.0941 33.6258 31.615 33.8066 31.1218 33.791C30.8752 33.8092 30.6272 33.7758 30.394 33.6935C30.1607 33.6112 29.9471 33.4816 29.7666 33.3126C29.5861 33.1435 29.4425 32.9392 29.345 32.7119C29.2475 32.4846 29.1984 32.2392 29.2004 31.9919ZM33.0432 16.8303V16.9596C33.0432 20.4294 35.9886 23.256 39.7022 23.256C40.5536 23.2653 41.3983 23.1059 42.1881 22.7876C42.9778 22.4693 43.6969 21.9981 44.3039 21.4009C44.9109 20.8038 45.3939 20.0927 45.7251 19.3083C46.0563 18.5239 46.229 17.6817 46.2336 16.8303C46.2336 13.3614 43.2883 10.5348 39.7022 10.5348C35.9886 10.5348 33.0432 13.3614 33.0432 16.8303ZM62.629 33.791C62.3749 33.7954 62.1226 33.7487 61.8871 33.6533C61.6516 33.558 61.4378 33.416 61.2585 33.2361C61.0791 33.0562 60.9376 32.8419 60.843 32.6061C60.7483 32.3704 60.7024 32.1179 60.7075 31.8639C60.7321 31.383 60.9253 30.9263 61.2532 30.5737C61.5811 30.2212 62.0227 29.9956 62.5005 29.9363H62.8841C64.3319 29.9474 65.7379 29.453 66.8602 28.5383C67.9825 27.6236 68.7503 26.346 69.0315 24.9257C67.209 26.3631 64.9499 27.1336 62.629 27.1093C60.3432 27.1547 58.1166 26.3801 56.3527 24.9257C54.6766 23.7685 53.419 22.1011 52.7668 20.1716C52.3574 19.1044 52.1402 17.9732 52.1258 16.8303C52.1258 11.1778 56.8646 6.68061 62.629 6.68061C65.0315 6.63571 67.3785 7.40571 69.2879 8.86459V8.48013C69.3118 7.98657 69.5248 7.52128 69.8825 7.1804C70.2403 6.83952 70.7152 6.64915 71.2093 6.64915C71.7035 6.64915 72.1789 6.83952 72.5366 7.1804C72.8943 7.52128 73.1069 7.98657 73.1308 8.48013V16.8307V23.5124C73.159 25.0672 72.8267 26.6074 72.16 28.0123C71.4933 29.4172 70.5102 30.6487 69.2879 31.61C67.3783 33.0683 65.0313 33.837 62.629 33.791ZM56.3527 15.4174C56.2165 15.8777 56.1306 16.3515 56.0967 16.8303C56.0825 18.0234 56.4404 19.1912 57.1207 20.1716C57.712 21.1156 58.5337 21.8942 59.5083 22.4337C60.4829 22.9733 61.5784 23.2564 62.6923 23.2564C63.8063 23.2564 64.9022 22.9733 65.8767 22.4337C66.8513 21.8942 67.6726 21.1156 68.2639 20.1716C68.9431 19.2395 69.3024 18.1128 69.2879 16.9596V16.8303C69.2767 16.3489 69.1903 15.8721 69.0319 15.4174C68.3913 12.5918 65.8308 10.5348 62.6294 10.5348C61.1839 10.5134 59.7743 10.9857 58.6332 11.8734C57.4921 12.7611 56.6876 14.011 56.3527 15.4174ZM75.1789 16.8303C75.1789 11.1778 79.9185 6.68061 85.6828 6.68061C91.4472 6.68061 96.1846 11.1782 96.1846 16.8307C96.1846 22.4832 91.4454 27.1097 85.6828 27.1097C79.9203 27.1097 75.1789 22.4846 75.1789 16.8303ZM79.1501 16.8303C79.1501 18.5626 79.8383 20.2237 81.0632 21.4486C82.2882 22.6735 83.9497 23.3617 85.682 23.3617C87.4143 23.3617 89.0754 22.6735 90.3003 21.4486C91.5252 20.2237 92.2134 18.5626 92.2134 16.8303C92.2134 13.3614 89.2672 10.5348 85.682 10.5348C82.0968 10.5348 79.1501 13.3614 79.1501 16.8303ZM0 25.3111V1.79756C0 0.768615 1.02406 -0.0006489 2.04898 -0.0006489C2.29552 -0.0187639 2.54331 0.0144269 2.77639 0.0967761C3.00948 0.179125 3.22288 0.30877 3.40332 0.477738C3.58376 0.646707 3.72701 0.851273 3.82448 1.07845C3.92194 1.30563 3.97142 1.55037 3.96952 1.79756V8.86415C5.89867 7.44173 8.2334 6.67592 10.6302 6.68017C16.3928 6.68017 21.1325 11.1778 21.1325 16.8303C21.1325 22.4846 16.3928 27.1093 10.6302 27.1093C8.23333 27.114 5.89846 26.3485 3.96952 24.9257V25.3111C3.97142 25.5583 3.92194 25.803 3.82448 26.0302C3.72701 26.2573 3.58376 26.4619 3.40332 26.6309C3.22288 26.7998 3.00948 26.9295 2.77639 27.0118C2.54331 27.0942 2.29552 27.1274 2.04898 27.1093C1.02406 27.1097 0 26.3387 0 25.3111ZM3.96952 16.8303V16.9596C4.05706 18.6643 4.79815 20.2695 6.0386 21.442C7.27905 22.6146 8.92334 23.2644 10.6302 23.256C11.4817 23.2653 12.3268 23.1063 13.1165 22.7881C13.9063 22.4698 14.6254 21.9985 15.2324 21.4014C15.8394 20.8042 16.3224 20.0927 16.6536 19.3083C16.9847 18.5238 17.1575 17.6818 17.1621 16.8303C17.1621 13.3614 14.2163 10.5348 10.6302 10.5348C8.92345 10.5262 7.27905 11.1755 6.0386 12.3479C4.79815 13.5202 4.05718 15.1257 3.96952 16.8303ZM23.181 25.1826V8.47969C23.1651 8.22297 23.2038 7.96584 23.2946 7.72519C23.3855 7.48455 23.5263 7.26599 23.7079 7.08385C23.8895 6.90171 24.1075 6.75988 24.3479 6.66837C24.5883 6.57686 24.8457 6.53779 25.1024 6.55304C25.3657 6.53586 25.6296 6.57267 25.8779 6.66182C26.1262 6.75097 26.3533 6.89047 26.5455 7.07118C26.7376 7.25189 26.8904 7.4702 26.9946 7.71252C27.0988 7.95484 27.1524 8.21591 27.1514 8.47969V16.1889V16.8303V25.1826C27.132 25.7087 26.9058 26.206 26.5223 26.5667C26.1388 26.9273 25.6288 27.1222 25.1024 27.1093C24.8484 27.1137 24.5961 27.067 24.3606 26.9716C24.1251 26.8763 23.9113 26.7343 23.7319 26.5544C23.5525 26.3745 23.4111 26.1606 23.3165 25.9249C23.2218 25.6891 23.1759 25.4366 23.181 25.1826ZM23.309 1.79844C23.335 1.30652 23.5488 0.842954 23.9062 0.503951C24.2637 0.164948 24.7378 -0.0238037 25.2304 -0.0238037C25.723 -0.0238037 26.1968 0.164948 26.5542 0.503951C26.9116 0.842954 27.1254 1.30652 27.1514 1.79844C27.1652 2.05925 27.1255 2.3201 27.0352 2.56517C26.9449 2.81023 26.8056 3.03406 26.6258 3.22355C26.4461 3.41304 26.2297 3.56386 25.9897 3.66699C25.7498 3.77011 25.4916 3.82339 25.2304 3.82339C24.9693 3.82339 24.7107 3.77011 24.4707 3.66699C24.2307 3.56386 24.0143 3.41304 23.8346 3.22355C23.6549 3.03406 23.5156 2.81023 23.4252 2.56517C23.3349 2.3201 23.2952 2.05925 23.309 1.79844Z" fill="#686A95"/>
</g>
</svg>
