<svg width="90" height="27" viewBox="0 0 90 27" fill="none" xmlns="http://www.w3.org/2000/svg">
<g clip-path="url(#clip0_42_3822)">
<path d="M9.79626 20.9439H12.0569V3.70934L17.6333 20.9439H20.0949L25.8722 3.50747V21.1963H28.384V0.504669H24.6665L18.9394 17.9916L13.4133 0.504669H9.89674L9.79626 20.9439Z" fill="#1E1E1E"/>
<path d="M42.9528 5.55141V7.24206C40.9434 4.97104 38.6073 5.29907 38.6073 5.29907C31.6997 5.29907 32.1518 13.5 32.1518 13.5C32.1518 20.9692 38.0045 21.0953 38.0045 21.0953C41.3704 21.0953 42.9277 19.1019 42.9277 19.1019V20.6916H45.6908V5.55141H42.9528ZM39.0846 18.572C36.7234 18.572 34.8144 16.1243 34.8144 13.0963C34.8144 10.0682 36.7234 7.62057 39.0846 7.62057C41.4457 7.62057 43.3547 10.0682 43.3547 13.0963C43.3547 16.1243 41.4206 18.572 39.0846 18.572Z" fill="#1E1E1E"/>
<path d="M48.9813 20.6916V5.5514H51.4932V7.59532C51.4932 7.59532 53.8794 3.63364 57.8984 5.87943L56.5169 8.52897C56.5169 8.52897 56.2406 7.94859 54.5827 7.89813C54.5827 7.89813 51.9955 8.1 51.7443 11.8093V20.6916H48.9813Z" fill="#1E1E1E"/>
<path d="M64.1781 4.99625C64.1781 4.99625 57.4463 4.69345 57.5216 13.2729C57.5216 13.2729 56.8685 20.7673 63.9269 20.9439C63.9269 20.9439 68.6492 21.6252 70.6587 16.3009L68.5487 14.9635C68.5487 14.9635 66.9914 18.3701 64.2032 18.3701C64.2032 18.3701 60.2596 18.6729 60.2596 13.3738H70.7089C70.6587 13.3738 71.0354 5.24859 64.1781 4.99625ZM60.4856 11.3551C60.8875 7.57008 64.0776 7.89812 64.0776 7.89812C67.7951 7.64578 67.971 11.3551 67.971 11.3551H60.4856Z" fill="#1E1E1E"/>
<path d="M74.0999 0V5.80374H72.844V8.3271H74.0999V20.6916H76.863V8.3271H84.5493C84.5493 8.3271 87.0611 7.97383 87.4128 11.1785L81.9872 21.3477C81.9872 21.3477 79.9526 24.7037 78.4454 24.4514H0L2.10996 26.9748H78.2445C78.2445 26.9748 80.5303 27.328 83.2933 23.5178L90.0251 11.1785C90.0251 11.1785 90.1005 6.03084 84.9009 5.7785H76.863V0H74.0999Z" fill="#1E1E1E"/>
<path d="M87.4881 22.1552C86.182 22.1552 85.127 23.215 85.127 24.5271C85.127 25.8393 86.182 26.8991 87.4881 26.8991C88.7943 26.8991 89.8493 25.8393 89.8493 24.5271C89.8744 23.215 88.7943 22.1552 87.4881 22.1552ZM87.4881 26.672C86.3076 26.672 85.353 25.7131 85.353 24.5271C85.353 23.3411 86.3076 22.3823 87.4881 22.3823C88.6687 22.3823 89.6232 23.3411 89.6232 24.5271C89.6232 25.7131 88.6687 26.672 87.4881 26.672Z" fill="#1E1E1E"/>
<path d="M86.4332 23.1897C86.6341 23.1645 86.9607 23.1393 87.237 23.1393C87.6891 23.1393 87.9905 23.215 88.1663 23.3664C88.3171 23.4925 88.4175 23.6692 88.4175 23.8963C88.4175 24.2495 88.1412 24.5019 87.8147 24.6028C88.0659 24.6785 88.2166 24.8804 88.2919 25.1579C88.3924 25.5364 88.4678 25.814 88.5431 25.915H88.1161C88.0659 25.8393 87.9905 25.5869 87.9152 25.2589C87.8147 24.8804 87.6389 24.729 87.2621 24.729H86.8602V25.9402H86.4332V23.1897ZM86.8602 24.4514H87.2872C87.7393 24.4514 88.0156 24.2495 88.0156 23.9215C88.0156 23.5682 87.7142 23.4168 87.2621 23.4168C87.0611 23.4168 86.9104 23.4168 86.8351 23.4421V24.4514H86.8602Z" fill="#1E1E1E"/>
</g>
<defs>
<clipPath id="clip0_42_3822">
<rect width="90" height="27" fill="white"/>
</clipPath>
</defs>
</svg>
