<svg width="43" height="48" viewBox="0 0 43 48" fill="none" xmlns="http://www.w3.org/2000/svg">
<g clip-path="url(#clip0_42_3832)">
<path d="M31.367 38.9338C30.4276 38.2684 29.5108 37.5803 28.609 36.8696C27.6321 37.8677 26.6326 38.8355 25.6106 39.7732L25.543 39.8336C24.4684 40.8166 23.3712 41.7769 22.2515 42.6994L22.1838 42.7524L22.1162 42.6994C20.9965 41.7769 19.8918 40.8242 18.8247 39.8412L18.7571 39.7807C17.7351 38.8431 16.7356 37.8752 15.7586 36.8847C14.8268 37.6181 13.8799 38.3289 12.9105 39.017C12.7527 39.1304 12.5874 39.2439 12.4296 39.3573C13.414 40.363 14.421 41.3459 15.4505 42.2987L15.5182 42.3592C16.5928 43.3573 17.69 44.3327 18.8172 45.2854L18.8848 45.3459C19.967 46.2533 21.0716 47.1456 22.1914 48.0076C23.3111 47.1456 24.4158 46.2533 25.4979 45.3384L25.5655 45.2779C26.6852 44.3251 27.7899 43.3497 28.8646 42.3516L28.9322 42.2911C29.9617 41.3308 30.9687 40.3478 31.9456 39.3422C31.7503 39.2061 31.5624 39.0699 31.367 38.9338Z" fill="#24493E"/>
<path d="M36.5823 31.9093C35.8534 31.3875 35.1319 30.8431 34.4256 30.2836L34.3579 30.2306C33.2683 29.3686 32.2012 28.4764 31.1566 27.5463L31.089 27.4858C30.0369 26.5407 29.0149 25.5652 28.0229 24.552C27.1211 25.7013 26.1893 26.8204 25.2274 27.9017L25.1748 27.9773C24.2279 29.0511 23.2434 30.0945 22.244 31.1002L22.1839 31.1607L22.1237 31.1002C21.1167 30.0945 20.1398 29.0511 19.1854 27.9849L19.1253 27.9168C18.1634 26.8356 17.2316 25.7165 16.3223 24.5671C15.3303 25.5804 14.3083 26.5633 13.2562 27.501L13.1886 27.5615C12.1515 28.4915 11.0844 29.3913 9.99476 30.2533L9.92713 30.3063C9.19067 30.8809 8.4467 31.4405 7.69521 31.9849C7.32699 32.2495 6.95124 32.5142 6.5755 32.7713C7.45474 33.8677 8.36404 34.9414 9.29588 35.9925C9.76931 35.6749 10.2352 35.3497 10.7012 35.017C11.3625 34.5407 12.0163 34.0567 12.6625 33.5652L12.7302 33.5123C13.8424 32.6503 14.932 31.758 15.9916 30.8356L16.0592 30.7751L16.1194 30.8356C17.0888 31.9017 18.0807 32.9452 19.1028 33.966L19.1629 34.0265C19.5086 34.3743 19.8618 34.7146 20.215 35.0548C20.8612 35.6749 21.5225 36.2798 22.1914 36.8771C22.8301 36.3025 23.4614 35.7202 24.0776 35.1305C24.4609 34.7675 24.8366 34.397 25.2123 34.0189L25.2725 33.9584C26.2945 32.9376 27.2864 31.8942 28.2483 30.828L28.3085 30.7675L28.3761 30.828C29.4357 31.7505 30.5253 32.6427 31.6375 33.4972L31.7052 33.5501C32.3214 34.0265 32.9451 34.4877 33.5839 34.9414C34.0724 35.2892 34.5758 35.6371 35.0718 35.9773C36.0037 34.9263 36.9055 33.8526 37.7847 32.7562C37.3789 32.4688 36.9806 32.1891 36.5823 31.9093Z" fill="#24493E"/>
<path d="M41.8653 24.7713C41.0987 24.2117 40.3473 23.6371 39.6108 23.0473L39.5432 22.9943C38.4685 22.1323 37.424 21.225 36.4095 20.2873L36.3418 20.2269C35.2672 19.2287 34.2302 18.1928 33.2232 17.1115L33.1631 17.0435C32.1861 15.9924 31.2468 14.9036 30.3375 13.7769L30.2774 13.7089C29.3981 12.6125 28.5414 11.4783 27.7298 10.3138C27.6096 10.1399 27.4893 9.96598 27.3691 9.79207L27.3165 9.71646C26.287 8.21173 25.3626 6.72969 24.5435 5.30814L24.4909 5.2174C23.5966 3.65975 22.8226 2.16258 22.1613 0.778839C21.5 2.16258 20.7335 3.65975 19.8392 5.2174L19.7866 5.30814C18.9675 6.73725 18.0507 8.21173 17.0211 9.72402L16.9685 9.79963C16.8333 9.99623 16.698 10.1928 16.5627 10.3894C15.7587 11.5312 14.932 12.6427 14.0678 13.7165L14.0077 13.7845C13.0984 14.9112 12.159 16.0076 11.1821 17.0586L11.122 17.1267C10.115 18.208 9.07795 19.2514 8.01084 20.2495L7.9432 20.31C6.9287 21.2552 5.88413 22.1626 4.80951 23.0246L4.74188 23.0775C3.98288 23.69 3.20885 24.2798 2.41979 24.8545C2.06659 25.1115 1.71339 25.3611 1.35268 25.6106C2.16428 26.8431 2.99843 28.0454 3.86264 29.2325C3.9453 29.172 4.02796 29.1191 4.11063 29.0586C5.16271 28.31 6.19224 27.5161 7.19923 26.6919L7.26687 26.639C8.33398 25.7618 9.37103 24.8545 10.3855 23.9017L10.4457 23.8412C11.4902 22.8582 12.5047 21.8374 13.4967 20.7713L13.5568 20.7032C14.5187 19.6673 15.4581 18.586 16.3674 17.4745L16.4275 17.4064C16.4425 17.3913 16.4575 17.3686 16.465 17.3535L16.4726 17.4821C17.3593 18.7751 18.2836 20.0303 19.2455 21.2477L19.2981 21.3157C20.2225 22.4802 21.1769 23.6144 22.1613 24.7183C23.1458 23.6144 24.1001 22.4802 25.017 21.3081L25.0696 21.2401C26.0315 20.0151 26.9558 18.7599 27.835 17.4669L27.9027 17.414L27.9402 17.4669C28.8495 18.5785 29.7889 19.6522 30.7583 20.6881L30.8184 20.7562C31.8104 21.8223 32.8324 22.8431 33.877 23.8185L33.9371 23.879C34.9516 24.8318 35.9962 25.7391 37.0633 26.6163L37.1309 26.6692C38.1153 27.4707 39.1223 28.242 40.1519 28.9754C40.2571 29.0511 40.3698 29.1267 40.475 29.2023C41.3392 28.0151 42.1734 26.8053 42.985 25.5728C42.6243 25.3081 42.241 25.0435 41.8653 24.7713ZM24.4383 14.5558C23.7244 15.6219 22.9879 16.6579 22.2289 17.6787L22.1763 17.7467L22.1237 17.6787C21.3422 16.6352 20.5832 15.569 19.8542 14.4802C19.6814 14.2231 19.5161 13.9735 19.3508 13.7165L19.3132 13.6257L19.3583 13.5652C19.4935 13.3686 19.6363 13.172 19.7716 12.9754C20.6132 11.758 21.3948 10.5558 22.1237 9.36863L22.1463 9.33839L22.2289 9.36863C22.9429 10.5255 23.7094 11.7051 24.5285 12.8923C24.6863 13.1115 24.8366 13.3384 24.9944 13.5577L25.017 13.5879L24.9944 13.7089C24.8065 13.9962 24.6262 14.276 24.4383 14.5558Z" fill="#24493E"/>
<path d="M1.45036 23.8639C1.64575 23.7429 1.72841 23.4934 1.66078 23.2741C1.59315 23.0548 1.38273 22.9036 1.14977 22.9112L0.518521 22.9414C0.293076 22.949 0.0901748 22.8053 0.0225411 22.586C-0.0450926 22.3667 0.0375708 22.1323 0.232957 22.0038L0.278046 21.9735C0.428343 21.8752 0.616215 21.8677 0.774027 21.9509L0.698878 22.1021C0.59367 22.0492 0.465917 22.0567 0.368224 22.1172L0.323135 22.1475C0.195383 22.2306 0.135264 22.3894 0.180353 22.5331C0.225442 22.6768 0.36071 22.7751 0.518521 22.7751L1.14977 22.7448C1.45788 22.7297 1.73593 22.9263 1.82611 23.2212C1.91628 23.5161 1.80356 23.8337 1.54054 24H1.53303C1.35267 24.1134 1.12722 24.1361 0.931838 24.0605L0.991957 23.9017C1.14225 23.9622 1.3151 23.9395 1.45036 23.8563V23.8639Z" fill="#24493E"/>
<path d="M5.00489 21.2552L3.45683 19.4405L3.58459 19.3346L5.13265 21.1493L5.00489 21.2552Z" fill="#24493E"/>
<path d="M11.5503 13.8223L11.2347 12.1664L12.9782 13.8299L12.8654 13.9509L11.4977 12.6427L11.7607 14.0189L10.3855 13.8223L11.7532 15.1304L11.6405 15.2514L9.89706 13.5879L11.5503 13.8223Z" fill="#24493E"/>
<path d="M14.9546 8.74858C15.2927 9.01323 15.3604 9.51229 15.0898 9.85255L14.654 10.4121L15.2927 10.9112L15.195 11.0397L13.3163 9.57278L13.8499 8.87713C14.1204 8.53686 14.6089 8.47637 14.9546 8.74858ZM14.9696 9.75425C15.18 9.48204 15.1274 9.09641 14.8644 8.88469C14.6014 8.67297 14.2106 8.7259 14.0002 8.99055L13.5643 9.55009L14.5413 10.3138L14.9696 9.75425Z" fill="#24493E"/>
<path d="M18.231 6.49526L16.2321 5.19469L16.7055 4.45367C16.9235 4.10585 17.3743 3.99242 17.7351 4.18902C18.0958 4.38562 18.2461 4.82418 18.0732 5.20225L19.1028 5.11908L18.99 5.29299L17.9755 5.37617L17.6374 5.90547L18.3212 6.34403L18.231 6.49526ZM17.5021 5.82229L17.8854 5.22494C18.0732 4.9376 17.9906 4.55197 17.6975 4.36294C17.4119 4.1739 17.0287 4.25708 16.8408 4.55197L16.4575 5.14932L17.5021 5.82229Z" fill="#24493E"/>
<path d="M21.0641 1.11909L20.3878 2.39698L18.2912 1.27788L18.9675 0L19.1103 0.0756144L18.5091 1.20983L19.5987 1.79206L20.1248 0.801512L20.2676 0.877127L19.7415 1.86768L20.3126 2.17013L20.9138 1.03592L21.0641 1.11909Z" fill="#24493E"/>
<path d="M9.24327 17.7845L8.20622 18.7902L6.56047 17.0662L7.59752 16.0605L7.71024 16.1815L6.79343 17.0662L7.65012 17.9584L8.45421 17.1796L8.56694 17.3006L7.76285 18.0794L8.21374 18.5482L9.13055 17.6635L9.24327 17.7845Z" fill="#24493E"/>
<path d="M26.4072 2.30624L23.9198 2.81286L25.5731 0.869568L25.6632 1.0208L24.3632 2.55577L26.3245 2.15501L26.4072 2.30624Z" fill="#24493E"/>
<path d="M27.7824 8.71076L26.9558 7.52362L28.9096 6.155L29.7363 7.34214L29.601 7.43288L28.8721 6.38184L27.8576 7.09262L28.4963 8.01511L28.3611 8.10585L27.7298 7.19092L27.1963 7.56143L27.9252 8.61247L27.7824 8.71076Z" fill="#24493E"/>
<path d="M30.5855 12.4234L32.4341 10.9187L32.9827 11.5992C33.2382 11.9168 33.2081 12.3856 32.9076 12.6654C32.607 12.9527 32.1486 12.9527 31.848 12.673L31.6075 13.6786L31.4722 13.5123L31.7127 12.5142L31.3219 12.0302L30.6907 12.5444L30.5855 12.4234ZM31.4497 11.9319L31.893 12.4839C32.111 12.7486 32.4942 12.7939 32.7648 12.5747C33.0278 12.3554 33.0729 11.9697 32.855 11.6975L32.4116 11.1455L31.4497 11.9319Z" fill="#24493E"/>
<path d="M36.65 15.7732C37.1084 16.2495 37.0933 17.0057 36.6199 17.4593C36.1465 17.9206 35.395 17.9055 34.9441 17.4291L34.6134 17.0888L36.3268 15.4253L36.65 15.7732ZM36.5072 17.3384C36.913 16.9452 36.928 16.2949 36.5297 15.8866L36.3118 15.6597L34.8464 17.0888L35.0643 17.3157C35.4551 17.724 36.1014 17.7391 36.5072 17.3384Z" fill="#24493E"/>
<path d="M40.3022 22.4197L39.1975 21.4896L40.723 19.6597L41.8277 20.5898L41.7225 20.7183L40.7455 19.8941L39.9565 20.8469L40.8132 21.5728L40.708 21.7013L39.8513 20.9754L39.438 21.4745L40.4149 22.2987L40.3022 22.4197Z" fill="#24493E"/>
</g>
<defs>
<clipPath id="clip0_42_3832">
<rect width="43" height="48" fill="white"/>
</clipPath>
</defs>
</svg>
