<svg width="50" height="50" viewBox="0 0 50 50" fill="none" xmlns="http://www.w3.org/2000/svg">
<g clip-path="url(#clip0_42_3892)">
<path d="M24.9962 1.49992C28.1686 1.49992 31.2434 2.12239 34.1458 3.34483C35.5407 3.9373 36.8832 4.66477 38.1356 5.51222C39.3805 6.35218 40.5505 7.31963 41.6154 8.38458C42.6804 9.44953 43.6478 10.6195 44.4878 11.8644C45.3352 13.1168 46.0627 14.4668 46.6552 15.8542C47.8776 18.7491 48.5001 21.8239 48.5001 25.0037C48.5001 28.1836 47.8776 31.2509 46.6552 34.1533C46.0627 35.5482 45.3352 36.8907 44.4878 38.1431C43.6478 39.388 42.6804 40.558 41.6154 41.6229C40.5505 42.6879 39.3805 43.6553 38.1356 44.4953C36.8832 45.3427 35.5332 46.0702 34.1458 46.6627C31.2509 47.8851 28.1761 48.5076 24.9962 48.5076C21.8239 48.5076 18.7491 47.8851 15.8467 46.6627C14.4518 46.0702 13.1093 45.3427 11.8569 44.4953C10.612 43.6553 9.44203 42.6879 8.37708 41.6229C7.31213 40.558 6.34468 39.388 5.50472 38.1431C4.65727 36.8907 3.9298 35.5407 3.33733 34.1533C2.12239 31.2509 1.49992 28.1686 1.49992 24.9962C1.49992 21.8239 2.12239 18.7491 3.34483 15.8467C3.9373 14.4518 4.66477 13.1093 5.51222 11.8569C6.35218 10.612 7.31963 9.44203 8.38458 8.37708C9.44953 7.31213 10.6195 6.34468 11.8644 5.50472C13.1168 4.65727 14.4668 3.9298 15.8542 3.33733C18.7491 2.12239 21.8239 1.49992 24.9962 1.49992ZM24.9962 0C11.1894 0 0 11.1894 0 24.9962C0 38.8031 11.1894 49.9925 24.9962 49.9925C38.8031 49.9925 49.9925 38.8031 49.9925 24.9962C50 11.1894 38.8031 0 24.9962 0Z" fill="#1D3557"/>
<path d="M4.1698 24.9963C4.1698 33.2383 8.96206 40.3705 15.9142 43.7453L5.97721 16.5217C4.81477 19.1091 4.1698 21.9814 4.1698 24.9963ZM39.0656 23.9463C39.0656 21.3739 38.1431 19.589 37.3481 18.2016C36.2907 16.4842 35.3007 15.0293 35.3007 13.3193C35.3007 11.4069 36.7557 9.62203 38.7956 9.62203C38.8856 9.62203 38.9756 9.62953 39.0656 9.63703C35.3607 6.2397 30.4185 4.1698 24.9963 4.1698C17.7216 4.1698 11.3169 7.90461 7.58963 13.5593C8.0771 13.5743 8.54208 13.5818 8.93206 13.5818C11.107 13.5818 14.4818 13.3193 14.4818 13.3193C15.6067 13.2518 15.7342 14.9018 14.6168 15.0368C14.6168 15.0368 13.4843 15.1717 12.2319 15.2317L19.8215 37.7981L24.3813 24.1263L21.1339 15.2317C20.009 15.1642 18.9516 15.0368 18.9516 15.0368C17.8266 14.9693 17.9616 13.2518 19.0866 13.3193C19.0866 13.3193 22.5289 13.5818 24.5763 13.5818C26.7512 13.5818 30.126 13.3193 30.126 13.3193C31.2509 13.2518 31.3784 14.9018 30.261 15.0368C30.261 15.0368 29.1286 15.1717 27.8761 15.2317L35.3982 37.6256L37.5506 30.816C38.5031 27.8386 39.0656 25.7312 39.0656 23.9463ZM25.3637 26.8187L19.1091 44.9828C20.9765 45.5302 22.9489 45.8302 24.9963 45.8302C27.4186 45.8302 29.751 45.4102 31.9109 44.6528C31.8584 44.5628 31.8059 44.4653 31.7609 44.3678L25.3637 26.8187ZM43.2803 15.0068C43.3703 15.6667 43.4228 16.3792 43.4228 17.1517C43.4228 19.2665 43.0254 21.6439 41.8404 24.6138L35.4732 43.0029C41.6679 39.3955 45.8302 32.6834 45.8302 24.9963C45.8302 21.3739 44.9078 17.9691 43.2803 15.0068Z" fill="#1D3557"/>
</g>
<defs>
<clipPath id="clip0_42_3892">
<rect width="50" height="50" fill="white"/>
</clipPath>
</defs>
</svg>
