<svg width="34" height="50" viewBox="0 0 34 50" fill="none" xmlns="http://www.w3.org/2000/svg">
<g clip-path="url(#clip0_42_3924)">
<path d="M16.6667 25C16.6667 22.7899 17.5446 20.6702 19.1074 19.1074C20.6702 17.5446 22.7899 16.6667 25 16.6667C27.2101 16.6667 29.3297 17.5446 30.8925 19.1074C32.4553 20.6702 33.3333 22.7899 33.3333 25C33.3333 27.2101 32.4553 29.3297 30.8925 30.8925C29.3297 32.4553 27.2101 33.3333 25 33.3333C22.7899 33.3333 20.6702 32.4553 19.1074 30.8925C17.5446 29.3297 16.6667 27.2101 16.6667 25V25Z" fill="#1ABCFE"/>
<path d="M0 41.6667C0 39.4565 0.877974 37.3369 2.44078 35.7741C4.00358 34.2113 6.1232 33.3333 8.33333 33.3333H16.6667V41.6667C16.6667 43.8768 15.7887 45.9964 14.2259 47.5592C12.6631 49.122 10.5435 50 8.33333 50C6.1232 50 4.00358 49.122 2.44078 47.5592C0.877974 45.9964 0 43.8768 0 41.6667H0Z" fill="#0ACF83"/>
<path d="M16.6667 0V16.6667H25C27.2101 16.6667 29.3297 15.7887 30.8925 14.2259C32.4553 12.6631 33.3333 10.5435 33.3333 8.33333C33.3333 6.1232 32.4553 4.00358 30.8925 2.44078C29.3297 0.877974 27.2101 0 25 0L16.6667 0Z" fill="#FF7262"/>
<path d="M0 8.33333C0 10.5435 0.877974 12.6631 2.44078 14.2259C4.00358 15.7887 6.1232 16.6667 8.33333 16.6667H16.6667V0H8.33333C6.1232 0 4.00358 0.877974 2.44078 2.44078C0.877974 4.00358 0 6.1232 0 8.33333H0Z" fill="#F24E1E"/>
<path d="M0 25C0 27.2101 0.877974 29.3297 2.44078 30.8925C4.00358 32.4553 6.1232 33.3333 8.33333 33.3333H16.6667V16.6667H8.33333C6.1232 16.6667 4.00358 17.5446 2.44078 19.1074C0.877974 20.6702 0 22.7899 0 25H0Z" fill="#A259FF"/>
</g>
<defs>
<clipPath id="clip0_42_3924">
<rect width="33.3333" height="50" fill="white"/>
</clipPath>
</defs>
</svg>
