<svg width="720" height="680" viewBox="0 0 720 680" fill="none" xmlns="http://www.w3.org/2000/svg">
<g clip-path="url(#clip0_42_2399)">
<g opacity="0.8">
<path d="M717.918 362.905C717.918 363.203 718.216 363.203 718.216 363.203C718.514 363.203 718.514 362.905 718.514 362.905C718.514 362.607 718.216 362.607 718.216 362.607L717.918 362.905Z" fill="#F1FAEE"/>
<path d="M691.75 363.797C691.75 364.095 692.048 364.095 692.048 364.095C692.346 364.095 692.346 363.797 692.346 363.797C692.346 363.5 692.048 363.5 692.048 363.5C691.75 363.5 691.75 363.5 691.75 363.797Z" fill="#F1FAEE"/>
<path d="M693.534 416.448C693.832 416.448 693.832 416.448 693.534 416.448C693.832 416.448 693.832 416.15 693.534 416.448Z" fill="#F1FAEE"/>
<path d="M664.392 364.689C664.392 365.284 664.987 365.879 665.879 365.879C666.474 365.879 667.069 365.284 667.069 364.392C667.069 363.797 666.474 363.202 665.582 363.202C664.987 363.202 664.392 363.797 664.392 364.689Z" fill="#F1FAEE"/>
<path d="M665.879 390.866C665.879 391.461 666.177 391.759 666.771 391.759C667.069 391.759 667.663 391.461 667.663 390.866C667.663 390.569 667.366 389.974 666.771 389.974C666.177 389.974 665.879 390.569 665.879 390.866Z" fill="#F1FAEE"/>
<path d="M636.143 311.444C636.143 312.336 637.035 313.228 637.927 313.228C638.819 313.228 639.711 312.336 639.711 311.444C639.711 310.551 638.819 309.659 637.927 309.659C636.737 309.659 636.143 310.551 636.143 311.444Z" fill="#F1FAEE"/>
<path d="M636.44 337.62C636.44 338.81 637.332 339.703 638.522 339.703C639.711 339.703 640.603 338.81 640.603 337.62C640.603 336.43 639.711 335.538 638.522 335.538C637.332 335.538 636.44 336.43 636.44 337.62Z" fill="#F1FAEE"/>
<path d="M637.332 365.582C637.332 366.772 638.522 367.664 639.711 367.664C640.9 367.664 641.793 366.474 641.793 365.284C641.793 364.095 640.603 363.202 639.414 363.202C638.224 363.202 637.332 364.392 637.332 365.582Z" fill="#F1FAEE"/>
<path d="M638.522 391.759C638.522 392.651 639.414 393.543 640.306 393.543C641.198 393.543 642.09 392.651 642.09 391.759C642.09 390.866 641.198 389.974 640.306 389.974C639.414 389.974 638.522 390.866 638.522 391.759Z" fill="#F1FAEE"/>
<path d="M639.711 417.935C639.711 418.53 640.306 419.125 641.198 419.125C641.793 419.125 642.387 418.53 642.387 417.638C642.387 417.043 641.793 416.448 640.9 416.448C640.306 416.745 639.711 417.34 639.711 417.935Z" fill="#F1FAEE"/>
<path d="M608.19 233.508C608.19 234.103 608.488 234.401 609.082 234.401C609.677 234.401 609.974 234.103 609.974 233.508C609.974 232.913 609.677 232.616 609.082 232.616C608.488 232.616 608.19 232.913 608.19 233.508Z" fill="#F1FAEE"/>
<path d="M608.488 259.685C608.488 260.577 609.082 261.172 609.974 261.172C610.866 261.172 611.461 260.577 611.461 259.685C611.461 258.793 610.866 258.198 609.974 258.198C609.082 258.198 608.488 258.793 608.488 259.685Z" fill="#F1FAEE"/>
<path d="M608.785 285.862C608.785 287.052 609.677 287.944 610.866 287.944C612.056 287.944 612.948 287.052 612.948 285.862C612.948 284.672 612.056 283.78 610.866 283.78C609.677 283.78 608.785 284.969 608.785 285.862Z" fill="#F1FAEE"/>
<path d="M609.38 338.513C609.38 340.297 610.866 341.487 612.353 341.487C614.138 341.487 615.327 340 615.327 338.513C615.327 336.728 613.84 335.538 612.353 335.538C610.569 335.538 609.38 337.025 609.38 338.513Z" fill="#F1FAEE"/>
<path d="M610.272 366.474C610.272 368.259 611.759 369.449 613.543 369.449C615.327 369.449 616.516 367.962 616.516 366.177C616.516 364.392 615.03 363.202 613.245 363.202C611.461 363.202 610.272 364.689 610.272 366.474Z" fill="#F1FAEE"/>
<path d="M611.461 392.651C611.461 394.138 612.651 395.031 614.138 395.031C615.624 395.031 616.516 393.841 616.516 392.353C616.516 390.866 615.327 389.974 613.84 389.974C612.651 389.974 611.461 391.164 611.461 392.651Z" fill="#F1FAEE"/>
<path d="M612.651 418.828C612.651 420.017 613.543 420.91 614.732 420.91C615.922 420.91 616.814 420.017 616.814 418.828C616.814 417.638 615.922 416.745 614.732 416.745C613.543 416.745 612.651 417.638 612.651 418.828Z" fill="#F1FAEE"/>
<path d="M614.138 445.004C614.138 445.897 614.732 446.492 615.624 446.492C616.516 446.492 617.111 445.897 617.111 445.004C617.111 444.112 616.516 443.517 615.624 443.517C614.732 443.517 614.138 444.409 614.138 445.004Z" fill="#F1FAEE"/>
<path d="M581.13 234.103C581.13 234.996 582.022 235.888 582.914 235.591C583.806 235.591 584.698 234.698 584.401 233.806C584.401 232.913 583.509 232.021 582.617 232.318C581.725 232.616 581.13 233.211 581.13 234.103Z" fill="#F1FAEE"/>
<path d="M581.427 260.577C581.427 261.767 582.617 262.66 583.806 262.66C584.996 262.66 585.888 261.47 585.888 260.28C585.888 259.09 584.698 258.198 583.509 258.198C582.319 258.198 581.427 259.388 581.427 260.577Z" fill="#F1FAEE"/>
<path d="M581.725 286.754C581.725 288.241 583.211 289.431 584.698 289.431C586.185 289.431 587.375 287.944 587.375 286.457C587.375 284.969 585.888 283.78 584.401 283.78C582.914 284.077 581.725 285.267 581.725 286.754Z" fill="#F1FAEE"/>
<path d="M582.022 313.228C582.022 315.013 583.509 316.5 585.59 316.5C587.375 316.5 588.861 315.013 588.861 312.931C588.861 311.146 587.375 309.659 585.293 309.659C583.211 309.659 582.022 311.146 582.022 313.228Z" fill="#F1FAEE"/>
<path d="M582.319 339.405C582.319 341.487 584.103 343.272 586.185 343.272C588.267 343.272 590.051 341.487 590.051 339.405C590.051 337.323 588.267 335.538 586.185 335.538C583.806 335.538 582.319 337.323 582.319 339.405Z" fill="#F1FAEE"/>
<path d="M583.211 367.069C583.211 369.151 584.996 370.936 587.077 370.936C589.159 370.936 590.943 369.151 590.943 367.069C590.943 364.987 589.159 363.202 587.077 363.202C584.698 363.202 582.914 364.987 583.211 367.069Z" fill="#F1FAEE"/>
<path d="M585.888 419.72C585.888 421.207 587.375 422.397 588.861 422.397C590.348 422.397 591.538 420.91 591.538 419.423C591.538 417.935 590.051 416.745 588.564 416.745C587.077 416.745 585.59 418.233 585.888 419.72Z" fill="#F1FAEE"/>
<path d="M554.367 234.996C554.367 236.185 555.556 237.375 556.746 237.375C557.935 237.375 559.125 236.185 559.125 234.996C559.125 233.806 557.935 232.616 556.746 232.616C555.259 232.616 554.069 233.806 554.367 234.996Z" fill="#F1FAEE"/>
<path d="M554.367 261.47C554.367 263.255 555.854 264.444 557.34 264.444C559.125 264.444 560.314 262.957 560.314 261.47C560.314 259.685 558.827 258.495 557.34 258.495C555.556 258.198 554.367 259.685 554.367 261.47Z" fill="#F1FAEE"/>
<path d="M554.664 287.647C554.664 289.729 556.448 291.216 558.53 291.216C560.612 291.216 562.098 289.431 562.098 287.349C562.098 285.267 560.314 283.78 558.233 283.78C556.151 284.077 554.367 285.564 554.664 287.647Z" fill="#F1FAEE"/>
<path d="M554.664 314.121C554.664 316.5 556.746 318.285 559.125 318.285C561.504 318.285 563.288 316.203 563.288 313.823C563.288 311.444 561.206 309.659 558.827 309.659C556.448 309.659 554.664 311.741 554.664 314.121Z" fill="#F1FAEE"/>
<path d="M554.962 340.298C554.962 342.975 557.34 345.057 559.719 344.759C562.396 344.759 564.477 342.38 564.18 340C564.18 337.323 561.801 335.241 559.422 335.538C557.043 335.538 554.962 337.62 554.962 340.298Z" fill="#F1FAEE"/>
<path d="M555.854 367.961C555.854 370.639 558.233 372.721 560.909 372.721C563.585 372.721 565.667 370.341 565.667 367.664C565.667 364.987 563.288 362.905 560.612 362.905C557.935 363.202 555.854 365.284 555.854 367.961Z" fill="#F1FAEE"/>
<path d="M557.34 394.436C557.34 396.815 559.422 398.6 561.801 398.6C564.18 398.6 565.964 396.518 565.964 394.138C565.964 391.759 563.883 389.974 561.504 389.974C559.125 389.974 557.34 392.056 557.34 394.436Z" fill="#F1FAEE"/>
<path d="M558.827 420.612C558.827 422.695 560.612 424.182 562.693 424.182C564.775 424.182 566.262 422.397 566.262 420.315C566.262 418.233 564.477 416.745 562.396 416.745C560.314 416.745 558.53 418.53 558.827 420.612Z" fill="#F1FAEE"/>
<path d="M560.017 446.789C560.017 448.574 561.504 449.764 563.288 449.764C565.072 449.764 566.262 448.276 566.262 446.492C566.262 444.707 564.775 443.517 562.991 443.517C561.504 443.815 560.017 445.004 560.017 446.789Z" fill="#F1FAEE"/>
<path d="M527.009 209.711C527.009 210.901 528.199 212.091 529.388 212.091C530.578 212.091 531.767 210.901 531.767 209.711C531.767 208.521 530.578 207.332 529.388 207.332C528.199 207.332 527.009 208.224 527.009 209.711Z" fill="#F1FAEE"/>
<path d="M527.307 235.888C527.307 237.673 528.793 238.863 530.28 238.863C532.064 238.863 533.254 237.375 533.254 235.888C533.254 234.103 531.767 232.913 530.28 232.913C528.496 232.913 527.307 234.401 527.307 235.888Z" fill="#F1FAEE"/>
<path d="M527.307 262.065C527.307 264.147 529.091 265.634 531.172 265.634C533.254 265.634 534.741 263.849 534.741 261.767C534.741 259.685 532.956 258.198 530.875 258.198C528.793 258.495 527.307 260.28 527.307 262.065Z" fill="#F1FAEE"/>
<path d="M527.604 288.539C527.604 290.919 529.685 293.001 532.064 292.703C534.443 292.703 536.227 290.621 536.227 288.241C536.227 285.862 534.146 283.78 531.767 284.077C529.388 284.077 527.604 286.159 527.604 288.539Z" fill="#F1FAEE"/>
<path d="M527.901 314.716C527.901 317.393 530.28 319.475 532.956 319.475C535.633 319.475 537.714 317.095 537.714 314.418C537.714 311.741 535.335 309.659 532.659 309.659C529.983 309.659 527.604 312.039 527.901 314.716Z" fill="#F1FAEE"/>
<path d="M527.901 341.19C527.901 344.164 530.578 346.544 533.551 346.544C536.525 346.544 538.904 343.867 538.904 340.892C538.904 337.918 536.228 335.538 533.254 335.538C530.28 335.538 527.901 337.918 527.901 341.19Z" fill="#F1FAEE"/>
<path d="M528.793 368.854C528.793 371.829 531.47 374.506 534.443 374.208C537.417 374.208 540.093 371.531 539.796 368.556C539.796 365.582 537.12 362.905 534.146 363.202C531.172 363.202 528.793 365.879 528.793 368.854Z" fill="#F1FAEE"/>
<path d="M530.28 395.031C530.28 397.708 532.659 400.088 535.335 399.79C538.012 399.79 540.391 397.41 540.093 394.733C540.093 392.056 537.714 389.676 535.038 389.974C532.362 389.974 529.983 392.354 530.28 395.031Z" fill="#F1FAEE"/>
<path d="M531.767 421.505C531.767 423.884 533.849 425.967 536.227 425.669C538.606 425.669 540.391 423.587 540.391 421.207C540.391 418.828 538.309 416.745 535.93 417.043C533.551 417.043 531.47 419.125 531.767 421.505Z" fill="#F1FAEE"/>
<path d="M497.272 26.4745C497.57 26.4745 497.57 26.4745 497.272 26.4745C497.57 26.1766 497.57 26.1766 497.272 26.4745C497.57 26.1766 497.272 26.1766 497.272 26.4745Z" fill="#F1FAEE"/>
<path d="M500.246 131.479C500.246 131.776 500.544 131.776 500.841 131.776C501.138 131.776 501.138 131.479 501.138 131.181C501.138 130.884 500.841 130.884 500.544 130.884C500.544 131.181 500.246 131.181 500.246 131.479Z" fill="#F1FAEE"/>
<path d="M500.246 210.306C500.246 211.793 501.733 212.983 503.22 212.983C504.707 212.983 505.896 211.496 505.896 210.009C505.896 208.521 504.409 207.332 502.922 207.332C501.436 207.629 500.246 208.819 500.246 210.306Z" fill="#F1FAEE"/>
<path d="M500.246 236.78C500.246 238.863 502.03 240.35 504.112 240.35C506.193 240.35 507.68 238.565 507.68 236.483C507.68 234.401 505.896 232.913 503.815 232.913C502.03 232.913 500.246 234.698 500.246 236.78Z" fill="#F1FAEE"/>
<path d="M500.544 262.957C500.544 265.337 502.625 267.122 505.004 267.122C507.383 267.122 509.167 265.039 509.167 262.66C509.167 260.28 507.086 258.495 504.707 258.495C502.328 258.495 500.246 260.577 500.544 262.957Z" fill="#F1FAEE"/>
<path d="M500.544 289.431C500.544 292.108 502.922 294.488 505.896 294.488C508.572 294.488 510.951 292.108 510.951 289.134C510.951 286.457 508.572 284.077 505.599 284.077C502.625 284.077 500.544 286.457 500.544 289.431Z" fill="#F1FAEE"/>
<path d="M500.841 315.608C500.841 318.88 503.517 321.26 506.788 321.26C510.059 321.26 512.438 318.583 512.438 315.311C512.438 312.039 509.762 309.659 506.491 309.659C503.22 309.956 500.543 312.336 500.841 315.608Z" fill="#F1FAEE"/>
<path d="M500.841 342.082C500.841 345.652 503.815 348.329 507.383 348.329C510.951 348.329 513.628 345.354 513.628 341.785C513.628 338.215 510.654 335.538 507.086 335.538C503.517 335.538 500.841 338.513 500.841 342.082Z" fill="#F1FAEE"/>
<path d="M501.733 369.746C501.733 373.316 504.707 375.993 508.275 375.993C511.843 375.993 514.52 373.018 514.52 369.449C514.52 365.879 511.546 363.202 507.978 363.202C504.409 363.202 501.733 366.177 501.733 369.746Z" fill="#F1FAEE"/>
<path d="M503.22 395.923C503.22 399.195 505.896 401.575 509.167 401.575C512.438 401.575 514.817 398.898 514.817 395.626C514.817 392.353 512.141 389.974 508.87 389.974C505.599 389.974 502.922 392.651 503.22 395.923Z" fill="#F1FAEE"/>
<path d="M504.707 422.1C504.707 425.074 507.086 427.157 510.059 427.157C513.033 427.157 515.114 424.777 515.114 421.802C515.114 418.828 512.736 416.745 509.762 416.745C506.788 417.043 504.409 419.422 504.707 422.1Z" fill="#F1FAEE"/>
<path d="M507.68 474.751C507.68 476.833 509.465 478.32 511.546 478.32C513.628 478.32 515.114 476.535 515.114 474.453C515.114 472.371 513.33 470.884 511.249 470.884C509.167 470.884 507.68 472.668 507.68 474.751Z" fill="#F1FAEE"/>
<path d="M509.464 500.927C509.464 502.415 510.951 503.902 512.438 503.902C513.925 503.902 515.412 502.415 515.114 500.927C515.114 499.44 513.628 497.953 512.141 498.25C510.654 497.953 509.167 499.44 509.464 500.927Z" fill="#F1FAEE"/>
<path d="M473.483 105.897C473.483 106.195 473.483 106.195 473.483 105.897C473.781 106.195 473.781 106.195 473.483 105.897C473.781 105.897 473.781 105.897 473.483 105.897Z" fill="#F1FAEE"/>
<path d="M473.483 158.548C473.483 159.44 474.375 160.332 475.267 160.332C476.159 160.332 477.052 159.44 477.052 158.548C477.052 157.655 476.159 156.763 475.267 156.763C474.078 156.763 473.483 157.655 473.483 158.548Z" fill="#F1FAEE"/>
<path d="M473.483 185.022C473.483 186.509 474.673 187.699 476.159 187.699C477.646 187.699 478.836 186.509 478.836 185.022C478.836 183.535 477.646 182.345 476.159 182.345C474.673 182.345 473.483 183.535 473.483 185.022Z" fill="#F1FAEE"/>
<path d="M473.483 211.199C473.483 212.983 475.267 214.471 477.052 214.471C478.836 214.471 480.323 212.686 480.323 210.901C480.323 209.116 478.538 207.629 476.754 207.629C474.97 207.926 473.483 209.414 473.483 211.199Z" fill="#F1FAEE"/>
<path d="M473.483 237.673C473.483 240.052 475.565 241.837 477.944 241.837C480.323 241.837 482.107 239.755 482.107 237.375C482.107 234.996 480.025 233.211 477.646 233.211C475.267 233.211 473.483 235.293 473.483 237.673Z" fill="#F1FAEE"/>
<path d="M473.483 263.849C473.483 266.527 475.862 268.906 478.538 268.609C481.215 268.609 483.594 266.229 483.296 263.552C483.296 260.875 480.917 258.495 478.241 258.793C475.565 258.793 473.483 261.172 473.483 263.849Z" fill="#F1FAEE"/>
<path d="M473.483 290.324C473.483 293.596 476.159 295.975 479.43 295.975C482.702 295.975 485.08 293.298 485.08 290.026C485.08 286.754 482.404 284.374 479.133 284.374C476.159 284.374 473.483 287.052 473.483 290.324Z" fill="#F1FAEE"/>
<path d="M473.781 316.5C473.781 320.07 476.754 322.747 480.323 322.747C483.891 322.747 486.567 319.772 486.567 316.203C486.567 312.633 483.594 309.956 480.025 309.956C476.457 309.956 473.781 312.931 473.781 316.5Z" fill="#F1FAEE"/>
<path d="M473.781 342.677C473.781 346.544 477.052 349.816 481.215 349.519C485.08 349.519 488.351 346.247 488.054 342.082C488.054 338.215 484.783 334.943 480.62 335.24C476.754 335.538 473.781 338.81 473.781 342.677Z" fill="#F1FAEE"/>
<path d="M474.673 370.639C474.673 374.506 477.944 377.778 482.107 377.48C485.973 377.48 489.244 374.208 488.946 370.044C488.946 366.177 485.675 362.905 481.512 363.202C477.646 363.202 474.673 366.474 474.673 370.639Z" fill="#F1FAEE"/>
<path d="M477.646 422.992C477.646 426.264 480.323 428.644 483.594 428.644C486.865 428.644 489.244 425.967 489.244 422.695C489.244 419.423 486.567 417.043 483.296 417.043C480.025 417.043 477.646 419.72 477.646 422.992Z" fill="#F1FAEE"/>
<path d="M479.133 449.466C479.133 452.143 481.512 454.523 484.486 454.523C487.162 454.523 489.541 452.143 489.541 449.169C489.541 446.492 487.162 444.112 484.188 444.112C481.215 444.112 479.133 446.492 479.133 449.466Z" fill="#F1FAEE"/>
<path d="M445.531 54.1382C445.828 54.4361 445.531 54.4361 445.531 54.1382C445.828 54.4361 445.828 54.4361 445.531 54.1382C445.828 54.1382 445.828 54.1382 445.531 54.1382Z" fill="#F1FAEE"/>
<path d="M447.018 106.789C447.018 107.087 447.315 107.087 447.612 107.087C447.91 107.087 447.91 106.789 447.91 106.492C447.91 106.194 447.612 106.194 447.315 106.194C447.017 106.492 447.018 106.492 447.018 106.789Z" fill="#F1FAEE"/>
<path d="M447.018 133.263C447.018 133.858 447.612 134.453 448.504 134.453C449.099 134.453 449.694 133.858 449.694 132.966C449.694 132.371 449.099 131.776 448.207 131.776C447.315 131.776 446.72 132.371 447.018 133.263Z" fill="#F1FAEE"/>
<path d="M446.72 159.44C446.72 160.63 447.91 161.522 449.099 161.522C450.289 161.522 451.181 160.332 451.181 159.143C451.181 157.953 449.991 157.06 448.802 157.06C447.612 157.06 446.72 158.25 446.72 159.44Z" fill="#F1FAEE"/>
<path d="M446.72 185.914C446.72 187.699 448.207 188.889 449.991 188.889C451.775 188.889 452.965 187.402 452.965 185.617C452.965 183.832 451.478 182.642 449.694 182.642C447.91 182.642 446.72 184.129 446.72 185.914Z" fill="#F1FAEE"/>
<path d="M446.72 212.091C446.72 214.173 448.504 215.958 450.883 215.958C452.965 215.958 454.749 214.173 454.749 211.794C454.749 209.711 452.965 207.927 450.586 207.927C448.207 208.224 446.72 210.009 446.72 212.091Z" fill="#F1FAEE"/>
<path d="M446.72 238.268C446.72 240.945 449.099 243.027 451.775 243.027C454.452 243.027 456.533 240.647 456.533 237.97C456.533 235.293 454.154 233.211 451.478 233.211C448.802 233.508 446.423 235.888 446.72 238.268Z" fill="#F1FAEE"/>
<path d="M446.72 264.742C446.72 267.717 449.396 270.394 452.37 270.096C455.344 270.096 458.02 267.419 457.723 264.444C457.723 261.47 455.046 258.793 452.073 259.09C449.099 259.09 446.423 261.767 446.72 264.742Z" fill="#F1FAEE"/>
<path d="M446.72 290.919C446.72 294.488 449.694 297.165 453.262 297.165C456.831 297.165 459.507 294.191 459.507 290.621C459.507 287.052 456.533 284.374 452.965 284.374C449.396 284.672 446.72 287.349 446.72 290.919Z" fill="#F1FAEE"/>
<path d="M446.72 317.393C446.72 321.26 450.289 324.532 454.154 324.234C458.02 324.234 461.291 320.962 460.994 316.798C460.696 312.633 457.723 309.659 453.56 309.956C449.694 309.956 446.72 313.526 446.72 317.393Z" fill="#F1FAEE"/>
<path d="M446.72 343.57C446.72 348.032 450.586 351.304 454.749 351.304C459.21 351.304 462.481 347.437 462.481 343.272C462.481 338.81 458.615 335.538 454.452 335.538C449.991 335.538 446.72 339.405 446.72 343.57Z" fill="#F1FAEE"/>
<path d="M447.612 371.531C447.612 375.993 451.478 379.265 455.939 379.265C460.399 379.265 463.67 375.398 463.67 370.936C463.67 366.474 459.804 363.202 455.344 363.202C450.883 363.202 447.612 367.069 447.612 371.531Z" fill="#F1FAEE"/>
<path d="M449.099 397.708C449.099 401.575 452.668 404.847 456.533 404.847C460.399 404.847 463.67 401.277 463.67 397.41C463.67 393.543 460.102 390.271 456.236 390.569C452.073 390.271 449.099 393.543 449.099 397.708Z" fill="#F1FAEE"/>
<path d="M450.883 423.885C450.883 427.454 453.857 430.131 457.425 430.131C460.994 430.131 463.67 427.157 463.67 423.587C463.67 420.017 460.696 417.34 457.128 417.34C453.56 417.34 450.586 420.315 450.883 423.885Z" fill="#F1FAEE"/>
<path d="M452.37 450.061C452.37 453.333 455.046 455.713 458.317 455.713C461.588 455.713 463.967 453.036 463.967 449.764C463.967 446.492 461.291 444.112 458.02 444.112C454.749 444.409 452.37 447.087 452.37 450.061Z" fill="#F1FAEE"/>
<path d="M420.255 107.682C420.255 107.979 420.552 108.574 421.147 108.574C421.444 108.574 422.039 108.276 422.039 107.682C422.039 107.384 421.741 106.789 421.147 106.789C420.552 106.789 420.255 107.384 420.255 107.682Z" fill="#F1FAEE"/>
<path d="M420.255 133.858C420.255 134.751 421.147 135.643 422.039 135.643C422.931 135.643 423.823 134.751 423.823 133.858C423.823 132.966 422.931 132.073 422.039 132.073C420.849 132.371 420.255 132.966 420.255 133.858Z" fill="#F1FAEE"/>
<path d="M420.255 160.332C420.255 161.82 421.444 163.01 422.931 163.01C424.418 163.01 425.607 161.82 425.607 160.332C425.607 158.845 424.418 157.655 422.931 157.655C421.147 157.655 419.957 158.845 420.255 160.332Z" fill="#F1FAEE"/>
<path d="M419.957 186.509C419.957 188.294 421.741 190.079 423.526 189.781C425.31 189.781 427.094 187.997 426.797 186.212C426.797 184.427 425.012 182.642 423.228 182.94C421.444 182.94 419.957 184.724 419.957 186.509Z" fill="#F1FAEE"/>
<path d="M419.957 212.983C419.957 215.363 422.039 217.445 424.418 217.148C426.797 217.148 428.581 215.066 428.581 212.686C428.581 210.306 426.499 208.224 424.12 208.521C421.741 208.521 419.957 210.604 419.957 212.983Z" fill="#F1FAEE"/>
<path d="M419.957 239.16C419.957 242.135 422.633 244.514 425.31 244.217C428.283 244.217 430.662 241.54 430.365 238.863C430.365 235.888 427.689 233.508 425.012 233.806C422.039 233.806 419.66 236.185 419.957 239.16Z" fill="#F1FAEE"/>
<path d="M419.957 265.634C419.957 268.906 422.931 271.584 426.202 271.584C429.473 271.584 432.149 268.609 432.149 265.337C432.149 262.065 429.176 259.388 425.905 259.388C422.336 259.388 419.66 262.065 419.957 265.634Z" fill="#F1FAEE"/>
<path d="M419.957 291.811C419.957 295.678 423.228 298.653 427.094 298.653C430.96 298.653 433.933 295.381 433.933 291.514C433.933 287.647 430.662 284.672 426.797 284.672C422.633 284.969 419.66 287.944 419.957 291.811Z" fill="#F1FAEE"/>
<path d="M419.957 318.285C419.957 322.45 423.823 326.019 427.986 325.722C432.149 325.722 435.718 321.855 435.42 317.69C435.42 313.526 431.554 309.956 427.391 310.254C423.228 310.254 419.66 313.823 419.957 318.285Z" fill="#F1FAEE"/>
<path d="M419.957 344.462C419.957 349.221 424.12 352.791 428.581 352.791C433.339 352.791 436.907 348.626 436.907 344.164C436.907 339.405 432.744 335.835 428.283 335.835C423.526 335.835 419.957 339.702 419.957 344.462Z" fill="#F1FAEE"/>
<path d="M420.849 372.126C420.849 376.885 425.012 380.455 429.77 380.455C434.528 380.455 438.097 376.291 438.097 371.531C438.097 366.772 433.933 363.202 429.176 363.202C424.418 363.5 420.552 367.664 420.849 372.126Z" fill="#F1FAEE"/>
<path d="M422.336 398.6C422.336 403.062 426.202 406.334 430.365 406.334C434.826 406.334 438.097 402.467 438.097 398.303C438.097 393.841 434.231 390.569 430.068 390.569C425.607 390.569 422.039 394.138 422.336 398.6Z" fill="#F1FAEE"/>
<path d="M423.823 424.777C423.823 428.644 427.094 431.618 430.96 431.618C434.826 431.618 437.799 428.346 437.799 424.479C437.799 420.612 434.528 417.638 430.662 417.638C426.797 417.638 423.823 420.91 423.823 424.777Z" fill="#F1FAEE"/>
<path d="M425.607 450.954C425.607 454.523 428.581 457.2 431.852 456.903C435.42 456.903 438.097 453.928 437.799 450.656C437.799 447.384 434.825 444.409 431.554 444.707C428.283 444.707 425.607 447.681 425.607 450.954Z" fill="#F1FAEE"/>
<path d="M393.789 82.0997C393.789 82.3976 393.789 82.3976 393.789 82.0997C394.087 82.3976 394.087 82.0997 394.087 82.0997C394.087 82.0997 394.087 82.0997 393.789 82.0997Z" fill="#F1FAEE"/>
<path d="M393.789 108.574C393.789 109.169 394.384 109.764 394.978 109.764C395.573 109.764 396.168 109.169 396.168 108.574C396.168 107.979 395.573 107.384 394.978 107.384C394.086 107.384 393.492 107.979 393.789 108.574Z" fill="#F1FAEE"/>
<path d="M393.492 134.751C393.492 135.94 394.384 136.833 395.573 136.833C396.763 136.833 397.655 135.94 397.655 134.751C397.655 133.561 396.763 132.668 395.573 132.668C394.384 132.668 393.492 133.561 393.492 134.751Z" fill="#F1FAEE"/>
<path d="M393.492 161.225C393.492 163.01 394.978 164.2 396.465 164.2C398.249 164.2 399.439 162.712 399.439 161.225C399.439 159.44 397.952 158.25 396.465 158.25C394.681 158.25 393.492 159.44 393.492 161.225Z" fill="#F1FAEE"/>
<path d="M393.492 187.402C393.492 189.484 395.276 191.269 397.357 191.269C399.439 191.269 401.223 189.484 401.223 187.402C401.223 185.319 399.439 183.535 397.357 183.535C394.978 183.535 393.492 185.319 393.492 187.402Z" fill="#F1FAEE"/>
<path d="M393.194 213.876C393.194 216.553 395.573 218.635 398.249 218.635C400.926 218.635 403.007 216.255 403.007 213.578C403.007 210.901 400.628 208.819 397.952 208.819C395.276 208.819 393.194 211.199 393.194 213.876Z" fill="#F1FAEE"/>
<path d="M393.194 240.052C393.194 243.325 395.871 245.704 399.142 245.704C402.413 245.704 404.791 243.027 404.791 239.755C404.791 236.483 402.115 234.103 398.844 234.103C395.573 234.103 393.194 236.78 393.194 240.052Z" fill="#F1FAEE"/>
<path d="M393.194 266.527C393.194 270.096 396.465 273.071 400.034 272.773C403.602 272.773 406.576 269.501 406.278 265.932C406.278 262.362 403.007 259.388 399.439 259.685C395.871 259.685 393.194 262.66 393.194 266.527Z" fill="#F1FAEE"/>
<path d="M393.194 292.703C393.194 296.868 396.763 300.14 400.926 299.842C405.089 299.842 408.36 296.273 408.063 292.108C408.063 287.944 404.494 284.672 400.331 284.969C396.168 285.267 392.897 288.539 393.194 292.703Z" fill="#F1FAEE"/>
<path d="M393.194 318.88C393.194 323.342 397.06 327.209 401.818 326.912C406.278 326.912 410.144 323.045 409.847 318.285C409.847 313.823 405.981 309.956 401.223 310.254C396.465 310.551 392.897 314.418 393.194 318.88Z" fill="#F1FAEE"/>
<path d="M393.194 345.354C393.492 350.411 397.655 354.278 402.71 354.278C407.765 353.981 411.631 349.816 411.631 344.759C411.334 339.702 407.17 335.835 402.115 335.835C396.763 336.133 392.897 340.297 393.194 345.354Z" fill="#F1FAEE"/>
<path d="M393.789 373.018C394.086 378.075 398.249 381.942 403.305 381.942C408.36 381.645 412.226 377.48 412.226 372.423C411.928 367.367 407.765 363.5 402.71 363.5C397.655 363.797 393.789 367.961 393.789 373.018Z" fill="#F1FAEE"/>
<path d="M395.573 399.195C395.573 403.954 399.439 407.524 404.197 407.226C408.955 407.226 412.523 403.359 412.226 398.6C412.226 393.841 408.36 390.271 403.602 390.569C398.844 390.866 395.276 394.733 395.573 399.195Z" fill="#F1FAEE"/>
<path d="M397.06 425.669C397.06 429.834 400.628 433.106 404.791 432.808C408.955 432.808 412.226 429.239 411.928 425.074C411.928 420.91 408.36 417.638 404.197 417.935C400.331 417.935 397.06 421.505 397.06 425.669Z" fill="#F1FAEE"/>
<path d="M398.844 451.846C398.844 455.416 402.115 458.39 405.684 458.39C409.252 458.39 412.226 455.118 412.226 451.549C412.226 447.979 408.955 445.004 405.386 445.004C401.521 445.004 398.844 448.276 398.844 451.846Z" fill="#F1FAEE"/>
<path d="M400.628 478.023C400.628 481.295 403.305 483.675 406.576 483.675C409.847 483.675 412.226 480.997 412.226 477.725C412.226 474.453 409.549 472.073 406.278 472.073C403.007 472.073 400.331 474.751 400.628 478.023Z" fill="#F1FAEE"/>
<path d="M411.036 635.678C411.036 635.976 411.036 635.976 411.334 635.976C411.632 635.976 411.632 635.976 411.632 635.678C411.632 635.381 411.632 635.381 411.334 635.381C411.036 635.381 411.036 635.381 411.036 635.678Z" fill="#F1FAEE"/>
<path d="M366.729 56.8156C367.026 56.8156 367.026 56.8156 366.729 56.8156C367.026 56.8156 367.026 56.5177 366.729 56.8156Z" fill="#F1FAEE"/>
<path d="M367.323 82.9925C367.323 83.2904 367.621 83.2904 367.621 83.2904C367.919 83.2904 367.919 82.9925 367.919 82.9925C367.919 82.6946 367.621 82.6946 367.621 82.6946C367.621 82.6946 367.323 82.6946 367.323 82.9925Z" fill="#F1FAEE"/>
<path d="M367.323 109.466C367.323 110.061 367.918 110.656 368.81 110.656C369.405 110.656 370 110.061 370 109.169C370 108.574 369.405 107.979 368.513 107.979C367.918 107.979 367.323 108.574 367.323 109.466Z" fill="#F1FAEE"/>
<path d="M367.026 135.643C367.026 136.833 368.215 138.023 369.405 138.023C370.594 138.023 371.784 136.833 371.784 135.643C371.784 134.453 370.594 133.263 369.405 133.263C367.918 133.263 367.026 134.453 367.026 135.643Z" fill="#F1FAEE"/>
<path d="M367.026 161.82C367.026 163.605 368.513 165.092 370.297 165.092C372.081 165.092 373.568 163.605 373.568 161.82C373.568 160.035 372.081 158.548 370.297 158.548C368.215 158.548 366.729 160.035 367.026 161.82Z" fill="#F1FAEE"/>
<path d="M366.729 188.294C366.729 190.674 368.81 192.458 371.189 192.458C373.568 192.458 375.352 190.376 375.352 187.997C375.352 185.617 373.271 183.832 370.892 183.832C368.513 184.129 366.729 185.914 366.729 188.294Z" fill="#F1FAEE"/>
<path d="M366.729 214.471C366.729 217.148 369.108 219.528 372.081 219.528C374.757 219.528 377.136 217.148 377.136 214.173C377.136 211.496 374.758 209.116 371.784 209.116C368.81 209.414 366.729 211.793 366.729 214.471Z" fill="#F1FAEE"/>
<path d="M366.729 240.945C366.729 244.217 369.702 246.894 372.973 246.894C376.244 246.894 378.921 243.919 378.921 240.647C378.921 237.375 375.947 234.698 372.676 234.698C369.108 234.698 366.431 237.673 366.729 240.945Z" fill="#F1FAEE"/>
<path d="M366.431 267.122C366.431 270.989 369.702 273.963 373.568 273.963C377.434 273.963 380.407 270.691 380.407 266.824C380.407 262.957 377.136 259.982 373.271 259.982C369.405 260.28 366.431 263.255 366.431 267.122Z" fill="#F1FAEE"/>
<path d="M366.431 293.596C366.431 298.058 370.297 301.33 374.757 301.33C379.218 301.33 382.489 297.463 382.489 293.001C382.489 288.539 378.623 285.267 374.163 285.267C369.702 285.564 366.134 289.134 366.431 293.596Z" fill="#F1FAEE"/>
<path d="M366.431 319.772C366.729 324.532 370.594 328.399 375.352 328.101C380.11 328.101 383.976 323.937 383.679 319.178C383.381 314.418 379.515 310.551 374.758 310.849C370 310.849 366.134 315.013 366.431 319.772Z" fill="#F1FAEE"/>
<path d="M366.431 346.247C366.729 351.601 370.892 355.765 376.244 355.468C381.597 355.171 385.76 351.006 385.463 345.652C385.165 340.297 381.002 336.133 375.65 336.43C370.297 336.43 366.134 340.892 366.431 346.247Z" fill="#F1FAEE"/>
<path d="M367.026 373.911C367.323 379.265 371.784 383.43 377.136 383.43C382.489 383.132 386.652 378.67 386.652 373.316C386.355 367.961 381.894 363.797 376.542 363.797C371.189 364.094 367.026 368.556 367.026 373.911Z" fill="#F1FAEE"/>
<path d="M368.81 400.087C369.108 404.847 372.973 408.714 378.028 408.714C382.786 408.416 386.652 404.549 386.652 399.493C386.355 394.733 382.489 390.866 377.434 390.866C372.379 391.164 368.513 395.328 368.81 400.087Z" fill="#F1FAEE"/>
<path d="M370.594 426.264C370.594 430.726 374.46 433.998 378.921 433.998C383.381 433.998 386.652 430.131 386.652 425.669C386.652 421.207 382.786 417.935 378.326 417.935C373.865 418.233 370.297 422.1 370.594 426.264Z" fill="#F1FAEE"/>
<path d="M372.081 452.738C372.081 456.605 375.352 459.58 379.218 459.58C383.084 459.58 386.057 456.308 386.057 452.441C386.057 448.574 382.786 445.599 378.921 445.599C375.055 445.599 372.081 448.871 372.081 452.738Z" fill="#F1FAEE"/>
<path d="M373.865 478.915C373.865 482.187 376.839 484.864 380.11 484.864C383.381 484.864 386.057 481.89 386.057 478.618C386.057 475.346 383.084 472.668 379.813 472.668C376.542 472.668 373.865 475.643 373.865 478.915Z" fill="#F1FAEE"/>
<path d="M375.65 505.092C375.65 508.067 378.028 510.149 381.002 510.149C383.976 510.149 386.057 507.769 386.057 504.794C386.057 501.82 383.678 499.738 380.705 499.738C377.731 500.035 375.65 502.415 375.65 505.092Z" fill="#F1FAEE"/>
<path d="M377.434 531.566C377.434 533.946 379.515 535.73 381.894 535.73C384.273 535.73 386.057 533.648 386.057 531.269C386.057 528.889 383.976 527.104 381.597 527.104C379.218 527.104 377.434 529.186 377.434 531.566Z" fill="#F1FAEE"/>
<path d="M379.218 557.743C379.218 559.528 380.705 561.015 382.786 561.015C384.571 561.015 386.057 559.528 386.057 557.445C386.057 555.661 384.571 554.173 382.489 554.173C380.407 554.173 379.218 555.958 379.218 557.743Z" fill="#F1FAEE"/>
<path d="M381.002 583.92C381.002 585.109 382.192 586.299 383.381 586.299C384.571 586.299 385.76 585.109 385.76 583.92C385.76 582.73 384.571 581.54 383.381 581.54C381.894 581.54 381.002 582.73 381.002 583.92Z" fill="#F1FAEE"/>
<path d="M382.786 610.096C382.786 610.989 383.381 611.584 384.273 611.584C385.165 611.584 385.76 610.989 385.76 610.096C385.76 609.204 385.165 608.609 384.273 608.609C383.381 608.906 382.786 609.501 382.786 610.096Z" fill="#F1FAEE"/>
<path d="M384.571 636.57C384.571 636.868 384.868 636.868 385.165 636.868C385.463 636.868 385.463 636.57 385.463 636.273C385.463 635.975 385.165 635.975 384.868 635.975C384.571 635.975 384.571 636.273 384.571 636.57Z" fill="#F1FAEE"/>
<path d="M340.858 83.8845C340.858 84.182 341.155 84.4795 341.452 84.4795C341.75 84.4795 342.047 84.182 342.047 83.8845C342.047 83.5871 341.75 83.2896 341.452 83.2896C341.155 83.2896 340.858 83.5871 340.858 83.8845Z" fill="#F1FAEE"/>
<path d="M340.858 110.061C340.858 110.954 341.452 111.549 342.344 111.549C343.237 111.549 343.831 110.954 343.831 110.061C343.831 109.169 343.237 108.574 342.344 108.574C341.452 108.574 340.858 109.169 340.858 110.061Z" fill="#F1FAEE"/>
<path d="M340.56 136.535C340.56 138.023 341.75 138.915 343.237 138.915C344.723 138.915 345.616 137.725 345.616 136.238C345.616 134.751 344.426 133.858 342.939 133.858C341.75 133.858 340.56 135.048 340.56 136.535Z" fill="#F1FAEE"/>
<path d="M340.56 162.712C340.56 164.497 342.345 165.984 344.129 165.984C345.913 165.984 347.4 164.199 347.4 162.415C347.4 160.63 345.616 159.143 343.831 159.143C342.047 159.44 340.56 160.927 340.56 162.712Z" fill="#F1FAEE"/>
<path d="M340.263 189.186C340.263 191.566 342.345 193.648 344.723 193.351C347.102 193.351 348.887 191.269 348.887 188.889C348.887 186.509 346.805 184.427 344.426 184.724C342.047 184.724 340.263 186.807 340.263 189.186Z" fill="#F1FAEE"/>
<path d="M340.263 215.363C340.263 218.338 342.939 220.717 345.913 220.717C348.887 220.717 351.266 218.04 351.266 215.066C351.266 212.091 348.589 209.711 345.616 209.711C342.345 210.009 339.966 212.388 340.263 215.363Z" fill="#F1FAEE"/>
<path d="M339.966 241.837C339.966 245.407 342.939 248.084 346.508 248.084C350.076 248.084 352.752 245.109 352.752 241.54C352.752 237.97 349.779 235.293 346.21 235.293C342.642 235.293 339.966 238.268 339.966 241.837Z" fill="#F1FAEE"/>
<path d="M339.966 268.014C339.966 272.178 343.534 275.153 347.4 275.153C351.563 275.153 354.537 271.584 354.537 267.717C354.537 263.552 350.968 260.577 347.102 260.577C342.939 260.577 339.668 264.147 339.966 268.014Z" fill="#F1FAEE"/>
<path d="M339.668 294.488C339.668 298.95 343.534 302.52 348.292 302.52C352.752 302.52 356.321 298.653 356.321 293.893C356.321 289.431 352.455 285.862 347.697 285.862C343.237 285.862 339.668 289.729 339.668 294.488Z" fill="#F1FAEE"/>
<path d="M339.668 320.665C339.966 325.722 344.129 329.589 349.184 329.589C354.239 329.291 358.105 325.127 358.105 320.07C357.808 315.013 353.644 311.146 348.589 311.146C343.534 311.444 339.668 315.608 339.668 320.665Z" fill="#F1FAEE"/>
<path d="M339.668 346.842C339.966 352.493 344.426 356.658 350.076 356.658C355.726 356.36 359.889 351.898 359.889 346.247C359.592 340.595 355.131 336.43 349.481 336.43C343.831 336.728 339.371 341.487 339.668 346.842Z" fill="#F1FAEE"/>
<path d="M340.263 374.803C340.56 380.455 345.021 384.917 350.671 384.619C356.321 384.322 360.781 379.86 360.484 374.208C360.187 368.556 355.726 364.095 350.076 364.392C344.723 364.392 340.263 369.151 340.263 374.803Z" fill="#F1FAEE"/>
<path d="M342.047 400.98C342.345 406.037 346.508 409.904 351.563 409.904C356.618 409.606 360.484 405.442 360.484 400.385C360.187 395.328 356.023 391.461 350.968 391.461C345.913 391.759 342.047 395.923 342.047 400.98Z" fill="#F1FAEE"/>
<path d="M343.831 427.157C343.831 431.619 347.697 435.486 352.455 435.188C356.915 435.188 360.781 431.321 360.484 426.562C360.484 422.1 356.618 418.233 351.86 418.53C347.4 418.828 343.534 422.695 343.831 427.157Z" fill="#F1FAEE"/>
<path d="M345.616 453.631C345.616 457.795 349.184 460.77 353.347 460.77C357.51 460.77 360.484 457.2 360.484 453.036C360.484 448.871 356.915 445.897 352.752 445.897C348.589 445.897 345.318 449.466 345.616 453.631Z" fill="#F1FAEE"/>
<path d="M347.4 479.807C347.4 483.377 350.373 486.054 353.942 486.054C357.51 486.054 360.187 483.08 360.187 479.51C360.187 475.94 357.213 473.263 353.644 473.263C350.076 473.263 347.102 476.238 347.4 479.807Z" fill="#F1FAEE"/>
<path d="M349.184 505.984C349.184 508.959 351.86 511.339 354.834 511.339C357.808 511.339 360.187 508.661 360.187 505.687C360.187 502.712 357.51 500.332 354.537 500.332C351.563 500.63 349.184 503.01 349.184 505.984Z" fill="#F1FAEE"/>
<path d="M350.968 532.161C350.968 534.541 353.05 536.623 355.429 536.326C357.808 536.326 359.889 534.243 359.592 531.864C359.592 529.484 357.51 527.402 355.131 527.699C352.752 527.699 350.968 529.781 350.968 532.161Z" fill="#F1FAEE"/>
<path d="M352.752 558.635C352.752 560.717 354.537 562.205 356.321 561.907C358.105 561.907 359.889 560.122 359.592 558.338C359.592 556.553 357.808 554.768 356.023 555.066C354.239 555.066 352.752 556.553 352.752 558.635Z" fill="#F1FAEE"/>
<path d="M354.536 584.812C354.536 586.299 355.726 587.192 357.213 587.192C358.7 587.192 359.592 586.002 359.592 584.514C359.592 583.027 358.402 582.135 356.915 582.135C355.429 582.135 354.536 583.325 354.536 584.812Z" fill="#F1FAEE"/>
<path d="M356.321 610.989C356.321 611.881 357.213 612.476 358.105 612.476C358.997 612.476 359.592 611.584 359.592 610.691C359.592 609.799 358.7 609.204 357.808 609.204C356.916 609.501 356.321 610.096 356.321 610.989Z" fill="#F1FAEE"/>
<path d="M358.105 637.165C358.105 637.463 358.402 637.76 358.7 637.76C358.997 637.76 359.294 637.463 359.294 637.165C359.294 636.868 358.997 636.57 358.7 636.57C358.402 636.57 358.105 636.868 358.105 637.165Z" fill="#F1FAEE"/>
<path d="M314.392 84.7769C314.392 85.0744 314.689 85.3718 315.284 85.3718C315.582 85.3718 315.879 85.0744 315.879 84.4794C315.879 84.182 315.582 83.8845 314.987 83.8845C314.689 83.8845 314.392 84.182 314.392 84.7769Z" fill="#F1FAEE"/>
<path d="M314.392 110.954C314.392 111.846 315.284 112.738 316.176 112.441C317.068 112.441 317.961 111.549 317.663 110.656C317.663 109.764 316.771 108.871 315.879 109.169C314.987 109.169 314.392 110.061 314.392 110.954Z" fill="#F1FAEE"/>
<path d="M314.095 137.428C314.095 138.915 315.284 140.105 316.771 140.105C318.258 140.105 319.447 138.915 319.447 137.428C319.447 135.941 318.258 134.751 316.771 134.751C315.284 134.751 314.095 135.941 314.095 137.428Z" fill="#F1FAEE"/>
<path d="M314.095 163.605C314.095 165.687 315.879 167.174 317.663 167.174C319.745 167.174 321.232 165.389 321.232 163.605C321.232 161.522 319.447 160.035 317.663 160.035C315.879 160.035 314.095 161.522 314.095 163.605Z" fill="#F1FAEE"/>
<path d="M313.797 189.781C313.797 192.161 315.879 194.243 318.555 194.243C320.934 194.243 323.016 192.161 323.016 189.484C323.016 187.104 320.934 185.022 318.258 185.022C315.879 185.319 313.797 187.402 313.797 189.781Z" fill="#F1FAEE"/>
<path d="M313.797 216.255C313.797 219.23 316.474 221.61 319.447 221.61C322.421 221.61 324.8 218.933 324.8 215.958C324.8 212.983 322.124 210.604 319.15 210.604C316.176 210.604 313.5 213.281 313.797 216.255Z" fill="#F1FAEE"/>
<path d="M313.5 242.432C313.5 246.002 316.474 248.976 320.042 248.679C323.61 248.679 326.287 245.704 326.287 242.135C326.287 238.565 323.313 235.591 319.745 235.888C316.176 235.888 313.5 238.863 313.5 242.432Z" fill="#F1FAEE"/>
<path d="M313.5 268.906C313.5 273.071 317.068 276.343 321.232 276.045C325.395 276.045 328.666 272.476 328.368 268.311C328.368 264.147 324.8 260.875 320.637 261.172C316.474 261.47 313.203 264.742 313.5 268.906Z" fill="#F1FAEE"/>
<path d="M313.203 295.083C313.203 299.842 317.366 303.412 321.826 303.115C326.584 303.115 330.153 299.248 329.855 294.488C329.855 289.729 325.989 286.159 321.232 286.457C316.771 286.754 313.203 290.621 313.203 295.083Z" fill="#F1FAEE"/>
<path d="M313.203 321.557C313.5 326.614 317.663 330.779 322.718 330.481C327.774 330.184 331.937 326.019 331.639 320.962C331.342 315.906 327.179 311.741 322.124 312.039C317.068 312.039 312.905 316.203 313.203 321.557Z" fill="#F1FAEE"/>
<path d="M313.203 347.734C313.5 353.386 318.258 357.848 323.908 357.55C329.558 357.253 334.018 352.493 333.721 346.842C333.424 341.19 328.666 336.728 323.016 337.025C317.366 337.323 312.905 342.082 313.203 347.734Z" fill="#F1FAEE"/>
<path d="M313.797 375.695C314.095 381.347 318.853 385.809 324.503 385.809C330.152 385.512 334.613 380.752 334.613 375.101C334.316 369.449 329.558 364.987 323.908 364.987C318.258 364.987 313.797 369.746 313.797 375.695Z" fill="#F1FAEE"/>
<path d="M315.582 401.872C315.879 406.929 320.042 411.094 325.395 411.094C330.45 410.796 334.613 406.632 334.613 401.277C334.316 396.22 330.153 392.056 324.8 392.056C319.447 392.353 315.582 396.518 315.582 401.872Z" fill="#F1FAEE"/>
<path d="M317.366 428.049C317.366 432.808 321.529 436.378 325.989 436.378C330.747 436.378 334.316 432.213 334.316 427.751C334.316 422.992 330.152 419.422 325.692 419.422C320.934 419.422 317.366 423.289 317.366 428.049Z" fill="#F1FAEE"/>
<path d="M319.15 454.226C319.15 458.39 322.718 461.662 326.881 461.365C331.045 461.365 334.316 457.795 334.018 453.631C334.018 449.466 330.45 446.194 326.287 446.492C322.421 446.789 319.15 450.061 319.15 454.226Z" fill="#F1FAEE"/>
<path d="M320.934 480.7C320.934 484.269 324.205 487.244 327.774 486.947C331.342 486.947 334.316 483.674 334.018 480.105C334.018 476.535 330.747 473.561 327.179 473.858C323.61 473.858 320.934 476.833 320.934 480.7Z" fill="#F1FAEE"/>
<path d="M322.718 506.877C322.718 509.851 325.395 512.528 328.368 512.231C331.342 512.231 334.018 509.554 333.721 506.579C333.721 503.605 331.045 500.927 328.071 501.225C325.097 501.225 322.718 503.604 322.718 506.877Z" fill="#F1FAEE"/>
<path d="M324.503 533.053C324.503 535.73 326.882 537.515 329.26 537.515C331.937 537.515 333.721 535.136 333.721 532.756C333.721 530.079 331.342 528.294 328.963 528.294C326.287 528.294 324.503 530.376 324.503 533.053Z" fill="#F1FAEE"/>
<path d="M326.287 559.23C326.287 561.312 328.071 562.8 330.153 562.8C332.234 562.8 333.721 561.015 333.721 558.933C333.721 556.85 331.937 555.363 329.855 555.363C327.774 555.66 326.287 557.445 326.287 559.23Z" fill="#F1FAEE"/>
<path d="M328.071 585.704C328.071 587.192 329.26 588.381 330.747 588.381C332.234 588.381 333.423 587.192 333.423 585.704C333.423 584.217 332.234 583.027 330.747 583.027C329.26 582.73 328.071 584.217 328.071 585.704Z" fill="#F1FAEE"/>
<path d="M329.855 611.881C329.855 612.773 330.747 613.666 331.639 613.666C332.531 613.666 333.423 612.773 333.423 611.881C333.423 610.989 332.531 610.096 331.639 610.096C330.45 610.096 329.855 610.989 329.855 611.881Z" fill="#F1FAEE"/>
<path d="M331.639 638.058C331.639 638.355 331.937 638.95 332.531 638.95C332.829 638.95 333.424 638.653 333.424 638.058C333.424 637.76 333.126 637.165 332.531 637.165C331.937 637.165 331.639 637.76 331.639 638.058Z" fill="#F1FAEE"/>
<path d="M288.224 85.3718C288.224 85.6693 288.521 85.9667 289.116 85.9667C289.413 85.9667 289.711 85.6693 289.711 85.0744C289.711 84.7769 289.413 84.4794 288.819 84.4794C288.521 84.7769 288.224 85.0744 288.224 85.3718Z" fill="#F1FAEE"/>
<path d="M287.927 111.846C287.927 112.738 288.819 113.631 289.711 113.631C290.603 113.631 291.495 112.738 291.495 111.846C291.495 110.954 290.603 110.061 289.711 110.061C288.819 110.061 287.927 110.954 287.927 111.846Z" fill="#F1FAEE"/>
<path d="M287.927 138.023C287.927 139.51 289.116 140.7 290.603 140.7C292.09 140.7 293.279 139.51 293.279 138.023C293.279 136.535 292.09 135.346 290.603 135.346C288.819 135.346 287.927 136.535 287.927 138.023Z" fill="#F1FAEE"/>
<path d="M287.629 164.497C287.629 166.579 289.413 168.066 291.495 168.066C293.576 168.066 295.063 166.282 295.063 164.199C295.063 162.117 293.279 160.63 291.197 160.63C289.116 160.63 287.629 162.415 287.629 164.497Z" fill="#F1FAEE"/>
<path d="M287.629 190.674C287.629 193.351 289.711 195.136 292.387 195.136C295.063 195.136 296.847 193.053 296.847 190.376C296.847 187.699 294.766 185.914 292.09 185.914C289.413 186.212 287.629 188.294 287.629 190.674Z" fill="#F1FAEE"/>
<path d="M287.332 217.148C287.332 220.122 290.008 222.8 292.982 222.502C295.955 222.502 298.632 219.825 298.334 216.85C298.334 213.876 295.658 211.199 292.684 211.496C289.711 211.496 287.332 213.876 287.332 217.148Z" fill="#F1FAEE"/>
<path d="M287.332 243.325C287.332 246.894 290.603 249.869 294.171 249.571C297.74 249.571 300.713 246.299 300.416 242.73C300.416 239.16 297.145 236.185 293.576 236.483C290.008 236.78 287.034 239.755 287.332 243.325Z" fill="#F1FAEE"/>
<path d="M287.034 269.799C287.034 273.963 290.603 277.235 294.766 276.938C298.929 276.938 302.2 273.368 301.903 269.204C301.903 265.039 298.334 261.767 294.171 262.065C290.305 262.065 287.034 265.634 287.034 269.799Z" fill="#F1FAEE"/>
<path d="M287.034 295.975C287.034 300.735 291.198 304.304 295.658 304.304C300.416 304.304 303.984 300.14 303.984 295.678C303.984 290.919 299.821 287.349 295.361 287.349C290.603 287.349 286.737 291.216 287.034 295.975Z" fill="#F1FAEE"/>
<path d="M286.737 322.45C287.034 327.804 291.197 331.671 296.55 331.671C301.903 331.374 305.768 327.209 305.768 321.855C305.471 316.5 301.308 312.633 295.955 312.633C290.603 312.633 286.737 317.095 286.737 322.45Z" fill="#F1FAEE"/>
<path d="M286.737 348.626C287.034 354.278 291.792 359.038 297.442 358.74C303.092 358.443 307.85 353.683 307.553 348.032C307.255 342.38 302.497 337.62 296.847 337.918C290.9 337.918 286.44 342.975 286.737 348.626Z" fill="#F1FAEE"/>
<path d="M287.332 376.29C287.629 382.24 292.387 386.702 298.037 386.404C303.687 386.107 308.445 381.347 308.147 375.696C307.85 370.044 303.092 365.284 297.442 365.582C291.792 365.879 287.332 370.639 287.332 376.29Z" fill="#F1FAEE"/>
<path d="M289.116 402.765C289.413 408.119 293.576 412.283 298.929 411.986C304.282 411.688 308.445 407.524 308.147 402.17C307.85 396.815 303.687 392.651 298.334 392.948C293.279 392.948 289.116 397.41 289.116 402.765Z" fill="#F1FAEE"/>
<path d="M290.9 428.941C290.9 433.701 295.063 437.568 299.821 437.27C304.579 437.27 308.445 433.106 308.147 428.347C308.147 423.587 303.984 419.72 299.226 420.018C294.469 420.315 290.9 424.182 290.9 428.941Z" fill="#F1FAEE"/>
<path d="M292.684 455.118C292.684 459.283 296.253 462.555 300.416 462.555C304.579 462.555 307.85 458.985 307.85 454.821C307.85 450.656 304.282 447.384 300.118 447.384C295.955 447.384 292.684 450.954 292.684 455.118Z" fill="#F1FAEE"/>
<path d="M294.469 481.295C294.469 484.864 297.74 487.839 301.308 487.839C304.876 487.839 307.85 484.567 307.85 480.997C307.85 477.428 304.579 474.453 301.011 474.453C297.442 474.751 294.469 477.725 294.469 481.295Z" fill="#F1FAEE"/>
<path d="M296.253 507.769C296.253 511.041 298.929 513.421 302.2 513.421C305.471 513.421 307.85 510.744 307.85 507.472C307.85 504.199 305.174 501.82 301.903 501.82C298.632 501.82 296.253 504.497 296.253 507.769Z" fill="#F1FAEE"/>
<path d="M298.037 533.946C298.037 536.623 300.416 538.705 302.795 538.408C305.471 538.408 307.553 536.028 307.255 533.648C307.255 530.971 304.876 528.889 302.497 529.186C300.118 529.186 298.037 531.269 298.037 533.946Z" fill="#F1FAEE"/>
<path d="M299.821 560.122C299.821 562.205 301.605 563.692 303.687 563.692C305.768 563.692 307.255 561.907 307.255 559.825C307.255 557.743 305.471 556.255 303.39 556.255C301.605 556.255 299.821 558.04 299.821 560.122Z" fill="#F1FAEE"/>
<path d="M305.174 638.95C305.174 639.248 305.471 639.843 306.066 639.843C306.363 639.843 306.958 639.545 306.958 638.95C306.958 638.653 306.661 638.058 306.066 638.058C305.768 638.058 305.174 638.355 305.174 638.95Z" fill="#F1FAEE"/>
<path d="M261.758 86.2642C261.758 86.5617 262.056 86.8591 262.65 86.8591C262.948 86.8591 263.245 86.5617 263.245 85.9667C263.245 85.6693 262.948 85.3718 262.353 85.3718C262.056 85.6693 261.758 85.9667 261.758 86.2642Z" fill="#F1FAEE"/>
<path d="M261.758 112.738C261.758 113.631 262.65 114.523 263.542 114.523C264.434 114.523 265.327 113.631 265.327 112.738C265.327 111.846 264.434 110.954 263.542 110.954C262.353 110.954 261.758 111.549 261.758 112.738Z" fill="#F1FAEE"/>
<path d="M261.461 138.915C261.461 140.402 262.65 141.592 264.137 141.592C265.624 141.592 266.813 140.402 266.813 138.915C266.813 137.428 265.624 136.238 264.137 136.238C262.65 136.238 261.461 137.428 261.461 138.915Z" fill="#F1FAEE"/>
<path d="M261.461 165.389C261.461 167.472 263.245 168.959 265.327 168.959C267.408 168.959 268.895 167.174 268.895 165.092C268.895 163.01 267.111 161.522 265.029 161.522C262.948 161.522 261.461 163.307 261.461 165.389Z" fill="#F1FAEE"/>
<path d="M261.163 191.566C261.163 194.243 263.245 196.028 265.921 196.028C268.598 196.028 270.382 193.946 270.382 191.269C270.382 188.591 268.3 186.807 265.624 186.807C263.245 186.807 261.163 188.889 261.163 191.566Z" fill="#F1FAEE"/>
<path d="M261.163 217.743C261.163 220.717 263.84 223.097 266.813 223.097C269.787 223.097 272.166 220.42 272.166 217.445C272.166 214.471 269.49 212.091 266.516 212.091C263.542 212.388 261.163 214.768 261.163 217.743Z" fill="#F1FAEE"/>
<path d="M260.866 244.217C260.866 247.787 264.137 250.761 267.706 250.464C271.274 250.464 274.248 247.192 273.95 243.622C273.95 240.052 270.679 237.078 267.111 237.375C263.84 237.673 260.866 240.647 260.866 244.217Z" fill="#F1FAEE"/>
<path d="M260.866 270.394C260.866 274.558 264.434 277.83 268.598 277.533C272.761 277.533 276.032 273.963 275.734 269.799C275.734 265.634 272.166 262.362 268.003 262.66C263.84 262.957 260.569 266.229 260.866 270.394Z" fill="#F1FAEE"/>
<path d="M260.569 296.868C260.569 301.627 264.732 305.197 269.192 305.197C273.95 305.197 277.519 301.032 277.519 296.57C277.519 291.811 273.355 288.241 268.895 288.241C264.137 288.241 260.569 292.108 260.569 296.868Z" fill="#F1FAEE"/>
<path d="M260.569 323.045C260.866 328.101 265.029 332.266 270.382 332.266C275.437 331.968 279.6 327.804 279.6 322.45C279.6 317.095 275.14 313.228 269.787 313.228C264.434 313.526 260.569 317.988 260.569 323.045Z" fill="#F1FAEE"/>
<path d="M260.569 349.519C260.866 355.171 265.624 359.633 271.274 359.633C276.924 359.335 281.384 354.576 281.384 348.924C281.087 343.272 276.329 338.81 270.679 338.81C264.732 338.81 260.271 343.867 260.569 349.519Z" fill="#F1FAEE"/>
<path d="M261.163 377.183C261.461 382.835 266.219 387.594 271.869 387.297C277.519 386.999 282.276 382.24 281.979 376.588C281.682 370.936 276.924 366.177 271.274 366.474C265.624 366.772 261.163 371.531 261.163 377.183Z" fill="#F1FAEE"/>
<path d="M262.948 403.359C263.245 408.714 267.408 412.581 272.761 412.581C278.113 412.283 281.979 408.119 281.979 402.765C281.682 397.41 277.519 393.543 272.166 393.543C266.813 393.841 262.948 398.303 262.948 403.359Z" fill="#F1FAEE"/>
<path d="M264.732 429.834C264.732 434.593 268.895 438.163 273.653 438.163C278.411 438.163 281.979 433.998 281.979 429.239C281.979 424.479 277.816 420.91 273.058 420.91C268.3 420.91 264.732 425.074 264.732 429.834Z" fill="#F1FAEE"/>
<path d="M266.516 456.01C266.516 460.175 270.085 463.447 274.248 463.447C278.411 463.447 281.682 459.877 281.682 455.713C281.682 451.548 278.113 448.276 273.95 448.276C269.787 448.276 266.516 451.846 266.516 456.01Z" fill="#F1FAEE"/>
<path d="M268.3 482.187C268.3 485.757 271.571 488.731 275.14 488.731C278.708 488.731 281.682 485.459 281.682 481.89C281.682 478.32 278.411 475.346 274.842 475.346C270.977 475.346 268.3 478.618 268.3 482.187Z" fill="#F1FAEE"/>
<path d="M270.084 508.364C270.084 511.636 272.761 514.016 276.032 514.016C279.303 514.016 281.682 511.339 281.682 508.066C281.682 504.794 279.005 502.415 275.734 502.415C272.463 502.712 270.084 505.389 270.084 508.364Z" fill="#F1FAEE"/>
<path d="M271.869 534.838C271.869 537.515 274.248 539.3 276.627 539.3C279.303 539.3 281.087 536.92 281.087 534.541C281.087 531.864 278.708 530.079 276.329 530.079C273.95 530.079 271.869 532.161 271.869 534.838Z" fill="#F1FAEE"/>
<path d="M273.653 561.015C273.653 563.097 275.437 564.584 277.519 564.584C279.6 564.584 281.087 562.8 281.087 560.717C281.087 558.635 279.303 557.148 277.221 557.148C275.14 557.148 273.653 558.933 273.653 561.015Z" fill="#F1FAEE"/>
<path d="M275.437 587.192C275.437 588.679 276.627 589.869 278.411 589.869C279.898 589.869 281.087 588.679 281.087 586.894C281.087 585.407 279.898 584.217 278.113 584.217C276.627 584.515 275.437 585.704 275.437 587.192Z" fill="#F1FAEE"/>
<path d="M277.221 613.368C277.221 614.261 278.113 615.153 279.005 615.153C279.898 615.153 280.79 614.261 280.79 613.368C280.79 612.476 279.898 611.583 279.005 611.583C277.816 611.583 277.221 612.476 277.221 613.368Z" fill="#F1FAEE"/>
<path d="M235.59 87.1566C235.59 87.454 235.887 87.7515 236.185 87.7515C236.482 87.7515 236.779 87.454 236.779 87.1566C236.779 86.8591 236.482 86.5616 236.185 86.5616C235.887 86.5616 235.59 86.8591 235.59 87.1566Z" fill="#F1FAEE"/>
<path d="M235.59 113.333C235.59 114.226 236.482 114.821 237.374 114.821C238.266 114.821 238.861 113.928 238.861 113.036C238.861 112.144 237.969 111.549 237.077 111.549C236.185 111.846 235.59 112.441 235.59 113.333Z" fill="#F1FAEE"/>
<path d="M235.293 139.808C235.293 141.295 236.482 142.187 237.969 142.187C239.456 142.187 240.348 140.997 240.348 139.51C240.348 138.023 239.158 137.13 237.672 137.13C236.482 137.13 235.293 138.32 235.293 139.808Z" fill="#F1FAEE"/>
<path d="M235.293 165.984C235.293 168.066 237.077 169.554 238.861 169.554C240.943 169.554 242.429 167.769 242.429 165.984C242.429 163.902 240.645 162.415 238.861 162.415C236.779 162.415 235.293 164.199 235.293 165.984Z" fill="#F1FAEE"/>
<path d="M234.995 192.458C234.995 194.838 237.077 196.92 239.753 196.92C242.132 196.92 244.214 194.838 244.214 192.161C244.214 189.781 242.132 187.699 239.456 187.699C237.077 187.699 234.995 189.781 234.995 192.458Z" fill="#F1FAEE"/>
<path d="M234.995 218.635C234.995 221.61 237.672 223.989 240.645 223.989C243.619 223.989 245.998 221.312 245.998 218.338C245.998 215.363 243.321 212.983 240.348 212.983C237.374 213.281 234.995 215.661 234.995 218.635Z" fill="#F1FAEE"/>
<path d="M234.698 245.109C234.698 248.679 237.672 251.356 241.24 251.356C244.808 251.356 247.485 248.381 247.485 244.812C247.485 241.242 244.511 238.565 240.943 238.565C237.374 238.565 234.698 241.54 234.698 245.109Z" fill="#F1FAEE"/>
<path d="M234.698 271.286C234.698 275.451 238.266 278.723 242.429 278.425C246.593 278.425 249.864 274.856 249.566 270.691C249.566 266.527 245.998 263.255 241.835 263.552C237.672 263.849 234.4 267.122 234.698 271.286Z" fill="#F1FAEE"/>
<path d="M234.401 297.76C234.401 302.52 238.266 306.089 243.024 305.792C247.782 305.792 251.35 301.925 251.053 297.165C251.053 292.406 247.187 288.836 242.429 289.134C237.969 289.134 234.401 293.001 234.401 297.76Z" fill="#F1FAEE"/>
<path d="M234.401 323.937C234.698 328.994 238.861 333.158 243.916 332.861C248.971 332.563 253.135 328.399 252.837 323.342C252.54 318.285 248.377 314.121 243.322 314.418C238.266 314.418 234.401 318.88 234.401 323.937Z" fill="#F1FAEE"/>
<path d="M234.401 350.114C234.698 355.766 239.158 360.227 244.808 359.93C250.458 359.633 254.919 355.171 254.621 349.519C254.324 343.867 249.864 339.405 244.214 339.703C238.564 340 234.103 344.759 234.401 350.114Z" fill="#F1FAEE"/>
<path d="M235.293 378.075C235.59 383.727 240.05 388.189 245.7 387.891C251.35 387.594 255.811 383.132 255.514 377.48C255.216 371.828 250.756 367.366 245.106 367.664C239.456 367.664 234.995 372.423 235.293 378.075Z" fill="#F1FAEE"/>
<path d="M236.779 404.252C237.077 409.309 241.24 413.473 246.295 413.176C251.35 412.878 255.513 408.714 255.216 403.657C254.919 398.6 250.756 394.436 245.7 394.733C240.645 394.733 236.779 399.195 236.779 404.252Z" fill="#F1FAEE"/>
<path d="M238.564 430.429C238.564 435.188 242.429 438.758 247.187 438.46C251.945 438.46 255.513 434.593 255.216 429.834C255.216 425.074 251.35 421.505 246.592 421.802C242.132 422.1 238.564 425.967 238.564 430.429Z" fill="#F1FAEE"/>
<path d="M240.348 456.903C240.348 461.067 243.916 464.339 248.079 464.042C252.242 464.042 255.513 460.472 255.216 456.308C255.216 452.143 251.648 448.871 247.485 449.169C243.619 449.169 240.348 452.738 240.348 456.903Z" fill="#F1FAEE"/>
<path d="M242.132 483.08C242.132 486.649 245.106 489.624 248.674 489.326C252.242 489.326 255.216 486.352 254.919 482.782C254.919 479.213 251.945 476.238 248.377 476.535C244.808 476.535 242.132 479.51 242.132 483.08Z" fill="#F1FAEE"/>
<path d="M243.916 509.256C243.916 512.231 246.593 514.611 249.566 514.611C252.54 514.611 254.919 511.933 254.919 508.959C254.919 505.984 252.243 503.604 249.269 503.604C246.295 503.604 243.916 506.282 243.916 509.256Z" fill="#F1FAEE"/>
<path d="M245.7 535.433C245.7 538.11 247.782 539.895 250.458 539.895C253.135 539.895 254.919 537.813 254.919 535.136C254.919 532.458 252.837 530.674 250.161 530.674C247.485 530.971 245.7 533.053 245.7 535.433Z" fill="#F1FAEE"/>
<path d="M247.485 561.907C247.485 563.99 249.269 565.477 251.35 565.477C253.432 565.477 254.919 563.692 254.919 561.61C254.919 559.528 253.135 558.04 251.053 558.04C248.971 558.04 247.485 559.825 247.485 561.907Z" fill="#F1FAEE"/>
<path d="M251.053 614.261C251.053 615.153 251.945 616.045 252.837 615.748C253.729 615.748 254.621 614.856 254.324 613.963C254.324 613.071 253.432 612.178 252.54 612.476C251.648 612.476 251.053 613.368 251.053 614.261Z" fill="#F1FAEE"/>
<path d="M252.837 640.437C252.837 640.735 253.135 641.032 253.729 641.032C254.027 641.032 254.324 640.735 254.324 640.14C254.324 639.842 254.027 639.545 253.432 639.545C253.135 639.843 252.837 640.14 252.837 640.437Z" fill="#F1FAEE"/>
<path d="M209.422 88.049C209.422 88.3464 209.719 88.6439 210.016 88.6439C210.314 88.6439 210.611 88.3464 210.611 88.049C210.611 87.7515 210.314 87.454 210.016 87.454C209.719 87.454 209.422 87.7515 209.422 88.049Z" fill="#F1FAEE"/>
<path d="M209.422 114.226C209.422 115.118 210.016 115.713 210.909 115.713C211.801 115.713 212.395 115.118 212.395 114.226C212.395 113.333 211.801 112.738 210.909 112.738C210.016 112.738 209.422 113.333 209.422 114.226Z" fill="#F1FAEE"/>
<path d="M209.422 140.7C209.422 141.89 210.611 143.08 211.801 143.08C212.99 143.08 214.18 141.89 214.18 140.7C214.18 139.51 212.99 138.32 211.801 138.32C210.314 138.023 209.124 139.213 209.422 140.7Z" fill="#F1FAEE"/>
<path d="M209.124 166.877C209.124 168.661 210.611 170.149 212.693 170.149C214.477 170.149 215.964 168.661 215.964 166.579C215.964 164.794 214.477 163.307 212.395 163.307C210.611 163.605 209.124 165.092 209.124 166.877Z" fill="#F1FAEE"/>
<path d="M208.827 193.053C208.827 195.433 210.908 197.515 213.287 197.218C215.666 197.218 217.451 195.136 217.451 192.756C217.451 190.376 215.369 188.294 212.99 188.591C210.908 188.889 208.827 190.674 208.827 193.053Z" fill="#F1FAEE"/>
<path d="M208.827 219.528C208.827 222.502 211.503 224.882 214.18 224.584C217.153 224.584 219.532 221.907 219.235 219.23C219.235 216.255 216.558 213.876 213.882 214.173C210.908 214.173 208.827 216.553 208.827 219.528Z" fill="#F1FAEE"/>
<path d="M208.827 245.704C208.827 249.274 211.801 251.951 215.369 251.654C218.937 251.654 221.614 248.679 221.316 245.109C221.316 241.54 218.343 238.863 214.774 239.16C211.206 239.458 208.53 242.432 208.827 245.704Z" fill="#F1FAEE"/>
<path d="M208.53 272.178C208.53 276.045 211.801 279.318 215.964 279.02C219.829 279.02 223.1 275.748 222.803 271.584C222.803 267.717 219.532 264.444 215.369 264.742C211.503 265.039 208.53 268.311 208.53 272.178Z" fill="#F1FAEE"/>
<path d="M208.53 298.355C208.53 302.817 212.395 306.387 216.856 306.089C221.316 306.089 224.885 302.222 224.587 297.76C224.587 293.298 220.722 289.729 216.261 290.026C211.801 290.324 208.53 293.893 208.53 298.355Z" fill="#F1FAEE"/>
<path d="M208.53 324.829C208.827 329.886 212.693 333.753 217.748 333.456C222.803 333.158 226.669 329.291 226.372 324.234C226.074 319.178 222.208 315.311 217.153 315.608C212.098 315.608 208.232 319.772 208.53 324.829Z" fill="#F1FAEE"/>
<path d="M208.53 351.006C208.827 356.36 213.287 360.822 218.64 360.525C223.993 360.227 228.453 355.766 228.156 350.411C227.858 345.057 223.398 340.595 218.045 340.892C212.395 341.19 208.232 345.652 208.53 351.006Z" fill="#F1FAEE"/>
<path d="M209.124 378.67C209.422 384.024 213.882 388.486 219.235 388.189C224.587 387.891 229.048 383.43 228.751 378.075C228.453 372.721 223.993 368.259 218.64 368.556C213.287 368.854 209.124 373.316 209.124 378.67Z" fill="#F1FAEE"/>
<path d="M210.909 405.144C211.206 410.201 215.369 414.068 220.127 413.771C225.182 413.473 229.048 409.309 228.751 404.549C228.453 399.493 224.29 395.626 219.532 395.923C214.774 395.923 210.611 400.088 210.909 405.144Z" fill="#F1FAEE"/>
<path d="M212.693 431.321C212.693 435.783 216.558 439.353 221.019 439.353C225.479 439.353 229.048 435.485 229.048 431.024C229.048 426.562 225.182 422.992 220.722 422.992C215.964 422.992 212.395 426.859 212.693 431.321Z" fill="#F1FAEE"/>
<path d="M214.477 457.498C214.477 461.365 218.045 464.637 221.911 464.637C225.777 464.637 229.048 461.067 229.048 457.2C229.048 453.333 225.479 450.061 221.614 450.359C217.451 450.359 214.18 453.631 214.477 457.498Z" fill="#F1FAEE"/>
<path d="M215.964 483.972C215.964 487.541 218.937 490.219 222.506 490.219C226.074 490.219 228.75 487.244 228.75 483.674C228.75 480.105 225.777 477.428 222.208 477.428C218.64 477.428 215.964 480.402 215.964 483.972Z" fill="#F1FAEE"/>
<path d="M217.748 510.149C217.748 513.123 220.424 515.503 223.398 515.503C226.372 515.503 228.751 512.826 228.751 509.851C228.751 506.877 226.074 504.497 223.101 504.497C220.127 504.497 217.748 507.174 217.748 510.149Z" fill="#F1FAEE"/>
<path d="M219.532 536.325C219.532 538.705 221.614 540.787 223.993 540.49C226.372 540.49 228.156 538.408 228.156 536.028C228.156 533.648 226.074 531.566 223.695 531.864C221.614 531.864 219.532 533.946 219.532 536.325Z" fill="#F1FAEE"/>
<path d="M223.101 588.976C223.101 590.464 224.29 591.356 225.777 591.356C227.264 591.356 228.156 590.166 228.156 588.679C228.156 587.192 226.966 586.299 225.48 586.299C224.29 586.299 223.101 587.489 223.101 588.976Z" fill="#F1FAEE"/>
<path d="M224.885 615.153C224.885 616.045 225.479 616.64 226.372 616.64C227.264 616.64 227.858 616.045 227.858 615.153C227.858 614.261 227.264 613.666 226.372 613.666C225.479 613.666 224.885 614.261 224.885 615.153Z" fill="#F1FAEE"/>
<path d="M182.064 36.2908C182.362 35.9929 182.064 35.9929 182.064 36.2908C182.064 35.9929 182.064 35.9929 182.064 36.2908Z" fill="#F1FAEE"/>
<path d="M183.551 88.6443C183.551 88.9422 183.551 88.9422 183.849 88.9422C184.146 88.9422 184.146 88.9422 184.146 88.6443C184.146 88.3464 184.146 88.3464 183.849 88.3464C183.551 88.3464 183.551 88.6443 183.551 88.6443Z" fill="#F1FAEE"/>
<path d="M183.253 115.118C183.253 115.713 183.848 116.308 184.74 116.308C185.335 116.308 185.93 115.713 185.93 114.821C185.93 114.226 185.335 113.631 184.443 113.631C183.848 113.631 183.253 114.226 183.253 115.118Z" fill="#F1FAEE"/>
<path d="M183.253 141.295C183.253 142.485 184.443 143.377 185.632 143.377C186.822 143.377 187.714 142.187 187.714 140.997C187.714 139.808 186.524 138.915 185.335 138.915C184.146 139.213 183.253 140.105 183.253 141.295Z" fill="#F1FAEE"/>
<path d="M183.253 167.769C183.253 169.554 184.74 170.744 186.524 170.744C188.309 170.744 189.498 169.256 189.498 167.472C189.498 165.687 188.011 164.497 186.227 164.497C184.443 164.497 182.956 165.984 183.253 167.769Z" fill="#F1FAEE"/>
<path d="M182.956 193.946C182.956 196.325 185.038 198.11 187.119 197.813C189.498 197.813 191.282 195.731 190.985 193.648C190.985 191.269 188.903 189.484 186.822 189.781C184.74 189.781 182.956 191.864 182.956 193.946Z" fill="#F1FAEE"/>
<path d="M182.956 220.42C182.956 223.097 185.335 225.477 188.011 225.179C190.688 225.179 193.067 222.8 192.769 220.122C192.769 217.445 190.39 215.066 187.714 215.363C185.038 215.363 182.659 217.445 182.956 220.42Z" fill="#F1FAEE"/>
<path d="M182.659 246.597C182.659 249.869 185.632 252.546 188.606 252.248C191.877 252.248 194.553 249.274 194.256 246.299C194.256 243.027 191.282 240.35 188.309 240.647C185.335 240.647 182.659 243.325 182.659 246.597Z" fill="#F1FAEE"/>
<path d="M182.659 273.071C182.659 276.938 185.93 279.913 189.795 279.615C193.661 279.615 196.635 276.343 196.338 272.476C196.338 268.609 193.067 265.634 189.201 265.932C185.632 265.932 182.659 269.204 182.659 273.071Z" fill="#F1FAEE"/>
<path d="M182.659 299.248C182.659 303.412 186.227 306.982 190.688 306.684C194.851 306.684 198.419 303.115 198.122 298.653C198.122 294.488 194.553 290.919 190.093 291.216C185.93 291.514 182.361 295.083 182.659 299.248Z" fill="#F1FAEE"/>
<path d="M182.659 325.424C182.659 330.184 186.822 334.051 191.58 333.753C196.338 333.753 200.203 329.589 199.906 324.829C199.906 320.07 195.743 316.5 190.985 316.5C186.227 316.798 182.361 320.665 182.659 325.424Z" fill="#F1FAEE"/>
<path d="M182.659 351.899C182.956 356.955 187.119 361.12 192.472 361.12C197.527 360.822 201.69 356.658 201.69 351.304C201.69 345.949 197.23 342.082 191.877 342.082C186.524 342.38 182.361 346.544 182.659 351.899Z" fill="#F1FAEE"/>
<path d="M183.253 379.563C183.551 384.917 187.714 388.784 193.066 388.784C198.419 388.486 202.285 384.322 202.285 378.968C201.988 373.613 197.824 369.746 192.472 369.746C187.417 370.044 183.253 374.506 183.253 379.563Z" fill="#F1FAEE"/>
<path d="M185.038 405.739C185.335 410.499 189.201 414.366 193.959 414.068C198.717 413.771 202.582 409.904 202.285 405.144C202.285 400.385 198.122 396.518 193.364 396.815C188.606 397.113 184.74 400.98 185.038 405.739Z" fill="#F1FAEE"/>
<path d="M186.822 432.213C186.822 436.378 190.688 439.947 194.851 439.65C199.014 439.65 202.582 435.783 202.285 431.618C202.285 427.454 198.419 423.884 194.256 424.182C189.796 424.182 186.524 427.751 186.822 432.213Z" fill="#F1FAEE"/>
<path d="M188.309 458.39C188.309 462.257 191.58 465.232 195.446 465.232C199.311 465.232 202.285 461.96 202.285 458.093C202.285 454.226 199.014 451.251 195.148 451.251C191.282 451.251 188.309 454.523 188.309 458.39Z" fill="#F1FAEE"/>
<path d="M190.093 484.567C190.093 487.839 193.067 490.516 196.338 490.219C199.609 490.219 202.285 487.244 201.988 483.972C201.988 480.7 199.014 478.023 195.743 478.32C192.769 478.618 190.093 481.295 190.093 484.567Z" fill="#F1FAEE"/>
<path d="M191.877 511.041C191.877 513.718 194.256 516.098 197.23 516.098C199.906 516.098 202.285 513.718 202.285 510.744C202.285 508.066 199.906 505.687 196.932 505.687C193.959 505.687 191.877 508.066 191.877 511.041Z" fill="#F1FAEE"/>
<path d="M193.661 537.218C193.661 539.598 195.743 541.382 197.824 541.382C200.203 541.382 201.988 539.3 201.988 537.218C201.988 534.838 199.906 533.053 197.824 533.053C195.445 533.053 193.661 534.838 193.661 537.218Z" fill="#F1FAEE"/>
<path d="M195.445 563.395C195.445 565.179 196.932 566.667 198.716 566.369C200.501 566.369 201.987 564.882 201.69 563.097C201.69 561.312 200.203 559.825 198.419 560.123C196.635 560.123 195.445 561.61 195.445 563.395Z" fill="#F1FAEE"/>
<path d="M156.49 63.3598C156.788 63.3598 156.788 63.3598 156.49 63.3598C156.788 63.3598 156.788 63.0619 156.49 63.3598Z" fill="#F1FAEE"/>
<path d="M157.383 116.01C157.383 116.605 157.977 116.903 158.572 116.903C159.167 116.903 159.464 116.308 159.464 115.713C159.464 115.118 158.869 114.821 158.275 114.821C157.68 114.821 157.383 115.416 157.383 116.01Z" fill="#F1FAEE"/>
<path d="M157.383 142.187C157.383 143.377 158.275 143.972 159.464 143.972C160.654 143.972 161.248 143.08 161.248 141.89C161.248 140.7 160.356 140.105 159.167 140.105C157.977 140.402 157.085 140.997 157.383 142.187Z" fill="#F1FAEE"/>
<path d="M157.085 168.364C157.085 169.851 158.572 171.041 160.059 171.041C161.546 171.041 162.735 169.554 162.735 168.066C162.735 166.579 161.248 165.389 159.762 165.389C158.275 165.687 157.085 166.877 157.085 168.364Z" fill="#F1FAEE"/>
<path d="M157.085 194.838C157.085 196.92 158.869 198.705 160.951 198.408C163.033 198.408 164.817 196.623 164.519 194.541C164.519 192.458 162.735 190.674 160.654 190.971C158.572 190.971 157.085 192.756 157.085 194.838Z" fill="#F1FAEE"/>
<path d="M157.085 221.015C157.085 223.692 159.464 225.477 161.843 225.477C164.519 225.477 166.304 223.097 166.304 220.717C166.304 218.04 163.925 216.255 161.546 216.255C158.869 216.255 156.788 218.635 157.085 221.015Z" fill="#F1FAEE"/>
<path d="M156.788 247.489C156.788 250.464 159.464 252.843 162.438 252.843C165.411 252.843 167.79 250.166 167.79 247.192C167.79 244.217 165.114 241.837 162.14 241.837C159.167 241.837 156.788 244.514 156.788 247.489Z" fill="#F1FAEE"/>
<path d="M156.788 273.666C156.788 277.235 159.761 279.912 163.33 279.912C166.898 279.912 169.575 276.938 169.575 273.368C169.575 269.799 166.601 267.122 163.033 267.122C159.464 267.122 156.788 270.096 156.788 273.666Z" fill="#F1FAEE"/>
<path d="M156.788 300.14C156.788 304.304 160.356 307.279 164.222 307.279C168.385 307.279 171.359 303.709 171.359 299.842C171.359 295.975 167.79 292.703 163.925 292.703C159.762 292.703 156.788 295.975 156.788 300.14Z" fill="#F1FAEE"/>
<path d="M156.788 326.317C156.788 330.779 160.654 334.348 165.114 334.051C169.575 334.051 173.143 330.184 172.846 325.722C172.846 321.26 168.98 317.69 164.519 317.988C160.059 318.285 156.788 321.855 156.788 326.317Z" fill="#F1FAEE"/>
<path d="M156.788 352.791C157.085 357.55 160.951 361.417 166.006 361.417C170.764 361.417 174.63 357.253 174.63 352.196C174.332 347.437 170.467 343.57 165.411 343.57C160.654 343.867 156.788 347.734 156.788 352.791Z" fill="#F1FAEE"/>
<path d="M157.68 380.455C157.977 385.214 161.843 389.081 166.898 389.081C171.953 388.784 175.522 384.917 175.522 379.86C175.225 374.803 171.359 371.234 166.303 371.234C161.248 371.531 157.383 375.398 157.68 380.455Z" fill="#F1FAEE"/>
<path d="M159.167 406.632C159.167 411.094 163.032 414.663 167.493 414.663C171.953 414.663 175.522 410.796 175.522 406.334C175.522 401.872 171.656 398.303 167.196 398.303C162.735 398.303 159.167 402.17 159.167 406.632Z" fill="#F1FAEE"/>
<path d="M160.951 432.808C160.951 436.973 164.519 439.947 168.682 439.947C172.846 439.947 175.819 436.378 175.819 432.213C175.819 428.049 172.251 425.074 168.088 425.074C163.925 425.372 160.654 428.941 160.951 432.808Z" fill="#F1FAEE"/>
<path d="M162.438 459.283C162.438 462.852 165.411 465.827 168.98 465.529C172.548 465.529 175.522 462.555 175.224 458.985C175.224 455.416 172.251 452.738 168.682 452.738C165.114 452.738 162.438 455.713 162.438 459.283Z" fill="#F1FAEE"/>
<path d="M164.222 485.459C164.222 488.434 166.898 491.111 169.872 490.814C172.846 490.814 175.522 488.137 175.224 485.162C175.224 482.187 172.548 479.51 169.575 479.808C166.601 479.808 164.222 482.485 164.222 485.459Z" fill="#F1FAEE"/>
<path d="M166.006 511.636C166.006 514.313 168.385 516.395 170.764 516.098C173.44 516.098 175.522 513.718 175.224 511.339C175.224 508.661 172.846 506.579 170.467 506.877C167.79 506.877 165.709 508.959 166.006 511.636Z" fill="#F1FAEE"/>
<path d="M167.493 538.11C167.493 540.192 169.277 541.977 171.359 541.977C173.44 541.977 175.225 540.192 175.225 538.11C175.225 536.028 173.44 534.243 171.359 534.243C169.277 533.946 167.493 535.73 167.493 538.11Z" fill="#F1FAEE"/>
<path d="M169.277 564.287C169.277 565.774 170.764 567.262 172.251 566.964C173.738 566.964 175.225 565.477 174.927 563.99C174.927 562.502 173.44 561.015 171.954 561.312C170.467 561.312 169.277 562.502 169.277 564.287Z" fill="#F1FAEE"/>
<path d="M130.322 63.9545C130.322 64.2524 130.322 64.2524 130.322 63.9545C130.62 64.2524 130.62 64.2524 130.322 63.9545Z" fill="#F1FAEE"/>
<path d="M131.214 116.605C131.214 116.903 131.512 117.2 132.106 117.2C132.404 117.2 132.701 116.903 132.701 116.308C132.701 116.01 132.404 115.713 131.809 115.713C131.512 116.01 131.214 116.308 131.214 116.605Z" fill="#F1FAEE"/>
<path d="M131.214 143.08C131.214 143.972 132.106 144.567 132.999 144.567C133.891 144.567 134.485 143.675 134.485 142.782C134.485 141.89 133.593 141.295 132.701 141.295C131.809 141.295 131.214 142.187 131.214 143.08Z" fill="#F1FAEE"/>
<path d="M131.214 169.256C131.214 170.744 132.404 171.636 133.891 171.636C135.377 171.636 136.27 170.446 136.27 168.959C136.27 167.472 135.08 166.579 133.593 166.579C132.106 166.877 131.214 168.066 131.214 169.256Z" fill="#F1FAEE"/>
<path d="M131.214 195.731C131.214 197.515 132.701 199.003 134.783 199.003C136.567 199.003 138.054 197.515 138.054 195.433C138.054 193.648 136.567 192.161 134.485 192.161C132.701 192.161 131.214 193.648 131.214 195.731Z" fill="#F1FAEE"/>
<path d="M130.917 221.907C130.917 224.287 132.999 226.072 135.377 226.072C137.756 226.072 139.541 223.989 139.541 221.61C139.541 219.23 137.459 217.445 135.08 217.445C132.701 217.445 130.917 219.528 130.917 221.907Z" fill="#F1FAEE"/>
<path d="M130.917 248.381C130.917 251.059 133.296 253.438 136.27 253.438C138.946 253.438 141.325 251.059 141.325 248.084C141.325 245.407 138.946 243.027 135.972 243.027C133.296 243.027 130.917 245.407 130.917 248.381Z" fill="#F1FAEE"/>
<path d="M131.214 274.558C131.214 277.83 133.891 280.507 137.162 280.21C140.433 280.21 143.109 277.235 142.812 274.261C142.812 270.989 139.838 268.311 136.864 268.609C133.593 268.609 130.917 271.286 131.214 274.558Z" fill="#F1FAEE"/>
<path d="M130.917 300.735C130.917 304.602 134.188 307.279 137.756 307.279C141.622 307.279 144.298 304.007 144.298 300.437C144.298 296.57 141.027 293.893 137.162 293.893C133.891 293.893 130.917 297.165 130.917 300.735Z" fill="#F1FAEE"/>
<path d="M131.214 327.209C131.214 331.374 134.783 334.646 138.946 334.348C143.109 334.348 146.38 330.779 146.083 326.614C146.083 322.45 142.514 319.178 138.351 319.475C134.188 319.475 130.917 323.045 131.214 327.209Z" fill="#F1FAEE"/>
<path d="M131.214 353.386C131.214 357.848 135.08 361.417 139.838 361.417C144.298 361.417 147.867 357.55 147.867 352.791C147.867 348.329 144.001 344.759 139.243 344.759C134.485 345.057 130.917 348.924 131.214 353.386Z" fill="#F1FAEE"/>
<path d="M132.106 381.347C132.106 385.809 135.972 389.676 140.73 389.379C145.191 389.379 149.056 385.512 148.759 380.752C148.759 376.29 144.893 372.423 140.135 372.721C135.377 372.721 131.809 376.588 132.106 381.347Z" fill="#F1FAEE"/>
<path d="M133.593 407.524C133.593 411.689 137.162 414.961 141.325 414.961C145.488 414.961 148.759 411.391 148.759 407.227C148.759 403.062 145.191 399.79 141.027 399.79C136.567 399.79 133.296 403.36 133.593 407.524Z" fill="#F1FAEE"/>
<path d="M135.08 433.701C135.08 437.568 138.351 440.542 142.217 440.245C146.083 440.245 149.056 436.973 148.759 433.106C148.759 429.239 145.488 426.264 141.622 426.562C138.054 426.859 135.08 429.834 135.08 433.701Z" fill="#F1FAEE"/>
<path d="M136.864 459.878C136.864 463.15 139.838 465.827 143.109 465.529C146.38 465.529 149.056 462.555 148.759 459.283C148.759 456.01 145.785 453.333 142.514 453.631C139.243 453.928 136.567 456.605 136.864 459.878Z" fill="#F1FAEE"/>
<path d="M138.351 486.352C138.351 489.326 140.73 491.409 143.704 491.409C146.677 491.409 148.759 489.029 148.759 486.054C148.759 483.08 146.38 480.997 143.406 480.997C140.433 480.997 138.351 483.377 138.351 486.352Z" fill="#F1FAEE"/>
<path d="M140.135 512.528C140.135 514.908 142.217 516.99 144.596 516.693C146.975 516.693 148.759 514.611 148.759 512.231C148.759 509.851 146.677 508.066 144.298 508.066C141.92 508.066 139.838 510.149 140.135 512.528Z" fill="#F1FAEE"/>
<path d="M104.749 91.3214C105.046 91.0235 105.046 91.0235 104.749 91.3214C105.046 91.0235 104.749 91.0235 104.749 91.3214Z" fill="#F1FAEE"/>
<path d="M105.641 117.498C105.641 117.796 105.641 117.796 105.939 117.796C106.236 117.796 106.236 117.796 106.236 117.498C106.236 117.2 106.236 117.2 105.939 117.2C105.641 117.2 105.641 117.2 105.641 117.498Z" fill="#F1FAEE"/>
<path d="M105.343 143.675C105.343 144.269 105.938 144.864 106.533 144.864C107.128 144.864 107.722 144.269 107.722 143.675C107.722 143.08 107.128 142.485 106.533 142.485C105.938 142.485 105.343 143.08 105.343 143.675Z" fill="#F1FAEE"/>
<path d="M105.343 170.149C105.343 171.339 106.235 172.231 107.425 172.231C108.614 172.231 109.507 171.339 109.507 170.149C109.507 168.959 108.614 168.066 107.425 168.066C106.235 168.066 105.343 168.959 105.343 170.149Z" fill="#F1FAEE"/>
<path d="M105.343 196.325C105.343 197.813 106.83 199.3 108.317 199.003C109.804 199.003 111.291 197.515 110.993 196.028C110.993 194.541 109.507 193.053 108.02 193.351C106.533 193.351 105.343 194.838 105.343 196.325Z" fill="#F1FAEE"/>
<path d="M105.343 222.8C105.343 224.882 107.128 226.667 109.209 226.369C111.291 226.369 113.075 224.584 112.778 222.502C112.778 220.42 110.993 218.635 108.912 218.933C106.83 218.933 105.343 220.717 105.343 222.8Z" fill="#F1FAEE"/>
<path d="M105.343 248.976C105.343 251.653 107.425 253.438 110.101 253.438C112.778 253.438 114.562 251.356 114.562 248.679C114.562 246.002 112.48 244.217 109.804 244.217C107.128 244.514 105.343 246.597 105.343 248.976Z" fill="#F1FAEE"/>
<path d="M105.343 275.451C105.343 278.425 108.02 280.805 110.993 280.805C113.967 280.805 116.346 278.128 116.346 275.153C116.346 272.178 113.67 269.799 110.696 269.799C107.425 269.799 105.343 272.476 105.343 275.451Z" fill="#F1FAEE"/>
<path d="M105.343 301.627C105.343 304.899 108.317 307.874 111.588 307.577C114.859 307.577 117.833 304.602 117.535 301.33C117.535 298.058 114.562 295.083 111.291 295.381C108.02 295.381 105.343 298.355 105.343 301.627Z" fill="#F1FAEE"/>
<path d="M105.343 328.102C105.343 331.969 108.614 334.943 112.48 334.943C116.346 334.943 119.32 331.671 119.32 327.804C119.32 323.937 116.049 320.962 112.183 320.962C108.317 320.962 105.343 324.234 105.343 328.102Z" fill="#F1FAEE"/>
<path d="M105.641 354.278C105.641 358.443 109.209 361.715 113.372 361.715C117.535 361.715 120.807 358.145 120.807 353.981C120.807 349.816 117.238 346.544 113.075 346.544C108.614 346.544 105.343 350.114 105.641 354.278Z" fill="#F1FAEE"/>
<path d="M106.533 381.942C106.533 386.107 110.101 389.379 114.264 389.379C118.428 389.379 121.699 385.809 121.699 381.645C121.699 377.48 118.13 374.208 113.967 374.208C109.507 374.208 106.236 377.778 106.533 381.942Z" fill="#F1FAEE"/>
<path d="M108.02 408.416C108.02 412.283 111.291 415.258 115.157 415.258C119.022 415.258 121.996 411.986 121.996 408.119C121.996 404.252 118.725 401.277 114.859 401.277C110.696 401.277 107.722 404.549 108.02 408.416Z" fill="#F1FAEE"/>
<path d="M109.507 434.593C109.507 437.865 112.48 440.84 115.751 440.542C119.32 440.542 121.996 437.568 121.699 434.296C121.699 431.024 118.725 428.049 115.454 428.346C111.886 428.346 109.209 431.024 109.507 434.593Z" fill="#F1FAEE"/>
<path d="M110.993 460.77C110.993 463.744 113.67 466.124 116.643 466.124C119.617 466.124 121.996 463.447 121.996 460.472C121.996 457.498 119.32 455.118 116.346 455.118C113.372 455.416 110.993 457.795 110.993 460.77Z" fill="#F1FAEE"/>
<path d="M112.48 486.947C112.48 489.624 114.859 491.409 117.238 491.409C119.914 491.409 121.699 489.029 121.699 486.649C121.699 483.972 119.32 482.187 116.941 482.187C114.562 482.187 112.48 484.567 112.48 486.947Z" fill="#F1FAEE"/>
<path d="M114.264 513.421C114.264 515.503 116.049 517.288 118.13 517.288C120.212 517.288 121.996 515.503 121.996 513.421C121.996 511.339 120.212 509.554 118.13 509.554C115.751 509.256 114.264 511.041 114.264 513.421Z" fill="#F1FAEE"/>
<path d="M117.535 565.774C117.535 566.964 118.725 567.856 119.914 567.856C121.104 567.856 121.996 566.667 121.996 565.477C121.996 564.287 120.806 563.395 119.617 563.395C118.427 563.692 117.535 564.584 117.535 565.774Z" fill="#F1FAEE"/>
<path d="M119.32 591.951C119.32 592.546 119.914 593.141 120.807 593.141C121.401 593.141 121.996 592.546 121.996 591.653C121.996 591.059 121.401 590.464 120.509 590.464C119.914 590.761 119.32 591.356 119.32 591.951Z" fill="#F1FAEE"/>
<path d="M78.5804 91.916C78.8782 92.2139 78.8782 91.916 78.5804 91.916C78.8782 91.916 78.8782 91.916 78.5804 91.916Z" fill="#F1FAEE"/>
<path d="M79.4725 144.567C79.4725 144.864 79.7699 145.459 80.3646 145.459C80.662 145.459 81.2567 145.162 81.2567 144.567C81.2567 144.269 80.9594 143.675 80.3646 143.675C79.7699 143.675 79.4725 144.269 79.4725 144.567Z" fill="#F1FAEE"/>
<path d="M79.4725 171.041C79.4725 171.934 80.3646 172.528 81.2567 172.528C82.1488 172.528 82.7436 171.636 82.7436 170.744C82.7436 169.851 81.8515 169.256 80.9594 169.256C80.0673 169.256 79.4725 170.149 79.4725 171.041Z" fill="#F1FAEE"/>
<path d="M79.4725 197.218C79.4725 198.408 80.662 199.598 81.8515 199.598C83.0409 199.598 84.2304 198.408 84.2304 197.218C84.2304 196.028 83.0409 194.838 81.8515 194.838C80.662 194.838 79.4725 196.028 79.4725 197.218Z" fill="#F1FAEE"/>
<path d="M79.4725 223.395C79.4725 225.179 80.9594 226.667 82.7436 226.667C84.5278 226.667 86.0146 225.179 86.0146 223.395C86.0146 221.61 84.5278 220.122 82.7436 220.122C80.9594 220.122 79.4725 221.61 79.4725 223.395Z" fill="#F1FAEE"/>
<path d="M79.4725 249.869C79.4725 251.951 81.2567 253.736 83.6357 253.736C85.7172 253.736 87.5014 251.951 87.5014 249.571C87.5014 247.489 85.7172 245.704 83.3383 245.704C81.2567 245.704 79.4725 247.489 79.4725 249.869Z" fill="#F1FAEE"/>
<path d="M79.4725 276.045C79.4725 278.723 81.8515 280.805 84.5278 280.805C87.2041 280.805 89.2856 278.425 89.2856 275.748C89.2856 273.071 86.9067 270.989 84.2304 270.989C81.5541 271.286 79.4725 273.368 79.4725 276.045Z" fill="#F1FAEE"/>
<path d="M79.7699 302.52C79.7699 305.494 82.4462 307.874 85.4199 307.874C88.3935 307.874 90.7725 305.197 90.7725 302.222C90.7725 299.248 88.0962 296.868 85.1225 296.868C82.1488 296.868 79.7699 299.545 79.7699 302.52Z" fill="#F1FAEE"/>
<path d="M79.7699 328.696C79.7699 332.266 82.7436 334.943 86.0146 334.646C89.583 334.646 92.2593 331.671 91.9619 328.399C91.9619 324.829 88.9883 322.152 85.7172 322.45C82.4462 322.45 79.7699 325.424 79.7699 328.696Z" fill="#F1FAEE"/>
<path d="M80.0673 355.171C80.0673 359.038 83.3383 362.012 87.204 361.715C91.0698 361.715 94.0435 358.443 93.7461 354.576C93.7461 350.709 90.4751 347.734 86.6093 348.031C82.7436 348.031 79.7699 351.304 80.0673 355.171Z" fill="#F1FAEE"/>
<path d="M80.9594 382.835C80.9594 386.702 84.2305 389.676 88.0962 389.676C91.962 389.676 94.9357 386.404 94.9357 382.537C94.9357 378.67 91.6646 375.696 87.7989 375.696C83.6357 375.696 80.6621 378.968 80.9594 382.835Z" fill="#F1FAEE"/>
<path d="M82.1488 409.011C82.1488 412.581 85.1225 415.258 88.6909 414.961C92.2593 414.961 94.9356 411.986 94.6382 408.416C94.6382 404.847 91.6645 402.17 88.0961 402.467C84.8251 402.765 82.1488 405.739 82.1488 409.011Z" fill="#F1FAEE"/>
<path d="M83.9331 435.188C83.9331 438.163 86.6094 440.542 89.583 440.542C92.5567 440.542 94.9356 437.865 94.9356 434.891C94.9356 431.916 92.2593 429.536 89.2856 429.536C86.0146 429.834 83.6357 432.213 83.9331 435.188Z" fill="#F1FAEE"/>
<path d="M85.4199 461.662C85.4199 464.339 87.7988 466.422 90.4751 466.422C93.1514 466.422 95.2329 464.042 95.2329 461.365C95.2329 458.688 92.854 456.605 90.1777 456.605C87.204 456.605 85.1225 458.985 85.4199 461.662Z" fill="#F1FAEE"/>
<path d="M86.9067 487.839C86.9067 490.219 88.9883 492.003 91.0699 491.706C93.4488 491.706 95.233 489.624 94.9356 487.542C94.9356 485.162 92.8541 483.377 90.7725 483.675C88.6909 483.675 86.9067 485.459 86.9067 487.839Z" fill="#F1FAEE"/>
<path d="M88.3936 514.016C88.3936 515.8 89.8804 517.288 91.962 517.288C93.7462 517.288 95.233 515.8 95.233 513.718C95.233 511.933 93.7461 510.446 91.6646 510.446C89.8804 510.744 88.3936 512.231 88.3936 514.016Z" fill="#F1FAEE"/>
<path d="M91.6646 566.667C91.6646 567.559 92.5567 568.451 93.4488 568.154C94.3409 568.154 95.233 567.262 94.9356 566.369C94.9356 565.477 94.0435 564.584 93.1514 564.882C92.5567 564.882 91.6646 565.774 91.6646 566.667Z" fill="#F1FAEE"/>
<path d="M93.4487 592.843C93.4487 593.141 93.7461 593.736 94.3408 593.736C94.6382 593.736 95.2329 593.438 95.2329 592.843C95.2329 592.546 94.9356 591.951 94.3408 591.951C93.7461 591.951 93.4487 592.546 93.4487 592.843Z" fill="#F1FAEE"/>
<path d="M53.899 145.46C53.899 145.758 53.899 145.758 54.1968 145.758C54.4945 145.758 54.4945 145.758 54.4945 145.46C54.4945 145.162 54.4945 145.162 54.1968 145.162C53.899 145.162 53.899 145.162 53.899 145.46Z" fill="#F1FAEE"/>
<path d="M53.899 171.636C53.899 172.231 54.4938 172.826 55.0885 172.826C55.6832 172.826 56.278 172.231 56.278 171.636C56.278 171.041 55.6832 170.446 55.0885 170.446C54.1964 170.744 53.899 171.041 53.899 171.636Z" fill="#F1FAEE"/>
<path d="M53.899 198.11C53.899 199.3 54.7911 199.895 55.9806 199.895C57.1701 199.895 57.7648 199.003 57.7648 197.813C57.7648 196.623 56.8727 196.028 55.6832 196.028C54.4938 196.028 53.899 196.92 53.899 198.11Z" fill="#F1FAEE"/>
<path d="M53.899 224.287C53.899 225.774 55.0885 226.964 56.5753 226.964C58.0622 226.964 59.2516 225.774 59.2516 224.287C59.2516 222.8 58.0622 221.61 56.5753 221.61C54.7911 221.61 53.899 222.8 53.899 224.287Z" fill="#F1FAEE"/>
<path d="M53.899 250.761C53.899 252.546 55.6832 254.033 57.4674 254.033C59.2516 254.033 60.7385 252.248 60.7385 250.464C60.7385 248.679 58.9543 247.192 57.1701 247.192C55.3859 247.192 53.899 248.679 53.899 250.761Z" fill="#F1FAEE"/>
<path d="M53.899 276.938C53.899 279.318 55.9806 281.102 58.0622 281.102C60.4411 281.102 62.2253 279.02 62.2253 276.938C62.2253 274.558 60.1437 272.773 58.0622 272.773C55.6832 272.773 53.899 274.558 53.899 276.938Z" fill="#F1FAEE"/>
<path d="M54.1964 303.115C54.1964 305.792 56.5753 307.874 59.2516 307.874C61.9279 307.874 64.0095 305.494 64.0095 302.817C64.0095 300.14 61.6306 298.058 58.9543 298.058C56.278 298.355 54.1964 300.735 54.1964 303.115Z" fill="#F1FAEE"/>
<path d="M54.4937 329.589C54.4937 332.563 57.17 334.943 60.1437 334.943C63.1174 334.943 65.4963 332.266 65.4963 329.291C65.4963 326.317 62.82 323.937 59.8463 323.937C56.5753 323.937 54.1964 326.614 54.4937 329.589Z" fill="#F1FAEE"/>
<path d="M54.4938 355.766C54.4938 359.038 57.4674 361.715 60.7385 361.715C64.0095 361.715 66.6858 358.74 66.6858 355.468C66.6858 352.196 63.7121 349.519 60.4411 349.519C57.1701 349.816 54.4938 352.493 54.4938 355.766Z" fill="#F1FAEE"/>
<path d="M55.3859 383.727C55.3859 386.999 58.3595 389.676 61.6306 389.676C64.9016 389.676 67.5779 386.702 67.5779 383.429C67.5779 380.157 64.6042 377.48 61.3332 377.48C58.0622 377.48 55.3859 380.157 55.3859 383.727Z" fill="#F1FAEE"/>
<path d="M56.8728 409.904C56.8728 412.878 59.549 415.258 62.5227 415.258C65.4964 415.258 67.8753 412.581 67.8753 409.606C67.8753 406.632 65.199 404.252 62.2253 404.252C58.9543 404.252 56.5754 406.929 56.8728 409.904Z" fill="#F1FAEE"/>
<path d="M58.3596 436.08C58.3596 438.758 60.7385 440.84 63.4148 440.84C66.0911 440.84 68.1726 438.46 68.1726 435.783C68.1726 433.106 65.7937 431.024 63.1174 431.024C60.1437 431.321 58.0622 433.403 58.3596 436.08Z" fill="#F1FAEE"/>
<path d="M59.549 462.257C59.549 464.637 61.6305 466.422 64.0094 466.422C66.3884 466.422 68.1726 464.339 68.1726 461.96C68.1726 459.58 66.091 457.795 63.7121 457.795C61.3332 458.093 59.549 460.175 59.549 462.257Z" fill="#F1FAEE"/>
<path d="M61.3333 488.731C61.3333 490.516 63.1174 492.003 64.9016 492.003C66.6858 492.003 68.1727 490.219 68.1727 488.434C68.1727 486.649 66.3885 485.162 64.6043 485.162C62.8201 485.162 61.3333 486.649 61.3333 488.731Z" fill="#F1FAEE"/>
<path d="M62.8201 514.908C62.8201 516.395 64.0095 517.585 65.7937 517.585C67.2806 517.585 68.47 516.395 68.47 514.611C68.47 513.123 67.2806 511.933 65.4964 511.933C64.0095 512.231 62.8201 513.421 62.8201 514.908Z" fill="#F1FAEE"/>
<path d="M28.0281 172.528C28.0281 172.826 28.3254 173.123 28.6228 173.123C28.9202 173.123 29.2175 172.826 29.2175 172.528C29.2175 172.231 28.9202 171.933 28.6228 171.933C28.3254 171.933 28.0281 172.231 28.0281 172.528Z" fill="#F1FAEE"/>
<path d="M28.0281 198.705C28.0281 199.3 28.6228 199.895 29.5149 199.895C30.1096 199.895 30.7044 199.3 30.7044 198.408C30.7044 197.813 30.1096 197.218 29.2175 197.218C28.6228 197.515 28.0281 198.11 28.0281 198.705Z" fill="#F1FAEE"/>
<path d="M28.3255 225.179C28.3255 226.369 29.2176 227.262 30.4071 227.262C31.5966 227.262 32.4887 226.369 32.4887 225.179C32.4887 223.989 31.5966 223.097 30.4071 223.097C28.9203 223.097 28.0282 223.989 28.3255 225.179Z" fill="#F1FAEE"/>
<path d="M28.3254 251.356C28.3254 252.843 29.5149 254.033 31.2991 254.033C32.7859 254.033 33.9754 252.843 33.9754 251.059C33.9754 249.571 32.7859 248.381 31.0017 248.381C29.5149 248.679 28.3254 249.869 28.3254 251.356Z" fill="#F1FAEE"/>
<path d="M28.3254 277.83C28.3254 279.615 30.1096 281.102 31.8938 281.102C33.678 281.102 35.1649 279.318 35.1649 277.533C35.1649 275.748 33.3807 274.261 31.5965 274.261C29.8123 274.261 28.3254 275.748 28.3254 277.83Z" fill="#F1FAEE"/>
<path d="M28.6229 304.007C28.6229 306.387 30.7045 308.171 32.786 307.874C35.165 307.874 36.9492 305.792 36.6518 303.709C36.6518 301.33 34.5703 299.545 32.4887 299.842C30.4071 299.842 28.6229 301.925 28.6229 304.007Z" fill="#F1FAEE"/>
<path d="M28.9203 330.481C28.9203 333.158 31.2992 334.943 33.6782 334.943C36.3545 334.943 38.1387 332.563 38.1387 330.184C38.1387 327.507 35.7597 325.722 33.3808 325.722C30.7045 325.722 28.6229 327.804 28.9203 330.481Z" fill="#F1FAEE"/>
<path d="M29.2177 356.658C29.2177 359.633 31.5966 361.715 34.5703 361.715C37.5439 361.715 39.6255 359.335 39.6255 356.36C39.6255 353.386 37.2466 351.304 34.2729 351.304C31.2992 351.304 28.9203 353.683 29.2177 356.658Z" fill="#F1FAEE"/>
<path d="M29.8124 384.322C29.8124 387.297 32.1913 389.379 35.165 389.379C38.1386 389.379 40.2202 386.999 40.2202 384.025C40.2202 381.05 37.8413 378.968 34.8676 378.968C32.1913 378.968 29.8124 381.645 29.8124 384.322Z" fill="#F1FAEE"/>
<path d="M31.2992 410.796C31.2992 413.473 33.6781 415.556 36.0571 415.258C38.7334 415.258 40.8149 412.878 40.5176 410.499C40.5176 407.822 38.1386 405.739 35.7597 406.037C33.3808 405.739 31.2992 408.119 31.2992 410.796Z" fill="#F1FAEE"/>
<path d="M32.786 436.973C32.786 439.353 34.8675 441.137 36.9491 441.137C39.328 441.137 41.1122 439.055 41.1122 436.973C41.1122 434.593 39.0307 432.808 36.9491 432.808C34.2728 432.808 32.4886 434.593 32.786 436.973Z" fill="#F1FAEE"/>
<path d="M34.2729 463.15C34.2729 465.232 36.0571 466.719 37.8413 466.422C39.6255 466.422 41.4097 464.637 41.1123 462.852C41.1123 461.067 39.3281 459.283 37.5439 459.58C35.4623 459.58 33.9755 461.365 34.2729 463.15Z" fill="#F1FAEE"/>
<path d="M-0.22168 94.5935C0.0760526 94.2956 -0.22168 94.2956 -0.22168 94.5935C-0.22168 94.2956 -0.22168 94.2956 -0.22168 94.5935Z" fill="#F1FAEE"/>
<path d="M2.15723 173.421C2.45496 173.421 2.45496 173.421 2.15723 173.421C2.45496 173.421 2.45496 173.123 2.15723 173.421Z" fill="#F1FAEE"/>
<path d="M2.45459 199.598C2.45459 199.895 2.75196 200.192 3.04933 200.192C3.34669 200.192 3.64406 199.895 3.64406 199.598C3.64406 199.3 3.34669 199.003 3.04933 199.003C2.75196 199.003 2.45459 199.3 2.45459 199.598Z" fill="#F1FAEE"/>
<path d="M2.45459 226.072C2.45459 226.964 3.04932 227.559 3.94142 227.559C4.83352 227.559 5.42825 226.964 5.42825 226.072C5.42825 225.179 4.83352 224.584 3.94142 224.584C3.04932 224.584 2.45459 225.179 2.45459 226.072Z" fill="#F1FAEE"/>
<path d="M2.75195 252.248C2.75195 253.438 3.64405 254.331 4.83352 254.331C6.02299 254.331 6.91508 253.438 6.91508 252.248C6.91508 251.059 6.02299 250.166 4.83352 250.166C3.64405 250.166 2.75195 251.059 2.75195 252.248Z" fill="#F1FAEE"/>
<path d="M2.75195 278.425C2.75195 279.913 3.94142 281.102 5.72562 281.102C7.21245 281.102 8.40191 279.913 8.40191 278.128C8.40191 276.64 7.21244 275.451 5.42824 275.451C3.94141 275.748 2.75195 276.938 2.75195 278.425Z" fill="#F1FAEE"/>
<path d="M3.04932 304.899C3.04932 306.684 4.53615 308.171 6.61772 308.171C8.40192 308.171 9.88874 306.684 9.88874 304.602C9.88874 302.817 8.40192 301.33 6.32035 301.33C4.53616 301.33 3.04932 303.115 3.04932 304.899Z" fill="#F1FAEE"/>
<path d="M3.34668 331.076C3.34668 333.158 5.13088 334.943 7.21244 334.943C9.29401 334.943 11.0782 333.158 11.0782 331.076C11.0782 328.994 9.29401 327.209 7.21244 327.209C4.83351 327.209 3.34668 328.994 3.34668 331.076Z" fill="#F1FAEE"/>
<path d="M3.64404 357.55C3.64404 359.93 5.72561 361.715 8.10454 361.715C10.4835 361.715 12.2677 359.633 12.2677 357.253C12.2677 354.873 10.1861 353.088 7.80718 353.088C5.42825 353.088 3.64404 355.171 3.64404 357.55Z" fill="#F1FAEE"/>
<path d="M4.53613 385.214C4.53613 387.594 6.6177 389.676 8.99663 389.379C11.3756 389.379 13.1598 387.297 13.1598 384.917C13.1598 382.537 11.0782 380.752 8.69927 380.752C6.32034 380.752 4.53613 382.835 4.53613 385.214Z" fill="#F1FAEE"/>
<path d="M5.72571 411.391C5.72571 413.473 7.5099 415.258 9.59147 415.258C11.673 415.258 13.4572 413.473 13.4572 411.391C13.4572 409.309 11.673 407.524 9.59147 407.524C7.5099 407.524 5.72571 409.309 5.72571 411.391Z" fill="#F1FAEE"/>
<path d="M7.21252 437.865C7.21252 439.65 8.69936 441.137 10.7809 441.137C12.5651 441.137 14.052 439.65 14.052 437.568C14.052 435.783 12.5651 434.296 10.4836 434.296C8.69935 434.296 7.21252 435.783 7.21252 437.865Z" fill="#F1FAEE"/>
<path d="M8.69928 464.042C8.69928 465.529 9.88875 466.719 11.6729 466.719C13.1598 466.719 14.3492 465.529 14.3492 463.745C14.3492 462.257 13.1598 461.067 11.3756 461.067C9.88874 461.067 8.40192 462.555 8.69928 464.042Z" fill="#F1FAEE"/>
<path d="M10.1861 490.219C10.1861 491.409 11.0782 492.301 12.2677 492.301C13.4571 492.301 14.3492 491.409 14.3492 490.219C14.3492 489.029 13.4571 488.136 12.2677 488.136C11.0782 488.136 9.88874 489.029 10.1861 490.219Z" fill="#F1FAEE"/>
</g>
</g>
<defs>
<clipPath id="clip0_42_2399">
<rect width="813" height="680" fill="white" transform="translate(-93)"/>
</clipPath>
</defs>
</svg>
