<svg width="34" height="34" viewBox="0 0 34 34" fill="none" xmlns="http://www.w3.org/2000/svg">
<path d="M32.2248 22.8119L27.6535 18.258C25.3396 15.9529 21.7278 15.728 19.1317 17.5833L16.4228 14.8847C17.2129 13.8165 17.6644 12.5234 17.6644 11.1178C17.6644 9.37495 16.9872 7.6883 15.7456 6.45143L11.1743 1.89748C8.63467 -0.632493 4.45842 -0.632493 1.86238 1.89748C0.677229 3.19057 0 4.821 0 6.56387C0 8.30674 0.677229 9.93716 1.91882 11.174L6.43367 15.728C7.7317 17.0211 9.42477 17.6395 11.0614 17.6395C12.303 17.6395 13.4881 17.3022 14.5604 16.6275L17.3822 19.4386C16.705 20.4506 16.3664 21.6875 16.3664 22.9243C16.3664 24.6672 17.0436 26.2976 18.2852 27.5345L22.8 32.0885C24.0981 33.3816 25.7911 34 27.4278 34C29.1208 34 30.8139 33.3816 32.0555 32.0885C33.2971 30.8516 33.9743 29.2212 33.9743 27.4783C34.1436 25.7354 33.4664 24.105 32.2248 22.8119ZM8.23962 13.9289L3.72476 9.37495C2.93466 8.58785 2.53961 7.57586 2.53961 6.50765C2.53961 5.43944 2.93466 4.42745 3.72476 3.64035C4.51486 2.85324 5.5307 2.45969 6.60298 2.45969C7.61882 2.45969 8.6911 2.85324 9.4812 3.64035L14.0525 8.13807C14.7862 8.92518 15.2376 9.93716 15.2376 11.0054C15.2376 11.7363 15.0683 12.3547 14.7297 12.9731L13.3188 11.5676C12.8109 11.0616 12.0208 11.0616 11.5129 11.5676C11.005 12.0736 11.005 12.8607 11.5129 13.3667L12.8109 14.6598C11.2307 15.4469 9.42477 15.1658 8.23962 13.9289ZM30.3624 30.2894C28.7822 31.8636 26.1862 31.8636 24.6624 30.2894L20.1476 25.7354C19.3575 24.9483 18.9624 23.9363 18.9624 22.8681C18.9624 22.3059 19.0753 21.7437 19.301 21.2377L20.599 22.4746C20.8248 22.6995 21.1634 22.8681 21.502 22.8681C21.8406 22.8681 22.1792 22.7557 22.405 22.4746C22.9129 21.9686 22.9129 21.1815 22.405 20.6755L20.9941 19.4386C21.6149 19.1013 22.2921 18.9326 22.9693 18.9326C23.9852 18.9326 25.0575 19.3262 25.8476 20.1133L30.4189 24.611C31.1525 25.3981 31.604 26.4101 31.604 27.4783C31.5476 28.5465 31.1525 29.5585 30.3624 30.2894Z" fill="black"/>
</svg>
