<svg width="19" height="19" viewBox="0 0 19 19" fill="none" xmlns="http://www.w3.org/2000/svg">
<path d="M16.2419 2.7492C14.4645 0.977491 12.0435 0 9.56129 0C4.35161 0 0.0919355 4.21544 0.0919355 9.40836C0.0919355 11.0884 0.520968 12.6769 1.34839 14.1431L0 19L5.05645 17.717C6.43548 18.4502 7.99839 18.8778 9.59193 18.8778C14.771 18.8473 19 14.6318 19 9.40836C19 6.90354 18.0194 4.55145 16.2419 2.7492ZM9.53064 17.2588C8.15161 17.2588 6.71129 16.8617 5.51613 16.1286L5.20968 15.9453L2.2371 16.709L3.06452 13.8376L2.88065 13.5322C2.11452 12.2797 1.68548 10.8135 1.68548 9.34727C1.68548 5.0402 5.17903 1.55788 9.53064 1.55788C11.6145 1.55788 13.5758 2.38264 15.0468 3.84888C16.5177 5.31511 17.3452 7.30064 17.3452 9.40836C17.4065 13.7765 13.8516 17.2588 9.53064 17.2588ZM13.8516 11.3939C13.6065 11.2717 12.4726 10.6913 12.1968 10.6608C11.9823 10.5691 11.7984 10.5386 11.6758 10.783C11.5532 11.0273 11.0629 11.5161 10.9403 11.6994C10.8177 11.8215 10.6952 11.8826 10.4194 11.7299C10.1742 11.6077 9.43871 11.3939 8.51935 10.5386C7.81452 9.92765 7.32419 9.16399 7.23226 8.88907C7.10968 8.6447 7.20161 8.55306 7.35484 8.40032C7.47742 8.27814 7.6 8.15595 7.69194 7.97267C7.81452 7.85049 7.81452 7.7283 7.9371 7.57556C8.05968 7.45338 7.96774 7.2701 7.90645 7.14791C7.81452 7.02573 7.38548 5.86495 7.17097 5.37621C6.9871 4.88746 6.77258 4.9791 6.65 4.9791C6.52742 4.9791 6.34355 4.9791 6.22097 4.9791C6.09839 4.9791 5.79194 5.00965 5.60806 5.28457C5.39355 5.52894 4.78065 6.10933 4.78065 7.2701C4.78065 8.43087 5.60806 9.5 5.76129 9.71383C5.88387 9.83602 7.44677 12.2492 9.77581 13.2878C10.3274 13.5322 10.7565 13.6849 11.1242 13.8071C11.6758 13.9904 12.1968 13.9293 12.5952 13.8987C13.0548 13.8682 13.9742 13.3489 14.1887 12.7685C14.3726 12.2492 14.3726 11.7299 14.3113 11.6383C14.25 11.5772 14.0661 11.4855 13.8516 11.3939Z" fill="white"/>
</svg>
