<svg width="19" height="15" viewBox="0 0 19 15" fill="none" xmlns="http://www.w3.org/2000/svg">
<path d="M17.0248 0H1.97525C0.909241 0 0 0.877888 0 1.97525V12.1337C0 13.1997 0.877888 14.1089 1.97525 14.1089H17.0248C18.0908 14.1089 19 13.231 19 12.1337V1.94389C19 0.877888 18.0908 0 17.0248 0ZM17.0248 1.41089C17.0561 1.41089 17.0875 1.41089 17.1188 1.41089L9.5 6.30198L1.88119 1.41089C1.91254 1.41089 1.94389 1.41089 1.97525 1.41089H17.0248ZM17.0248 12.6353H1.97525C1.66172 12.6353 1.41089 12.3845 1.41089 12.071V2.79043L8.74753 7.4934C8.967 7.65017 9.21782 7.71287 9.46865 7.71287C9.71947 7.71287 9.9703 7.65017 10.1898 7.4934L17.5264 2.79043V12.1023C17.5891 12.4158 17.3383 12.6353 17.0248 12.6353Z" fill="white"/>
</svg>
