<svg width="46" height="49" viewBox="0 0 46 49" fill="none" xmlns="http://www.w3.org/2000/svg">
<path d="M42.6071 41.0223H3.39294C1.52201 41.0223 0 39.5003 0 37.6294V34.6606C0 34.3903 0.219136 34.1713 0.489362 34.1713H45.5106C45.781 34.1713 46 34.3903 46 34.6606V37.6294C46 39.5003 44.4779 41.0223 42.6071 41.0223ZM0.978723 35.15V37.6294C0.978723 38.9606 2.06168 40.0436 3.39294 40.0436H42.6072C43.9384 40.0436 45.0214 38.9606 45.0214 37.6294V35.15H0.978723Z" fill="#585555"/>
<path d="M42.6071 41.0223H3.39294C1.52201 41.0223 0 39.5003 0 37.6294V34.6606C0 34.3903 0.219136 34.1713 0.489362 34.1713H45.5106C45.781 34.1713 46 34.3903 46 34.6606V37.6294C46 39.5003 44.4779 41.0223 42.6071 41.0223ZM0.978723 35.15V37.6294C0.978723 38.9606 2.06168 40.0436 3.39294 40.0436H42.6072C43.9384 40.0436 45.0214 38.9606 45.0214 37.6294V35.15H0.978723Z" fill="#585555"/>
<path d="M45.5106 35.15H0.489362C0.219136 35.15 0 34.931 0 34.6607V12.7862C0 10.5466 1.82209 8.72449 4.0617 8.72449H21.0917C21.3619 8.72449 21.581 8.94362 21.581 9.21385C21.581 9.48407 21.3619 9.70321 21.0917 9.70321H4.0617C2.36176 9.70321 0.978723 11.0862 0.978723 12.7862V34.1713H45.0213V12.7862C45.0213 11.0862 43.6382 9.70321 41.9383 9.70321H30.7806C30.5102 9.70321 30.2912 9.48407 30.2912 9.21385C30.2912 8.94362 30.5102 8.72449 30.7806 8.72449H41.9383C44.1779 8.72449 46 10.5466 46 12.7862V34.6607C46 34.931 45.781 35.15 45.5106 35.15Z" fill="#585555"/>
<path d="M45.5106 35.15H0.489362C0.219136 35.15 0 34.931 0 34.6607V12.7862C0 10.5466 1.82209 8.72449 4.0617 8.72449H21.0917C21.3619 8.72449 21.581 8.94362 21.581 9.21385C21.581 9.48407 21.3619 9.70321 21.0917 9.70321H4.0617C2.36176 9.70321 0.978723 11.0862 0.978723 12.7862V34.1713H45.0213V12.7862C45.0213 11.0862 43.6382 9.70321 41.9383 9.70321H30.7806C30.5102 9.70321 30.2912 9.48407 30.2912 9.21385C30.2912 8.94362 30.5102 8.72449 30.7806 8.72449H41.9383C44.1779 8.72449 46 10.5466 46 12.7862V34.6607C46 34.931 45.781 35.15 45.5106 35.15Z" fill="#585555"/>
<path d="M15.3178 20.3216C15.1899 20.3216 15.0649 20.2714 14.9717 20.1783C14.8444 20.051 14.7973 19.8642 14.8491 19.6917L16.9253 12.7712C16.9486 12.6936 16.9907 12.623 17.0479 12.5657L28.467 1.14667C29.2064 0.407247 30.1895 0 31.2351 0C32.2809 0 33.2639 0.407247 34.0033 1.14667C34.7428 1.8861 35.1501 2.86923 35.1501 3.91489C35.1501 4.96066 34.7428 5.94369 34.0033 6.68321L22.5845 18.1022C22.5272 18.1594 22.4566 18.2016 22.379 18.2248L15.4585 20.301C15.4122 20.315 15.3648 20.3216 15.3178 20.3216ZM17.8272 13.1705L16.0477 19.1024L21.9796 17.3228L33.3114 5.99106C33.8659 5.43642 34.1714 4.69914 34.1714 3.91489C34.1714 3.13064 33.8659 2.39327 33.3114 1.83873C32.7568 1.28408 32.0194 0.978723 31.2351 0.978723C30.4508 0.978723 29.7135 1.28418 29.1589 1.83873L17.8272 13.1705Z" fill="#585555"/>
<path d="M15.3178 20.3216C15.1899 20.3216 15.0649 20.2714 14.9717 20.1783C14.8444 20.051 14.7973 19.8642 14.8491 19.6917L16.9253 12.7712C16.9486 12.6936 16.9907 12.623 17.0479 12.5657L28.467 1.14667C29.2064 0.407247 30.1895 0 31.2351 0C32.2809 0 33.2639 0.407247 34.0033 1.14667C34.7428 1.8861 35.1501 2.86923 35.1501 3.91489C35.1501 4.96066 34.7428 5.94369 34.0033 6.68321L22.5845 18.1022C22.5272 18.1594 22.4566 18.2016 22.379 18.2248L15.4585 20.301C15.4122 20.315 15.3648 20.3216 15.3178 20.3216ZM17.8272 13.1705L16.0477 19.1024L21.9796 17.3228L33.3114 5.99106C33.8659 5.43642 34.1714 4.69914 34.1714 3.91489C34.1714 3.13064 33.8659 2.39327 33.3114 1.83873C32.7568 1.28408 32.0194 0.978723 31.2351 0.978723C30.4508 0.978723 29.7135 1.28418 29.1589 1.83873L17.8272 13.1705Z" fill="#585555"/>
<path d="M19.1241 15.8048C18.5601 15.8048 17.9963 15.5902 17.5669 15.1609C16.7084 14.3023 16.7084 12.9052 17.5669 12.0466C17.758 11.8556 18.0678 11.8556 18.259 12.0466C18.4501 12.2378 18.4501 12.5475 18.259 12.7387C17.782 13.2157 17.782 13.9918 18.259 14.4688C18.736 14.9459 19.5121 14.9459 19.9892 14.4688C20.1804 14.2778 20.4902 14.2779 20.6812 14.4688C20.8724 14.66 20.8724 14.9699 20.6812 15.1609C20.252 15.5902 19.688 15.8048 19.1241 15.8048Z" fill="#585555"/>
<path d="M19.1241 15.8048C18.5601 15.8048 17.9963 15.5902 17.5669 15.1609C16.7084 14.3023 16.7084 12.9052 17.5669 12.0466C17.758 11.8556 18.0678 11.8556 18.259 12.0466C18.4501 12.2378 18.4501 12.5475 18.259 12.7387C17.782 13.2157 17.782 13.9918 18.259 14.4688C18.736 14.9459 19.5121 14.9459 19.9892 14.4688C20.1804 14.2778 20.4902 14.2779 20.6812 14.4688C20.8724 14.66 20.8724 14.9699 20.6812 15.1609C20.252 15.5902 19.688 15.8048 19.1241 15.8048Z" fill="#585555"/>
<path d="M21.5463 18.2281C20.9581 18.2281 20.4051 17.999 19.9892 17.5831C19.5732 17.1673 19.3442 16.6142 19.3442 16.026C19.3442 15.4378 19.5733 14.8847 19.9892 14.4688L26.0796 8.37851C26.2705 8.18747 26.5806 8.18747 26.7715 8.37851C26.9627 8.56966 26.9627 8.87952 26.7715 9.07057L20.6812 15.1609C20.4501 15.3919 20.3228 15.6992 20.3228 16.026C20.3228 16.3527 20.45 16.66 20.6812 16.891C20.9123 17.122 21.2195 17.2494 21.5462 17.2494C21.873 17.2494 22.1802 17.1221 22.4113 16.891C22.6023 16.6999 22.9123 16.6999 23.1034 16.891C23.2945 17.0821 23.2945 17.3919 23.1035 17.583C22.6876 17.999 22.1345 18.2281 21.5463 18.2281Z" fill="#585555"/>
<path d="M21.5463 18.2281C20.9581 18.2281 20.4051 17.999 19.9892 17.5831C19.5732 17.1673 19.3442 16.6142 19.3442 16.026C19.3442 15.4378 19.5733 14.8847 19.9892 14.4688L26.0796 8.37851C26.2705 8.18747 26.5806 8.18747 26.7715 8.37851C26.9627 8.56966 26.9627 8.87952 26.7715 9.07057L20.6812 15.1609C20.4501 15.3919 20.3228 15.6992 20.3228 16.026C20.3228 16.3527 20.45 16.66 20.6812 16.891C20.9123 17.122 21.2195 17.2494 21.5462 17.2494C21.873 17.2494 22.1802 17.1221 22.4113 16.891C22.6023 16.6999 22.9123 16.6999 23.1034 16.891C23.2945 17.0821 23.2945 17.3919 23.1035 17.583C22.6876 17.999 22.1345 18.2281 21.5463 18.2281Z" fill="#585555"/>
<path d="M32.2733 8.21056C32.1482 8.21056 32.0228 8.1628 31.9274 8.06728L27.0829 3.22279C26.8917 3.03165 26.8917 2.72178 27.0829 2.53074C27.2738 2.33969 27.5839 2.33969 27.7748 2.53074L32.6193 7.37522C32.8105 7.56637 32.8105 7.87623 32.6193 8.06728C32.5239 8.1628 32.3985 8.21056 32.2733 8.21056Z" fill="#585555"/>
<path d="M32.2733 8.21056C32.1482 8.21056 32.0228 8.1628 31.9274 8.06728L27.0829 3.22279C26.8917 3.03165 26.8917 2.72178 27.0829 2.53074C27.2738 2.33969 27.5839 2.33969 27.7748 2.53074L32.6193 7.37522C32.8105 7.56637 32.8105 7.87623 32.6193 8.06728C32.5239 8.1628 32.3985 8.21056 32.2733 8.21056Z" fill="#585555"/>
<path d="M33.7659 30.2564H25.9362C24.3172 30.2564 23 28.9392 23 27.3202C23 25.7012 24.3172 24.384 25.9362 24.384H36.7021C37.7815 24.384 38.6596 23.5059 38.6596 22.4266V22.279C38.6596 21.1997 37.7815 20.3216 36.7021 20.3216H15.3178C15.0476 20.3216 14.8284 20.1024 14.8284 19.8322C14.8284 19.562 15.0476 19.3428 15.3178 19.3428H36.7021C38.3211 19.3428 39.6383 20.66 39.6383 22.279V22.4266C39.6383 24.0456 38.3211 25.3628 36.7021 25.3628H25.9362C24.8568 25.3628 23.9787 26.2409 23.9787 27.3202C23.9787 28.3996 24.8568 29.2777 25.9362 29.2777H33.7659C34.0363 29.2777 34.2553 29.4967 34.2553 29.767C34.2553 30.0373 34.0363 30.2564 33.7659 30.2564Z" fill="#585555"/>
<path d="M33.7659 30.2564H25.9362C24.3172 30.2564 23 28.9392 23 27.3202C23 25.7012 24.3172 24.384 25.9362 24.384H36.7021C37.7815 24.384 38.6596 23.5059 38.6596 22.4266V22.279C38.6596 21.1997 37.7815 20.3216 36.7021 20.3216H15.3178C15.0476 20.3216 14.8284 20.1024 14.8284 19.8322C14.8284 19.562 15.0476 19.3428 15.3178 19.3428H36.7021C38.3211 19.3428 39.6383 20.66 39.6383 22.279V22.4266C39.6383 24.0456 38.3211 25.3628 36.7021 25.3628H25.9362C24.8568 25.3628 23.9787 26.2409 23.9787 27.3202C23.9787 28.3996 24.8568 29.2777 25.9362 29.2777H33.7659C34.0363 29.2777 34.2553 29.4967 34.2553 29.767C34.2553 30.0373 34.0363 30.2564 33.7659 30.2564Z" fill="#585555"/>
<path d="M15.1702 30.7458H0.489362C0.219136 30.7458 0 30.5268 0 30.2565C0 29.9861 0.219136 29.7671 0.489362 29.7671H15.1702C15.4404 29.7671 15.6596 29.9861 15.6596 30.2565C15.6596 30.5268 15.4404 30.7458 15.1702 30.7458Z" fill="#585555"/>
<path d="M15.1702 30.7458H0.489362C0.219136 30.7458 0 30.5268 0 30.2565C0 29.9861 0.219136 29.7671 0.489362 29.7671H15.1702C15.4404 29.7671 15.6596 29.9861 15.6596 30.2565C15.6596 30.5268 15.4404 30.7458 15.1702 30.7458Z" fill="#585555"/>
<path d="M15.1702 27.8097H0.489362C0.219136 27.8097 0 27.5906 0 27.3203C0 27.05 0.219136 26.8309 0.489362 26.8309H15.1702C15.4404 26.8309 15.6596 27.05 15.6596 27.3203C15.6596 27.5906 15.4404 27.8097 15.1702 27.8097Z" fill="#585555"/>
<path d="M15.1702 27.8097H0.489362C0.219136 27.8097 0 27.5906 0 27.3203C0 27.05 0.219136 26.8309 0.489362 26.8309H15.1702C15.4404 26.8309 15.6596 27.05 15.6596 27.3203C15.6596 27.5906 15.4404 27.8097 15.1702 27.8097Z" fill="#585555"/>
<path d="M15.1702 24.8735H0.489362C0.219136 24.8735 0 24.6545 0 24.3841C0 24.1139 0.219136 23.8948 0.489362 23.8948H15.1702C15.4404 23.8948 15.6596 24.1139 15.6596 24.3841C15.6596 24.6545 15.4404 24.8735 15.1702 24.8735Z" fill="#585555"/>
<path d="M15.1702 24.8735H0.489362C0.219136 24.8735 0 24.6545 0 24.3841C0 24.1139 0.219136 23.8948 0.489362 23.8948H15.1702C15.4404 23.8948 15.6596 24.1139 15.6596 24.3841C15.6596 24.6545 15.4404 24.8735 15.1702 24.8735Z" fill="#585555"/>
<path d="M28.383 46.8947H17.617C17.3468 46.8947 17.1277 46.6757 17.1277 46.4053V40.533C17.1277 40.2627 17.3468 40.0436 17.617 40.0436H28.383C28.6533 40.0436 28.8724 40.2627 28.8724 40.533V46.4053C28.8724 46.6757 28.6533 46.8947 28.383 46.8947ZM18.1064 45.916H27.8936V41.0224H18.1064V45.916Z" fill="#585555"/>
<path d="M28.383 46.8947H17.617C17.3468 46.8947 17.1277 46.6757 17.1277 46.4053V40.533C17.1277 40.2627 17.3468 40.0436 17.617 40.0436H28.383C28.6533 40.0436 28.8724 40.2627 28.8724 40.533V46.4053C28.8724 46.6757 28.6533 46.8947 28.383 46.8947ZM18.1064 45.916H27.8936V41.0224H18.1064V45.916Z" fill="#585555"/>
<path d="M25.9362 46.8947H20.0638C19.7936 46.8947 19.5745 46.6757 19.5745 46.4053V40.533C19.5745 40.2627 19.7936 40.0436 20.0638 40.0436H25.9362C26.2065 40.0436 26.4255 40.2627 26.4255 40.533V46.4053C26.4255 46.6757 26.2065 46.8947 25.9362 46.8947ZM20.5532 45.916H25.4468V41.0224H20.5532V45.916Z" fill="#585555"/>
<path d="M25.9362 46.8947H20.0638C19.7936 46.8947 19.5745 46.6757 19.5745 46.4053V40.533C19.5745 40.2627 19.7936 40.0436 20.0638 40.0436H25.9362C26.2065 40.0436 26.4255 40.2627 26.4255 40.533V46.4053C26.4255 46.6757 26.2065 46.8947 25.9362 46.8947ZM20.5532 45.916H25.4468V41.0224H20.5532V45.916Z" fill="#585555"/>
<path d="M29.8511 48.8522H16.1489C15.3394 48.8522 14.6808 48.1936 14.6808 47.3841C14.6808 46.5746 15.3394 45.916 16.1489 45.916H29.8511C30.6606 45.916 31.3191 46.5746 31.3191 47.3841C31.3191 48.1936 30.6606 48.8522 29.8511 48.8522ZM16.1489 46.8947C15.8791 46.8947 15.6596 47.1143 15.6596 47.3841C15.6596 47.6539 15.8791 47.8735 16.1489 47.8735H29.8511C30.1209 47.8735 30.3404 47.6539 30.3404 47.3841C30.3404 47.1143 30.1209 46.8947 29.8511 46.8947H16.1489Z" fill="#585555"/>
<path d="M29.8511 48.8522H16.1489C15.3394 48.8522 14.6808 48.1936 14.6808 47.3841C14.6808 46.5746 15.3394 45.916 16.1489 45.916H29.8511C30.6606 45.916 31.3191 46.5746 31.3191 47.3841C31.3191 48.1936 30.6606 48.8522 29.8511 48.8522ZM16.1489 46.8947C15.8791 46.8947 15.6596 47.1143 15.6596 47.3841C15.6596 47.6539 15.8791 47.8735 16.1489 47.8735H29.8511C30.1209 47.8735 30.3404 47.6539 30.3404 47.3841C30.3404 47.1143 30.1209 46.8947 29.8511 46.8947H16.1489Z" fill="#585555"/>
</svg>
