<svg width="326" height="158" viewBox="0 0 326 158" fill="none" xmlns="http://www.w3.org/2000/svg">
<path d="M77.4286 47.9047C72.9524 42.0952 65.5238 39.238 55.0476 39.238C52.1905 39.238 49.0476 39.9047 49.0476 39.9047C48 40.0952 47.1428 40.2857 47.1428 40.2857C47.1428 40.2857 46.2857 40.2857 45.2381 40.2857H31.2381C30.1905 40.2857 29.3333 41.1428 29.3333 42.1904V104C29.3333 105.048 30.1905 105.905 31.2381 105.905H45.2381C46.2857 105.905 47.1428 105.048 47.1428 104V57.7142C47.1428 56.6666 48 55.619 48.9524 55.3333C48.9524 55.3333 50.8571 54.8571 52.8571 54.8571C56.0952 54.8571 58.5714 55.3333 60.2857 56.2857C62 57.238 63.3333 58.5714 64.0952 60.2857C64.8571 61.9999 65.3333 63.9999 65.4285 66.1904C65.7143 68.4761 65.7143 71.4285 65.7143 71.4285C65.7143 72.4761 65.7143 74.1904 65.7143 75.238V104C65.7143 105.048 66.5714 105.905 67.619 105.905H81.619C82.6666 105.905 83.5238 105.048 83.5238 104V75.3333C83.5238 74.2857 83.5238 72.5714 83.4285 71.5237C83.4285 71.5237 83.0476 62.2857 82.0952 58.1904C81.1428 54.0952 79.619 50.6666 77.4286 47.9047Z" fill="#4D4D4D"/>
<path d="M114.381 88.5713C112.952 87.1428 112.571 85.3332 112.571 85.3332C112.381 84.2856 112.191 82.5713 112.191 81.5237V25.3332C112.191 24.2856 111.333 23.4285 110.286 23.4285H96.6667C95.6191 23.4285 94.7619 24.2856 94.7619 25.3332V45.238C94.7619 46.2856 93.9048 47.1428 92.8572 47.1428H87.2381C86.1905 47.1428 85.3334 47.9999 85.3334 49.0475V59.8094C85.3334 60.857 86.1905 61.7142 87.2381 61.7142H92.8572C93.9048 61.7142 94.7619 62.5713 94.7619 63.6189V79.5237C94.7619 80.5713 94.8572 82.2856 94.9524 83.3332C94.9524 83.3332 95.4286 87.9999 96.7619 91.0475C98.0953 93.9999 99.8096 96.6666 102.095 98.857C104.286 101.048 106.952 102.857 110 104.095C113.048 105.333 117.714 105.809 117.714 105.809C118.762 105.905 120.476 106 121.524 106H125.143C126.191 106 127.048 105.143 127.048 104.095V92.6666C127.048 91.6189 126.191 90.7618 125.143 90.7618H121.524C120.476 90.7618 118.762 90.5713 117.714 90.3808C117.714 90.3808 115.81 89.9999 114.381 88.5713Z" fill="#4D4D4D"/>
<path d="M186.476 42.2856C186.476 41.238 185.619 40.3809 184.571 40.3809H170.476C169.428 40.3809 168.571 41.238 168.571 42.2856V71.8094C168.571 72.857 168.571 74.5713 168.571 75.619C168.571 75.619 168.571 78.3809 168.381 80.5713C168.286 82.7618 167.809 84.6666 166.952 86.3809C166.095 87.9999 164.857 89.3332 163.048 90.3809C161.905 91.0475 160.286 91.3332 160.286 91.3332C159.238 91.5237 157.619 91.5237 156.571 91.3332C156.571 91.3332 155.048 91.0475 153.809 90.3809C152.095 89.3332 150.762 87.9999 149.905 86.3809C149.048 84.7618 148.571 82.7618 148.476 80.5713C148.381 78.3809 148.286 75.619 148.286 75.619C148.286 74.5713 148.286 72.857 148.286 71.8094V42.2856C148.286 41.238 147.428 40.3809 146.381 40.3809H132.19C131.143 40.3809 130.286 41.238 130.286 42.2856V71.8094C130.286 72.857 130.381 74.5713 130.476 75.619C130.476 75.619 132.286 93.238 136.476 98.3809C139.905 102.857 150.571 106 150.571 106C151.619 106.286 153.238 106.667 154.286 106.762C154.286 106.762 155.809 106.952 157.619 106.952C157.905 106.952 158.095 106.952 158.381 106.952C158.667 106.952 158.857 106.952 159.143 106.952C160.952 106.952 162.476 106.762 162.476 106.762C163.524 106.667 165.143 106.286 166.19 106C166.19 106 176.857 102.762 180.286 98.3809C184.381 93.238 186.286 75.619 186.286 75.619C186.381 74.5713 186.476 72.857 186.476 71.8094V42.2856Z" fill="#4D4D4D"/>
<path d="M130.381 49.0476V73.619C130.381 84.8571 132.476 93.1428 136.571 98.2857C140 102.762 145.333 105.524 152.476 106.476C154.095 106.762 155.809 106.952 157.619 106.952C157.905 106.952 158.095 106.952 158.381 106.952C158.667 106.952 158.857 106.952 159.143 106.952C160.952 106.952 162.667 106.762 164.286 106.476C171.428 105.429 176.762 102.762 180.19 98.2857C184.286 93.1428 186.381 84.9524 186.381 73.619V51.4286L168.571 50V73.619C168.571 76 168.476 78.2857 168.381 80.4762C168.286 82.6667 167.809 84.5714 166.952 86.2857C166.095 87.9047 164.857 89.2381 163.048 90.2857C161.905 90.9524 160.286 91.4286 158.476 91.619C156.571 91.4286 155.048 90.9524 153.905 90.2857C152.19 89.2381 150.857 87.9047 150 86.2857C149.143 84.6667 148.667 82.6667 148.571 80.4762C148.476 78.2857 148.381 76 148.381 73.619V49.8095L130.381 49.0476Z" fill="#4D4D4D"/>
<path d="M211.619 53.3332C212.667 53.3332 213.238 52.5713 212.857 51.619L209.238 42.2856C208.857 41.3332 208.571 40.4761 208.571 40.4761C208.571 40.4761 207.714 40.3809 206.667 40.3809H191.714C190.667 40.3809 190.191 41.1428 190.571 42.0951L194.571 51.3332C194.952 52.2856 196.191 53.0475 197.238 53.1428L211.619 53.3332Z" fill="#BEBEBE"/>
<path d="M260.857 40.5713C261.905 40.5713 262.476 41.4285 262.095 42.3808C262.095 42.3808 259.809 48.5713 258.381 52.2856C256.952 56.0951 255.714 59.6189 254.476 62.9523C250.095 75.238 246.19 85.7142 242.762 94.4761C239.333 103.238 235.619 110.381 231.714 115.905C227.81 121.619 223.333 125.714 218.381 128.19C213.429 130.762 201.714 131.809 201.714 131.809C200.667 131.905 198.952 132 197.905 132H184.952C183.905 132 183.048 131.143 183.048 130.095V116.19C183.048 115.143 183.905 114.286 184.952 114.286H197.905C198.952 114.286 200.667 114.286 201.714 114.286C201.714 114.286 204.095 114.19 205.905 114.095C207.714 113.905 209.333 113.524 210.857 112.952C212.381 112.381 213.714 111.619 214.952 110.571C215.619 110 215.619 110 215.619 110C216.286 109.238 216.571 107.809 216.19 106.857L197.048 58.6665C196.667 57.7142 197.238 56.857 198.286 56.857H212.571C213.619 56.857 214.762 57.7142 215.143 58.6665L225.714 88.4761C226.095 89.4285 226.667 89.4285 227.048 88.4761C227.048 88.4761 228.381 84.857 229.524 81.7142C231.048 77.5237 232.667 72.857 234.476 67.6189C235.905 63.7142 237.333 59.5237 238.952 55.0475C240.571 50.5713 243.429 42.2856 243.429 42.2856C243.81 41.3332 244.952 40.4761 246 40.4761L260.857 40.5713Z" fill="#4D4D4D"/>
<path d="M323.048 59.9999C321.238 55.9047 318.857 52.2856 315.81 49.238C312.762 46.1904 309.143 43.7142 305.048 41.9999C300.952 40.1904 296.476 39.3333 291.81 39.3333C287.048 39.3333 282.667 40.1904 278.571 41.9999C274.476 43.8094 270.857 46.1904 267.81 49.238C264.762 52.2856 262.286 55.9047 260.571 59.9999C258.762 64.0952 257.905 68.4761 257.905 73.1428C257.905 77.8094 258.762 82.1904 260.571 86.2856C262.381 90.3809 264.762 93.9999 267.81 97.0475C270.857 100.095 274.476 102.571 278.571 104.286C282.667 106.095 287.143 106.952 291.81 106.952C296.571 106.952 300.952 106.095 305.048 104.286C309.143 102.476 312.762 100.095 315.81 97.0475C318.857 93.9999 321.333 90.3809 323.048 86.2856C324.857 82.1904 325.714 77.8094 325.714 73.1428C325.714 68.4761 324.857 64.0952 323.048 59.9999ZM306.286 79.9999C305.429 82.1904 304.286 84.1904 302.857 85.9047C301.429 87.619 299.714 88.9523 297.905 89.9047C296 90.8571 294 91.3332 291.81 91.3332C289.619 91.3332 287.524 90.8571 285.619 89.9047C283.714 88.9523 282 87.619 280.571 85.9047C279.143 84.1904 278 82.1904 277.143 79.9999C276.286 77.8094 275.905 75.3332 275.905 72.7618C275.905 70.2856 276.286 67.9999 277.143 65.7142C278 63.5237 279.143 61.5237 280.571 59.9047C282 58.2856 283.714 57.0475 285.619 55.9999C287.524 55.0475 289.619 54.5713 291.81 54.5713C294 54.5713 296 55.0475 297.905 55.9999C299.81 56.9523 301.429 58.2856 302.857 59.9047C304.286 61.5237 305.429 63.4285 306.286 65.7142C307.143 67.9047 307.524 70.2856 307.524 72.7618C307.524 75.3332 307.048 77.8094 306.286 79.9999Z" fill="#4D4D4D"/>
<path d="M11.4286 29.0476C5.14286 29.0476 0 34.1905 0 40.4762C0 43.8095 2.57143 47.3333 2.57143 47.3333C3.14286 48.1905 3.71429 49.7143 3.71429 50.7619V104C3.71429 105.048 4.57143 105.905 5.61905 105.905H20.9524C22 105.905 22.8571 105.048 22.8571 104V41.3333C22.8571 40.2857 22.8571 39.4286 22.8571 39.4286C22.8571 39.4286 22.5714 38.5714 22.2857 37.619C22.2857 37.619 20.9524 33.4286 18.5714 31.5238C16.5714 30 14.0952 29.0476 11.4286 29.0476Z" fill="#4D4D4D"/>
<path d="M11.7143 22.8571C18.0261 22.8571 23.1428 17.7404 23.1428 11.4286C23.1428 5.11675 18.0261 0 11.7143 0C5.40245 0 0.285706 5.11675 0.285706 11.4286C0.285706 17.7404 5.40245 22.8571 11.7143 22.8571Z" fill="#4D4D4D"/>
<g clip-path="url(#clip0_62_4081)">
<path d="M275.811 158H275.151C272.245 158 270 155.6 270 152.8V129.2C270 126.4 272.377 124 275.151 124H275.679C278.585 124 280.83 126.4 280.83 129.2V152.667C280.962 155.733 278.585 158 275.811 158Z" fill="#E1A712"/>
<path d="M305.792 158H305.264C302.358 158 300.113 155.6 300.113 152.8V129.2C300.113 126.267 302.491 124 305.264 124H305.792C308.698 124 310.943 126.4 310.943 129.2V152.667C311.075 155.733 308.698 158 305.792 158Z" fill="#C85D28"/>
<path d="M290.736 153.867H290.208C287.302 153.867 285.057 151.467 285.057 148.667V133.333C285.057 130.4 287.434 128.133 290.208 128.133H290.736C293.642 128.133 295.887 130.533 295.887 133.333V148.667C296.019 151.6 293.642 153.867 290.736 153.867Z" fill="#D58221"/>
<path d="M320.849 150.4H320.321C317.415 150.4 315.17 148 315.17 145.2V136.933C315.17 134 317.547 131.733 320.321 131.733H320.849C323.755 131.733 326 134.133 326 136.933V145.2C326 148 323.755 150.4 320.849 150.4Z" fill="#BE3129"/>
</g>
<defs>
<clipPath id="clip0_62_4081">
<rect width="56" height="34" fill="white" transform="translate(270 124)"/>
</clipPath>
</defs>
</svg>
