<svg width="47" height="41" viewBox="0 0 47 41" fill="none" xmlns="http://www.w3.org/2000/svg">
<path d="M42.6071 33.0223H3.39294C1.52201 33.0223 0 31.5003 0 29.6294V26.6606C0 26.3903 0.219136 26.1713 0.489362 26.1713H45.5106C45.781 26.1713 46 26.3903 46 26.6606V29.6294C46 31.5003 44.4779 33.0223 42.6071 33.0223ZM0.978723 27.15V29.6294C0.978723 30.9606 2.06168 32.0436 3.39294 32.0436H42.6072C43.9384 32.0436 45.0214 30.9606 45.0214 29.6294V27.15H0.978723Z" fill="#585555"/>
<path d="M42.6071 33.0223H3.39294C1.52201 33.0223 0 31.5003 0 29.6294V26.6606C0 26.3903 0.219136 26.1713 0.489362 26.1713H45.5106C45.781 26.1713 46 26.3903 46 26.6606V29.6294C46 31.5003 44.4779 33.0223 42.6071 33.0223ZM0.978723 27.15V29.6294C0.978723 30.9606 2.06168 32.0436 3.39294 32.0436H42.6072C43.9384 32.0436 45.0214 30.9606 45.0214 29.6294V27.15H0.978723Z" fill="#585555"/>
<path d="M45.544 27.15H0.522748C0.252522 27.15 0.0333862 26.931 0.0333862 26.6607V4.78619C0.0333862 2.54658 1.85548 0.724487 4.09509 0.724487L31.5106 0.724487C31.7809 0.724487 32 0.943623 32 1.21385C32 1.48407 31.7809 1.70321 31.5106 1.70321H4.09509C2.39514 1.70321 1.01211 3.08624 1.01211 4.78619V26.1713H45.0547V4.78619C45.0547 3.08624 43.6716 1.70321 41.9717 1.70321H30.8139C30.5436 1.70321 30.3246 1.48407 30.3246 1.21385C30.3246 0.943623 30.5436 0.724487 30.8139 0.724487H41.9717C44.2113 0.724487 46.0334 2.54658 46.0334 4.78619V26.6607C46.0334 26.931 45.8143 27.15 45.544 27.15Z" fill="#585555"/>
<path d="M45.544 27.15H0.522748C0.252522 27.15 0.0333862 26.931 0.0333862 26.6607V4.78619C0.0333862 2.54658 1.85548 0.724487 4.09509 0.724487L31.5106 0.724487C31.7809 0.724487 32 0.943623 32 1.21385C32 1.48407 31.7809 1.70321 31.5106 1.70321H4.09509C2.39514 1.70321 1.01211 3.08624 1.01211 4.78619V26.1713H45.0547V4.78619C45.0547 3.08624 43.6716 1.70321 41.9717 1.70321H30.8139C30.5436 1.70321 30.3246 1.48407 30.3246 1.21385C30.3246 0.943623 30.5436 0.724487 30.8139 0.724487H41.9717C44.2113 0.724487 46.0334 2.54658 46.0334 4.78619V26.6607C46.0334 26.931 45.8143 27.15 45.544 27.15Z" fill="#585555"/>
<path d="M28.383 38.8947H17.617C17.3468 38.8947 17.1277 38.6757 17.1277 38.4053V32.533C17.1277 32.2627 17.3468 32.0436 17.617 32.0436H28.383C28.6533 32.0436 28.8724 32.2627 28.8724 32.533V38.4053C28.8724 38.6757 28.6533 38.8947 28.383 38.8947ZM18.1064 37.916H27.8936V33.0224H18.1064V37.916Z" fill="#585555"/>
<path d="M28.383 38.8947H17.617C17.3468 38.8947 17.1277 38.6757 17.1277 38.4053V32.533C17.1277 32.2627 17.3468 32.0436 17.617 32.0436H28.383C28.6533 32.0436 28.8724 32.2627 28.8724 32.533V38.4053C28.8724 38.6757 28.6533 38.8947 28.383 38.8947ZM18.1064 37.916H27.8936V33.0224H18.1064V37.916Z" fill="#585555"/>
<path d="M25.9362 38.8947H20.0638C19.7936 38.8947 19.5745 38.6757 19.5745 38.4053V32.533C19.5745 32.2627 19.7936 32.0436 20.0638 32.0436H25.9362C26.2065 32.0436 26.4255 32.2627 26.4255 32.533V38.4053C26.4255 38.6757 26.2065 38.8947 25.9362 38.8947ZM20.5532 37.916H25.4468V33.0224H20.5532V37.916Z" fill="#585555"/>
<path d="M25.9362 38.8947H20.0638C19.7936 38.8947 19.5745 38.6757 19.5745 38.4053V32.533C19.5745 32.2627 19.7936 32.0436 20.0638 32.0436H25.9362C26.2065 32.0436 26.4255 32.2627 26.4255 32.533V38.4053C26.4255 38.6757 26.2065 38.8947 25.9362 38.8947ZM20.5532 37.916H25.4468V33.0224H20.5532V37.916Z" fill="#585555"/>
<path d="M29.8511 40.8522H16.1489C15.3394 40.8522 14.6808 40.1936 14.6808 39.3841C14.6808 38.5746 15.3394 37.916 16.1489 37.916H29.8511C30.6606 37.916 31.3191 38.5746 31.3191 39.3841C31.3191 40.1936 30.6606 40.8522 29.8511 40.8522ZM16.1489 38.8947C15.8791 38.8947 15.6596 39.1143 15.6596 39.3841C15.6596 39.6539 15.8791 39.8735 16.1489 39.8735H29.8511C30.1209 39.8735 30.3404 39.6539 30.3404 39.3841C30.3404 39.1143 30.1209 38.8947 29.8511 38.8947H16.1489Z" fill="#585555"/>
<path d="M29.8511 40.8522H16.1489C15.3394 40.8522 14.6808 40.1936 14.6808 39.3841C14.6808 38.5746 15.3394 37.916 16.1489 37.916H29.8511C30.6606 37.916 31.3191 38.5746 31.3191 39.3841C31.3191 40.1936 30.6606 40.8522 29.8511 40.8522ZM16.1489 38.8947C15.8791 38.8947 15.6596 39.1143 15.6596 39.3841C15.6596 39.6539 15.8791 39.8735 16.1489 39.8735H29.8511C30.1209 39.8735 30.3404 39.6539 30.3404 39.3841C30.3404 39.1143 30.1209 38.8947 29.8511 38.8947H16.1489Z" fill="#585555"/>
<path d="M19.8501 16.7371L17.2557 14.6395L19.8501 12.5419C20.047 12.35 20.047 12.0386 19.8501 11.8467C19.6532 11.6547 19.3343 11.6547 19.1374 11.8467L16.1431 14.2672C16.0382 14.3696 15.9937 14.5056 16.0007 14.6395C15.9937 14.7735 16.0382 14.9094 16.1431 15.0119L19.1374 17.4323C19.3343 17.6242 19.6532 17.6242 19.8501 17.4323C20.047 17.2404 20.047 16.9291 19.8501 16.7371ZM26.9766 8.06578C26.7377 7.93034 26.4319 8.01079 26.2939 8.24521L20.0465 20.2837C19.9086 20.518 19.9656 20.8764 20.2295 20.9529C20.5523 21.0463 20.7742 21.0079 20.9122 20.7735L27.1595 8.73502C27.298 8.50009 27.216 8.20071 26.9766 8.06578ZM30.8535 14.2672L27.8598 11.8462C27.6628 11.6543 27.344 11.6543 27.147 11.8462C26.9501 12.0381 26.9501 12.3495 27.147 12.5414L29.7415 14.639L27.147 16.7367C26.9501 16.9286 26.9501 17.24 27.147 17.4319C27.3439 17.6238 27.6628 17.6238 27.8598 17.4319L30.854 15.0114C30.959 14.9089 31.0035 14.773 30.9964 14.6391C31.0034 14.5056 30.9584 14.3696 30.8535 14.2672Z" fill="#585454"/>
</svg>
