<svg width="19" height="19" viewBox="0 0 19 19" fill="none" xmlns="http://www.w3.org/2000/svg">
<path d="M5.89437 10.9421H4.92242C4.7343 10.9421 4.60889 11.0676 4.60889 11.2557V12.1963C4.60889 12.3844 4.7343 12.5098 4.92242 12.5098H5.89437C6.08248 12.5098 6.2079 12.3844 6.2079 12.1963V11.2557C6.2079 11.0989 6.05113 10.9421 5.89437 10.9421Z" fill="white"/>
<path d="M9.97029 10.9421H8.99835C8.81023 10.9421 8.68481 11.0676 8.68481 11.2557V12.1963C8.68481 12.3844 8.81023 12.5098 8.99835 12.5098H9.97029C10.1584 12.5098 10.2838 12.3844 10.2838 12.1963V11.2557C10.2838 11.0989 10.1584 10.9421 9.97029 10.9421Z" fill="white"/>
<path d="M14.0775 10.9421H13.1056C12.9175 10.9421 12.7921 11.0676 12.7921 11.2557V12.1963C12.7921 12.3844 12.9175 12.5098 13.1056 12.5098H14.0775C14.2657 12.5098 14.3911 12.3844 14.3911 12.1963V11.2557C14.3911 11.0989 14.2657 10.9421 14.0775 10.9421Z" fill="white"/>
<path d="M5.89437 14.9868H4.92242C4.7343 14.9868 4.60889 15.1122 4.60889 15.3003V16.2409C4.60889 16.4291 4.7343 16.5545 4.92242 16.5545H5.89437C6.08248 16.5545 6.2079 16.4291 6.2079 16.2409V15.3003C6.2079 15.1436 6.05113 14.9868 5.89437 14.9868Z" fill="white"/>
<path d="M9.97029 14.9868H8.99835C8.81023 14.9868 8.68481 15.1122 8.68481 15.3003V16.2409C8.68481 16.4291 8.81023 16.5545 8.99835 16.5545H9.97029C10.1584 16.5545 10.2838 16.4291 10.2838 16.2409V15.3003C10.2838 15.1436 10.1584 14.9868 9.97029 14.9868Z" fill="white"/>
<path d="M14.0775 14.9868H13.1056C12.9175 14.9868 12.7921 15.1122 12.7921 15.3003V16.2409C12.7921 16.4291 12.9175 16.5545 13.1056 16.5545H14.0775C14.2657 16.5545 14.3911 16.4291 14.3911 16.2409V15.3003C14.3911 15.1436 14.2657 14.9868 14.0775 14.9868Z" fill="white"/>
<path d="M17.0248 4.29538H10.2211V3.69967C10.9422 3.41749 11.4439 2.72772 11.4439 1.91254C11.4439 0.846535 10.566 0 9.5 0C8.43399 0 7.55611 0.846535 7.55611 1.91254C7.55611 2.72772 8.05776 3.41749 8.77888 3.69967V4.29538H1.97525C0.909241 4.29538 0 5.17327 0 6.27063V17.0248C0 18.0908 0.877888 19 1.97525 19H17.0248C18.0908 19 19 18.1221 19 17.0248V6.23927C19 5.17327 18.0908 4.29538 17.0248 4.29538ZM9.5 1.41089C9.78218 1.41089 10.033 1.63036 10.033 1.91254C10.033 2.19472 9.81353 2.41419 9.5 2.41419C9.18647 2.41419 8.967 2.19472 8.967 1.91254C8.967 1.63036 9.21782 1.41089 9.5 1.41089ZM1.97525 5.70627H17.0248C17.3383 5.70627 17.5891 5.9571 17.5891 6.27063V8.21452H1.44224V6.27063C1.44224 5.92574 1.66172 5.70627 1.97525 5.70627ZM17.0248 17.5891H1.97525C1.66172 17.5891 1.41089 17.3383 1.41089 17.0248V9.59406H17.5578V17.0248C17.5891 17.3383 17.3383 17.5891 17.0248 17.5891Z" fill="white"/>
</svg>
