<svg width="303" height="39" viewBox="0 0 303 39" fill="none" xmlns="http://www.w3.org/2000/svg">
<path d="M6.33984 14.9961C6.45703 14.9961 6.57422 14.7324 6.57422 14.4883C6.56445 14.0098 6.54492 13.5605 6.44727 13.0723C6.35938 12.6035 6.20312 12.1445 6.03711 11.6855C5.96875 11.5098 5.65625 11.4023 5.36328 11.4023C5.12891 11.4023 4.89453 11.4902 4.89453 11.7148C4.89453 11.8027 4.93359 11.9199 5.02148 12.0664C5.5293 12.8184 5.87109 13.6387 6.07617 14.498C6.16406 14.8594 6.25195 14.9961 6.33984 14.9961ZM4.52344 14.9961C4.66016 14.9961 4.77734 14.6738 4.77734 14.459C4.75781 14 4.72852 13.5312 4.64062 13.0723C4.55273 12.6035 4.40625 12.1445 4.2207 11.6855C4.16211 11.5098 3.84961 11.4023 3.55664 11.4023C3.32227 11.4023 3.08789 11.4902 3.08789 11.7148C3.08789 11.8027 3.12695 11.9199 3.21484 12.0664C3.74219 12.877 4.06445 13.6289 4.26953 14.498C4.35742 14.8594 4.44531 14.9961 4.52344 14.9961Z" fill="#A59C9C"/>
<path d="M7.76562 36.3047C7.83398 36.3047 7.95117 36.2656 7.95117 36.1484C7.95117 36.0117 7.76562 35.7578 7.76562 35.2109C7.76562 35.0938 7.77539 34.957 7.79492 34.8008C9.11328 24.918 17.8242 9.94727 17.8242 3.81445L17.8145 3.44336C17.6777 1.26562 16.3105 0.0546875 14.1523 0.0546875C9.80664 0.0546875 4.08398 5.57227 1.16406 9.9375C0.519531 10.8945 0.128906 11.8125 0.128906 12.6035C0.128906 13.5312 0.666016 14.166 1.18359 14.166C1.64258 14.166 2.0625 13.7461 2.0625 13.1016C2.0625 12.75 1.91602 12.3398 1.91602 11.8906C1.91602 7.02734 10.7344 0.660156 14.2891 0.660156C14.5723 0.660156 14.8164 0.699219 15.0215 0.777344C15.9688 1.14844 16.3984 2.05664 16.4082 3.3457C16.4082 8.55078 7.0332 28.2871 7.0332 34.4492C7.0332 34.8008 7.0625 35.1133 7.13086 35.377C7.16992 35.6992 7.49219 36.3047 7.76562 36.3047Z" fill="#A59C9C"/>
<path d="M15.666 25.748C15.9199 25.748 16.2129 25.6113 16.5156 25.3574C17.9805 24.1074 19.1426 20.5723 20.5781 19.0293C20.8613 18.7266 21.0371 18.5996 21.1543 18.5996C21.3008 18.5996 21.3398 18.7949 21.3398 19.0684C21.3398 19.3809 21.291 19.7812 21.291 20.123C21.291 20.2109 21.291 20.2988 21.3008 20.377C21.3789 21.1484 21.6426 22.1055 22.6582 22.5449C23.0391 22.7109 23.4688 22.7793 23.9473 22.7793C26.6621 22.7793 30.5684 20.4453 31.2129 19.8984C31.3691 19.7617 31.4375 19.6152 31.4375 19.4785C31.4375 19.3223 31.3301 19.1953 31.1641 19.1953C31.0566 19.1953 30.9102 19.2539 30.7637 19.4102C30.4414 19.8594 26.9844 22.3203 24.5918 22.3203C24.25 22.3203 23.9375 22.2715 23.6543 22.1641C22.8535 21.8613 22.6191 21.2852 22.6191 20.5918L22.6289 20.377C22.6582 19.8691 22.8438 19.3516 22.8438 18.8535C22.8438 18.6484 22.8145 18.4336 22.7168 18.2285C22.5508 17.8574 22.2773 17.7109 21.9746 17.7109C21.3301 17.7109 20.5293 18.3359 20.1484 18.7363C18.7129 20.2891 17.5703 23.9219 16.252 25.1816C16.125 25.2988 16.0078 25.377 15.9199 25.377C15.832 25.377 15.7832 25.3086 15.7832 25.1426C15.7832 25.0352 15.8027 24.8789 15.8613 24.6738C16.252 23.1992 17.4531 19.7617 18.0684 18.6387C18.459 17.9355 18.6152 17.418 18.6152 17.0664C18.6152 16.6953 18.4395 16.5195 18.1758 16.5195C17.7168 16.5195 17.0234 17.0762 16.6719 17.9453C16.1641 19.2051 15.002 22.7891 15.002 24.7227C15.002 25.4258 15.2754 25.748 15.666 25.748Z" fill="#A59C9C"/>
<path d="M29.9531 36.4121C33.8984 36.4121 42.209 20.7285 42.9121 19.4004C43 19.2344 43.0391 19.0977 43.0391 18.9902C43.0391 18.7266 42.8242 18.6094 42.5898 18.6094C42.3555 18.6094 42.1016 18.7168 41.9941 18.9316C41.9941 20.7285 33.2246 35.6797 29.8555 35.6797C28.918 35.6797 28.4883 34.4102 28.4883 32.9453C28.4883 28.8438 31.4961 21.7637 32.1895 19.4102C32.707 18.5117 34.3477 15.2109 35.8809 11.7246C37.3359 11.6758 38.2637 11.6562 39.6992 11.6562C41.8379 11.6562 43.9375 11.7246 45.5879 11.8906C46.8477 12.0078 48.293 12.584 49.0547 12.584C49.4355 12.584 49.582 12.4668 49.6016 12.1641C49.6016 11.6855 48.9766 11.5 48.5762 11.4316C47.2383 11.207 45.1777 11.1289 42.9902 11.1289C40.5586 11.1289 37.9805 11.2266 36.0566 11.3242C37.5898 7.82812 38.8887 4.3125 38.8887 3.375C38.8887 3.04297 38.7422 2.93555 38.4883 2.87695C38.332 2.83789 38.1562 2.78906 37.9609 2.7793C37.3555 2.7793 36.6523 3.04297 35.6855 4.81055C34.7969 6.38281 33.9375 8.73633 33.0781 11.5098C28.8984 11.7832 25.3438 12.1738 22.3652 12.6426C21.8184 12.7305 21.3301 12.7305 20.8223 12.7891C20.4902 12.8867 20.1777 13.0918 20.1777 13.3262C20.1777 13.4336 20.2559 13.4922 20.4023 13.4922C20.4707 13.4922 20.5586 13.4824 20.6562 13.4434C23.0391 12.7793 25.0605 12.5547 27.5312 12.3203C29.3184 12.1445 31.1152 12.0078 32.9023 11.8711H32.9707C32.2871 14.1367 31.6426 16.5684 31.0566 19.0293C30.4023 21.7148 28.1758 28.6875 28.1758 32.9453C28.1758 34.0879 28.3418 35.0449 28.7324 35.6602C29.0645 36.1777 29.4746 36.4121 29.9531 36.4121ZM34.6602 11.4023C35.041 10.2305 35.3828 9.22461 35.4609 8.99023C36.0078 7.4082 36.5547 6.04102 37.043 4.9668C37.6484 3.60938 38.0293 3.18945 38.2148 3.17969C38.3125 3.17969 38.3223 3.27734 38.3418 3.41406C38.3418 3.57031 38.2246 3.78516 37.8145 4.91797C37.1602 6.71484 36.1738 9.19531 35.2754 11.3633C35.0605 11.3828 34.8555 11.3926 34.6602 11.4023ZM33.2246 16.0215C33.2246 15.8359 33.918 13.668 34.5332 11.7734L35.1191 11.7441C34.2598 13.8145 33.5078 15.543 33.2246 16.0215Z" fill="#A59C9C"/>
<path d="M47.9023 24.2246C50.8223 24.2246 56.7207 20.3379 57.9219 19.332C58.0977 19.1465 58.1758 18.9902 58.1758 18.8926C58.1758 18.8242 58.1367 18.7852 58.0488 18.7852C57.8926 18.7852 57.5996 18.9316 57.209 19.2832C56.5547 19.8691 50.8027 23.8633 48.3613 23.8633C47.6973 23.8633 47.2773 23.5605 47.2773 22.8184C47.2969 20.8066 49.3086 17.3594 49.3086 16.7051C49.2793 16.3145 48.9766 16.1289 48.6738 16.1191C48.3613 16.1191 47.9023 16.373 47.6875 16.793C46.9746 17.8281 44.123 22.6816 43.1953 22.6816C43.1465 22.6816 43.0977 22.6621 43.0586 22.6328C42.8828 22.4863 42.8047 22.252 42.8047 21.9688C42.8047 20.8164 43.9863 18.7559 44.6211 17.6426C44.7285 17.457 44.7676 17.3105 44.7676 17.1836C44.7676 16.7246 44.1523 16.6172 43.6934 16.6172C43.459 16.6172 43.2637 16.6465 43.2246 16.666C42.502 17.0762 41.2715 19.498 41.2715 21.2949C41.2715 22.4082 41.7402 23.2676 43.0879 23.2676C43.1758 23.2676 43.2832 23.2676 43.3809 23.2578C44.1035 23.2578 45.9297 20.2793 47.0527 18.375C46.623 19.5859 46.2031 21.0898 46.2031 22.2617C46.2031 22.7793 46.2812 23.2285 46.4766 23.5703C46.75 24.0293 47.248 24.2246 47.9023 24.2246Z" fill="#A59C9C"/>
<path d="M60.5781 13.3652C61.3203 13.3652 61.8574 12.4766 61.8574 11.7832C61.8574 11.3535 61.6426 11.002 61.1348 11.002C60.627 11.002 60.0801 12.0469 60.0801 12.7402C60.0801 13.1016 60.2168 13.3652 60.5781 13.3652ZM71.8574 23.9707C72.1699 23.9707 72.4922 23.7754 72.5996 23.3457C73.2441 22.1738 75.5293 19.0098 77.1309 17.9062C77.4922 17.6621 77.873 17.5547 78.2832 17.5547C80.1582 17.5547 82.4922 19.7617 85.041 19.7617C85.6172 19.7617 86.2129 19.6445 86.8184 19.3613C86.9941 19.2832 87.082 19.1562 87.082 19.0488C87.082 18.9414 86.9844 18.8438 86.8086 18.8438C86.7402 18.8438 86.6621 18.8535 86.5645 18.8926C85.959 19.1172 85.3828 19.2148 84.8359 19.2148C82.0625 19.2148 79.8848 16.8613 77.8145 16.8613C77.375 16.8613 76.9355 16.9688 76.5059 17.2227C75.6953 17.6914 74.7773 18.6289 74.0059 19.625C74.377 18.4727 74.6699 17.2812 74.6699 16.4219C74.6699 15.8555 74.543 15.4355 74.2109 15.2695C73.9766 15.1621 73.6738 14.957 73.2441 14.957C72.834 14.957 72.3457 15.123 71.6523 15.709C70.3145 16.8711 62.4434 23.4824 59.2793 23.4824C58.459 23.4824 57.9609 23.043 57.9609 21.9688C57.9707 20.5137 58.8984 19.4199 59.582 18.541C60.0898 17.8867 60.2852 17.3984 60.2852 17.0762C60.2852 16.7051 60.0312 16.5391 59.6797 16.5391C59.0938 16.5391 58.2344 17.0273 57.8633 17.8672C57.375 18.9902 56.8184 20.2109 56.8184 21.3242C56.8184 21.8027 56.9258 22.252 57.1699 22.6816C57.6582 23.5312 58.4297 23.8926 59.3672 23.8926C63.2148 23.8926 69.9336 17.9355 72.1504 15.8359C72.4629 15.543 72.6875 15.416 72.8438 15.416C73.0391 15.416 73.127 15.6309 73.127 16.002C73.127 17.7207 71.2617 22.6719 71.1738 23.1113C71.1641 23.1797 71.1543 23.2383 71.1543 23.2969C71.1543 23.7168 71.4961 23.9707 71.8574 23.9707Z" fill="#A59C9C"/>
<path d="M96.2422 16.6562H96.2324C95.7832 16.666 95.2852 16.8223 94.9043 17.1055C93.6641 17.9648 92.8438 19.0879 92.5703 20.4062C92.4824 20.8164 92.4434 21.1875 92.4434 21.5195C92.4434 23.3359 93.6934 23.873 95.2461 23.873C96.1934 23.873 97.248 23.668 98.2051 23.4434C101.877 22.5742 106.369 20.1914 107.688 19.3711C107.863 19.293 107.922 19.166 107.922 19.0293C107.922 18.8145 107.756 18.5996 107.561 18.5996C107.502 18.5996 107.453 18.6191 107.404 18.6484C106.086 19.7422 101.721 22.1738 98.0879 23.0918C97.6387 23.1992 96.7793 23.3652 95.9395 23.3652C94.8262 23.3652 93.7422 23.0723 93.7227 21.9785C94.1719 21.7539 97.5898 20.6699 97.5898 18.4238C97.5898 18.0332 97.4922 17.6035 97.248 17.1445C97.0723 16.8125 96.6816 16.6562 96.2422 16.6562ZM96.7598 17.1445C96.9551 17.1445 97.0527 17.3008 97.0527 17.5449C97.0527 18.3652 95.9883 20.2402 93.7715 21.4512C93.9961 20.1426 94.9922 18.4824 95.7734 17.7305C96.2129 17.3203 96.5449 17.1445 96.7598 17.1445Z" fill="#A59C9C"/>
<path d="M105.48 34.8008C105.852 34.8008 106.242 34.3516 106.242 33.6484C106.242 33.4629 106.213 33.2676 106.154 33.0527C105.9 32.1641 105.793 31.1191 105.793 29.9766C105.793 26.9883 106.535 23.541 107.668 19.8008C110.246 15.1523 115.998 7.04688 116.34 2.68164V2.61328C116.34 1.99805 115.705 1.00195 114.963 1.00195C114.758 1.00195 114.562 1.08008 114.377 1.2168C110.637 4.16602 107.922 16.002 106.848 20.3965C105.646 25.2988 104.807 30.25 104.807 33.0332C104.807 33.3066 104.816 33.5605 104.836 33.7852C104.885 34.498 105.178 34.8008 105.48 34.8008ZM108.273 17.9355C109.631 13.9512 111.047 10.6699 112.141 8.0918C112.98 6.14844 113.781 4.17578 114.768 2.60352C115.021 2.19336 115.324 1.83203 115.51 1.82227C115.617 1.82227 115.695 1.91992 115.695 2.24219C115.695 2.33008 115.686 2.4375 115.676 2.55469C115.334 5.76758 110.471 14.293 108.273 17.9355Z" fill="#A59C9C"/>
<path d="M117.033 31.1289C118.908 31.1289 120.93 28.707 120.93 26.4512C120.93 25.3281 120.52 24.6738 120.012 24.0391C123.117 21.7637 126.457 20.2988 130.012 19.4102C130.197 19.3613 130.275 19.2246 130.275 19.0781C130.275 18.8926 130.148 18.707 129.963 18.707L129.865 18.7266C127.023 19.7031 122.883 21.5391 119.689 23.6094C119.26 23.0137 118.664 22.1641 118.664 20.9824C118.664 19.2148 119.758 16.9883 120.783 16.1387C120.959 15.9922 121.086 15.9336 121.184 15.9336C121.33 15.9336 121.389 16.0898 121.389 16.3242C121.389 16.9492 120.979 18.1504 120.803 18.4824C120.607 18.8438 120.529 19.1172 120.529 19.3223C120.529 19.625 120.715 19.7715 120.969 19.7715C121.535 19.7715 122.482 19.0586 122.619 17.877C122.639 17.7109 122.648 17.5449 122.648 17.3984C122.648 16.3145 122.189 15.6211 121.32 15.6113C121.125 15.6113 120.93 15.6406 120.725 15.6992C119.953 16.0508 119.064 16.8516 118.488 17.457C117.746 18.2578 117.434 19.166 117.434 20.0938C117.434 20.9531 117.707 21.8223 118.166 22.6426C118.479 23.1992 118.85 23.5996 119.191 23.9512C117.834 24.8594 114.895 27.0273 114.895 29.0684C114.943 30.2695 115.842 31.1289 117.033 31.1289ZM115.656 29.9473C115.402 29.9473 115.295 29.8105 115.295 29.5859C115.295 28.5605 117.648 25.5723 119.553 24.332C119.934 24.7422 120.09 25.1816 120.09 25.6309C120.09 27.2227 118.068 28.8828 116.809 29.5469C116.281 29.8203 115.9 29.9473 115.656 29.9473Z" fill="#A59C9C"/>
<path d="M132.561 13.3652C133.303 13.3652 133.84 12.4766 133.84 11.793C133.84 11.3633 133.625 11.0117 133.117 11.0117C132.609 11.0117 132.062 12.0469 132.062 12.75C132.062 13.1016 132.199 13.3652 132.561 13.3652ZM130.91 23.4531C133.898 23.4531 139.338 20.4355 140.5 19.4785C140.676 19.293 140.754 19.1367 140.754 19.0391C140.754 18.9707 140.715 18.9316 140.627 18.9316C140.471 18.9316 140.188 19.0684 139.797 19.4199C139.162 19.9766 133.869 23.1113 131.32 23.1113C130.49 23.1113 129.953 22.7793 129.953 21.9297C129.963 20.5137 130.842 19.4688 131.564 18.5312C132.072 17.877 132.268 17.3984 132.268 17.0762C132.268 16.7051 132.014 16.5391 131.672 16.5391C131.076 16.5391 130.217 17.0273 129.855 17.877C129.357 19 128.811 20.2012 128.811 21.3242C128.811 21.793 128.908 22.252 129.152 22.6816C129.465 23.2285 130.1 23.4531 130.91 23.4531Z" fill="#A59C9C"/>
<path d="M139.406 38.2188C140.314 38.2188 141.691 37.1836 143.049 35.0938C144.201 33.3359 145.324 31.0312 146.242 28.6387C146.975 26.7148 147.531 24.4688 147.902 22.6816C150.451 20.9336 152.775 19.9766 156.428 19.9766H156.838C157.199 19.9766 157.365 19.8301 157.365 19.6641C157.365 19.4688 157.121 19.2539 156.721 19.2539C152.98 19.2734 150.627 20.3184 148.088 22.0078C148.332 20.6602 148.459 19.4492 148.459 18.5215C148.459 18.0332 148.42 17.6133 148.352 17.291C148.195 16.5488 147.463 15.8359 146.77 15.8359C146.516 15.8359 146.271 15.9336 146.066 16.1387C145.646 16.5586 145.09 17.3496 144.523 18.1699C143.996 17.9258 143.361 17.8184 142.688 17.8184C142.121 17.8184 141.584 17.8965 141.193 18.0137C139.572 18.5801 137.18 20.6699 137.18 22.6914L137.189 22.8965C137.268 23.8145 137.98 24.7715 138.957 24.7715C140.744 24.7715 142.971 21.2559 144.367 19.2539C144.787 19.918 145.188 20.1719 145.48 20.1719C145.754 20.1719 145.92 19.9668 145.92 19.6738C145.92 19.3027 145.656 18.8145 144.963 18.4336C145.783 17.252 146.594 16.2363 147.033 16.2363C147.229 16.2363 147.346 16.4512 147.346 16.9785C147.326 18.4727 146.906 20.7871 146.125 23.5117C141.184 27.7305 138.371 34.293 138.371 36.6953C138.371 37.7109 138.771 38.2188 139.406 38.2188ZM139.328 23.9219C139.006 23.9219 138.898 23.707 138.898 23.3945C138.898 21.7734 141.125 18.2773 142.893 18.248C143.312 18.248 143.693 18.4238 144.055 18.834C142.971 20.377 140.959 23.4824 139.66 23.8633C139.533 23.9023 139.416 23.9219 139.328 23.9219ZM139.123 37.1055C138.918 37.1055 138.811 36.9102 138.811 36.5293C138.811 34.9863 140.715 30.3281 143.84 26.6465C144.436 25.9531 145.08 25.0059 145.783 24.3613C145.48 25.3379 145.139 26.5977 144.758 27.5742C143.82 30.0352 142.697 32.3984 141.613 34.2148C140.402 36.2363 139.553 37.1055 139.123 37.1055Z" fill="#A59C9C"/>
<path d="M162.727 24.2246C165.646 24.2246 171.545 20.3379 172.746 19.332C172.922 19.1465 173 18.9902 173 18.8926C173 18.8242 172.961 18.7852 172.873 18.7852C172.717 18.7852 172.424 18.9316 172.033 19.2832C171.379 19.8691 165.627 23.8633 163.186 23.8633C162.521 23.8633 162.102 23.5605 162.102 22.8184C162.121 20.8066 164.133 17.3594 164.133 16.7051C164.104 16.3145 163.801 16.1289 163.498 16.1191C163.186 16.1191 162.727 16.373 162.512 16.793C161.799 17.8281 158.947 22.6816 158.02 22.6816C157.971 22.6816 157.922 22.6621 157.883 22.6328C157.707 22.4863 157.629 22.252 157.629 21.9688C157.629 20.8164 158.811 18.7559 159.445 17.6426C159.553 17.457 159.592 17.3105 159.592 17.1836C159.592 16.7246 158.977 16.6172 158.518 16.6172C158.283 16.6172 158.088 16.6465 158.049 16.666C157.326 17.0762 156.096 19.498 156.096 21.2949C156.096 22.4082 156.564 23.2676 157.912 23.2676C158 23.2676 158.107 23.2676 158.205 23.2578C158.928 23.2578 160.754 20.2793 161.877 18.375C161.447 19.5859 161.027 21.0898 161.027 22.2617C161.027 22.7793 161.105 23.2285 161.301 23.5703C161.574 24.0293 162.072 24.2246 162.727 24.2246Z" fill="#A59C9C"/>
<path d="M175.393 13.3652C176.135 13.3652 176.672 12.4766 176.672 11.793C176.672 11.3633 176.457 11.0117 175.949 11.0117C175.441 11.0117 174.895 12.0469 174.895 12.75C174.895 13.1016 175.031 13.3652 175.393 13.3652ZM173.742 23.4531C176.73 23.4531 182.17 20.4355 183.332 19.4785C183.508 19.293 183.586 19.1367 183.586 19.0391C183.586 18.9707 183.547 18.9316 183.459 18.9316C183.303 18.9316 183.02 19.0684 182.629 19.4199C181.994 19.9766 176.701 23.1113 174.152 23.1113C173.322 23.1113 172.785 22.7793 172.785 21.9297C172.795 20.5137 173.674 19.4688 174.396 18.5312C174.904 17.877 175.1 17.3984 175.1 17.0762C175.1 16.7051 174.846 16.5391 174.504 16.5391C173.908 16.5391 173.049 17.0273 172.688 17.877C172.189 19 171.643 20.2012 171.643 21.3242C171.643 21.793 171.74 22.252 171.984 22.6816C172.297 23.2285 172.932 23.4531 173.742 23.4531Z" fill="#A59C9C"/>
<path d="M197.258 25.7578C197.512 25.7578 197.805 25.6211 198.107 25.3672C199.572 24.1172 200.744 20.582 202.17 19.0293C202.453 18.7266 202.639 18.5996 202.756 18.5996C202.893 18.5996 202.932 18.7949 202.932 19.0684C202.932 19.3906 202.883 19.8105 202.883 20.1621L202.893 20.3867C202.98 21.1484 203.244 22.1055 204.26 22.5547C204.631 22.7207 205.07 22.7891 205.539 22.7891C208.254 22.7891 212.18 20.4453 212.824 19.8984C212.98 19.7617 213.049 19.6152 213.049 19.4883C213.049 19.3223 212.941 19.1953 212.775 19.1953C212.668 19.1953 212.521 19.2637 212.365 19.4199C212.043 19.8691 208.576 22.3301 206.184 22.3301C205.852 22.3301 205.539 22.2812 205.256 22.1738C204.455 21.8711 204.221 21.2852 204.221 20.5918L204.23 20.377C204.26 19.8789 204.445 19.3613 204.445 18.8535C204.445 18.6484 204.416 18.4336 204.318 18.2285C204.152 17.8574 203.879 17.7109 203.576 17.7109C202.932 17.7109 202.121 18.3359 201.74 18.7461C200.305 20.2988 199.172 23.9316 197.844 25.1816C197.717 25.3086 197.59 25.3867 197.512 25.3867C197.424 25.3867 197.375 25.3184 197.375 25.1523C197.375 23.834 200.227 18.8926 200.227 16.8223C200.227 15.8555 199.758 15.377 199.045 15.3672C198.41 15.3672 197.619 15.6992 196.74 16.4609C194.172 18.6777 187.922 23.8242 185.002 23.8242C184.074 23.8242 183.479 23.3066 183.449 21.9883C183.898 21.7539 187.316 20.6797 187.316 18.4238C187.316 18.0332 187.219 17.6133 186.975 17.1445C186.809 16.8125 186.418 16.6562 185.969 16.6562C185.52 16.6562 185.021 16.8125 184.641 17.1055C183.391 17.9648 182.6 19.0977 182.287 20.4062C182.18 20.8457 182.131 21.2461 182.131 21.5879C182.131 21.8613 182.17 22.1152 182.229 22.3301C182.59 23.6973 183.488 24.2344 184.68 24.2344C188.645 24.2344 195.871 18.1602 197.219 16.9004C197.531 16.6074 197.766 16.4707 197.941 16.4707C198.186 16.4707 198.283 16.7637 198.283 17.2324C198.283 19.166 196.594 24.1758 196.594 24.7324C196.594 25.4355 196.867 25.7578 197.258 25.7578ZM183.498 21.4512C183.723 20.1523 184.719 18.4824 185.51 17.7402C185.939 17.3203 186.271 17.1445 186.486 17.1445C186.682 17.1445 186.779 17.3008 186.779 17.5547C186.779 18.375 185.725 20.25 183.498 21.4512Z" fill="#A59C9C"/>
<path d="M211.555 36.4121C215.5 36.4121 223.811 20.7285 224.514 19.4004C224.602 19.2344 224.641 19.0977 224.641 18.9902C224.641 18.7266 224.426 18.6094 224.191 18.6094C223.957 18.6094 223.703 18.7168 223.596 18.9316C223.596 20.7285 214.826 35.6797 211.457 35.6797C210.52 35.6797 210.09 34.4102 210.09 32.9453C210.09 28.8438 213.098 21.7637 213.791 19.4102C214.309 18.5117 215.949 15.2109 217.482 11.7246C218.938 11.6758 219.865 11.6562 221.301 11.6562C223.439 11.6562 225.539 11.7246 227.189 11.8906C228.449 12.0078 229.895 12.584 230.656 12.584C231.037 12.584 231.184 12.4668 231.203 12.1641C231.203 11.6855 230.578 11.5 230.178 11.4316C228.84 11.207 226.779 11.1289 224.592 11.1289C222.16 11.1289 219.582 11.2266 217.658 11.3242C219.191 7.82812 220.49 4.3125 220.49 3.375C220.49 3.04297 220.344 2.93555 220.09 2.87695C219.934 2.83789 219.758 2.78906 219.562 2.7793C218.957 2.7793 218.254 3.04297 217.287 4.81055C216.398 6.38281 215.539 8.73633 214.68 11.5098C210.5 11.7832 206.945 12.1738 203.967 12.6426C203.42 12.7305 202.932 12.7305 202.424 12.7891C202.092 12.8867 201.779 13.0918 201.779 13.3262C201.779 13.4336 201.857 13.4922 202.004 13.4922C202.072 13.4922 202.16 13.4824 202.258 13.4434C204.641 12.7793 206.662 12.5547 209.133 12.3203C210.92 12.1445 212.717 12.0078 214.504 11.8711H214.572C213.889 14.1367 213.244 16.5684 212.658 19.0293C212.004 21.7148 209.777 28.6875 209.777 32.9453C209.777 34.0879 209.943 35.0449 210.334 35.6602C210.666 36.1777 211.076 36.4121 211.555 36.4121ZM216.262 11.4023C216.643 10.2305 216.984 9.22461 217.062 8.99023C217.609 7.4082 218.156 6.04102 218.645 4.9668C219.25 3.60938 219.631 3.18945 219.816 3.17969C219.914 3.17969 219.924 3.27734 219.943 3.41406C219.943 3.57031 219.826 3.78516 219.416 4.91797C218.762 6.71484 217.775 9.19531 216.877 11.3633C216.662 11.3828 216.457 11.3926 216.262 11.4023ZM214.826 16.0215C214.826 15.8359 215.52 13.668 216.135 11.7734L216.721 11.7441C215.861 13.8145 215.109 15.543 214.826 16.0215Z" fill="#A59C9C"/>
<path d="M226.477 16.6562H226.467C226.018 16.666 225.52 16.8223 225.139 17.1055C223.898 17.9648 223.078 19.0879 222.805 20.4062C222.717 20.8164 222.678 21.1875 222.678 21.5195C222.678 23.3359 223.928 23.873 225.48 23.873C226.428 23.873 227.482 23.668 228.439 23.4434C232.111 22.5742 236.604 20.1914 237.922 19.3711C238.098 19.293 238.156 19.166 238.156 19.0293C238.156 18.8145 237.99 18.5996 237.795 18.5996C237.736 18.5996 237.688 18.6191 237.639 18.6484C236.32 19.7422 231.955 22.1738 228.322 23.0918C227.873 23.1992 227.014 23.3652 226.174 23.3652C225.061 23.3652 223.977 23.0723 223.957 21.9785C224.406 21.7539 227.824 20.6699 227.824 18.4238C227.824 18.0332 227.727 17.6035 227.482 17.1445C227.307 16.8125 226.916 16.6562 226.477 16.6562ZM226.994 17.1445C227.189 17.1445 227.287 17.3008 227.287 17.5449C227.287 18.3652 226.223 20.2402 224.006 21.4512C224.23 20.1426 225.227 18.4824 226.008 17.7305C226.447 17.3203 226.779 17.1445 226.994 17.1445Z" fill="#A59C9C"/>
<path d="M239.055 35.4844L239.152 35.4746C240.461 35.2793 242.268 29.3223 242.736 27.8379C244.523 25.0254 246.359 21.9102 248.566 19.4883C250.08 17.8184 251.496 17.0566 252.414 17.0566C253.098 17.0566 253.508 17.4766 253.508 18.2578C253.508 19.0684 253.068 20.2793 252.014 21.8125C250.373 22.3691 248.977 23.1113 248.127 23.9219C247.346 24.7129 247.033 25.3379 247.033 25.7969C247.033 26.373 247.541 26.6758 248.254 26.6758C248.693 26.6758 249.201 26.5586 249.729 26.3242C251.076 25.7188 252.355 24.5762 253.947 21.5879C256.291 21.0703 258.303 20.582 260.354 20.582C261.135 20.582 261.916 20.6504 262.727 20.8164L262.814 20.8262C263.039 20.8262 263.156 20.6992 263.156 20.5625C263.156 20.4062 263.01 20.2402 262.707 20.2402H262.697C262.443 20.2207 262.16 20.2207 261.848 20.2207C259.523 20.2207 256.008 20.6504 254.074 21.0801C254.309 20.2402 254.406 19.5371 254.406 18.9512C254.406 17.3203 253.615 16.5977 252.502 16.5977C251.262 16.5977 249.631 17.4961 248.234 19.0488C246.896 20.543 244.748 24 243.068 26.627C244.357 22.7891 245.051 19.6641 246.223 15.6797C246.281 15.4648 246.311 15.2695 246.311 15.1133C246.311 14.6738 246.115 14.4688 245.861 14.4688C245.539 14.4688 245.139 14.8496 244.934 15.6602C243.918 19.8984 243.566 23.873 242.092 28.043C241.955 28.2676 238.713 33.4824 238.713 35.0449C238.713 35.3184 238.811 35.4844 239.055 35.4844ZM247.922 26.1191C247.59 26.1191 247.404 25.8848 247.404 25.543C247.404 25.1816 247.619 24.7031 248.068 24.2832C248.85 23.4629 250.666 22.7695 251.867 22.2422C251.213 23.1504 250.197 24.3906 249.592 25.0352C248.859 25.8262 248.293 26.1191 247.922 26.1191Z" fill="#A59C9C"/>
<path d="M276.398 31.1387C276.574 31.1387 276.76 31.1191 276.945 31.0703C278.674 30.6504 280.295 28.5215 280.295 26.4805C280.295 26.3047 280.275 26.1387 280.256 25.9727C280.129 25.0352 279.787 24.5762 279.367 24.0391C282.473 21.7734 285.812 20.3086 289.377 19.4102C289.562 19.3613 289.641 19.2246 289.641 19.0781C289.641 18.9023 289.514 18.7168 289.338 18.7168C289.299 18.7168 289.27 18.7266 289.23 18.7363C286.389 19.7129 282.238 21.5488 279.045 23.6191C278.781 23.2578 278.498 22.8184 278.234 22.1934C278.078 21.832 278.01 21.4219 278.01 20.9824C278.01 20.084 278.303 19.0684 278.713 18.1797C278.977 17.9941 280.646 16.8906 280.842 16.5781C280.91 16.4805 280.949 16.3926 280.949 16.3242C280.949 16.0898 280.588 15.9922 280.197 15.9922C279.836 15.9922 279.436 16.0703 279.279 16.1875C278.742 16.5684 278.225 17.0566 277.844 17.4668C277.473 17.8672 277.209 18.2969 277.033 18.7461C274.787 20.3086 271.838 22.0078 270.188 22.0078C269.426 22.0078 268.938 21.6465 268.938 20.7285C268.938 20.3574 269.025 19.8984 269.191 19.3418H269.23C269.562 19.3418 269.875 19.1855 269.875 18.8242C269.875 18.668 269.816 18.4727 269.68 18.2383L269.895 17.8379C270.002 17.6328 270.051 17.4082 270.051 17.1836C270.051 16.6074 269.738 16.0703 269.309 16.0703C269.025 16.0703 268.693 16.3047 268.381 16.9395C267.834 16.6074 267.199 16.4219 266.545 16.4219C265.803 16.4219 265.021 16.6562 264.299 17.1836C262.697 18.3262 261.535 20.5527 261.535 22.0176C261.535 22.3398 261.594 22.623 261.711 22.8574C262.141 23.6777 262.668 24.0098 263.225 24.0098C265.07 24.0098 267.336 20.3965 268.039 19.0293C268.029 19.0488 267.717 19.8789 267.717 20.7578C267.717 21.041 267.746 21.3242 267.834 21.5977C268.059 22.3008 268.625 22.5938 269.406 22.5938C271.281 22.5938 274.357 20.9531 276.848 19.4004C276.799 19.6348 276.779 19.8691 276.779 20.1035C276.779 20.9629 277.062 21.832 277.521 22.6523C277.834 23.209 278.205 23.6094 278.537 23.9512C277.189 24.8691 274.25 27.0469 274.25 29.0781L274.26 29.2539C274.348 30.3379 275.295 31.1387 276.398 31.1387ZM263.938 22.8574L263.889 22.8477C263.752 22.7988 263.684 22.6621 263.684 22.4766C263.684 21.3633 265.812 18.2578 266.906 17.4863C267.326 17.1836 267.57 17.0469 267.736 17.0469C267.922 17.0566 267.99 17.2324 268.098 17.5352C267.551 18.8926 264.631 22.8574 263.938 22.8574ZM275.002 29.957C274.758 29.957 274.641 29.8301 274.641 29.6055C274.641 28.5801 277.004 25.5918 278.908 24.3418C279.289 24.752 279.445 25.1816 279.445 25.6309C279.445 27.2227 277.414 28.8926 276.154 29.5566C275.627 29.8398 275.246 29.957 275.002 29.957Z" fill="#A59C9C"/>
<path d="M290.002 23.4238C291.145 23.4238 292.521 22.3398 293.156 20.084C293.674 20.1621 294.416 20.2012 295.236 20.2012C297.062 20.2012 299.289 20.0254 300.334 19.7324H300.344C300.51 19.7324 300.578 19.6543 300.578 19.5469C300.578 19.4004 300.422 19.2051 300.246 19.2051L300.178 19.2148C299.006 19.5469 296.936 19.8105 295.178 19.8105C294.436 19.8105 293.762 19.7617 293.225 19.6543C293.293 19.3027 293.332 18.9805 293.332 18.6777C293.332 17.0469 292.385 16.168 291.574 16.168C291.135 16.168 290.744 16.4512 290.578 16.9785L290.383 16.959C290.129 16.959 289.855 17.0469 289.65 17.2227C288.947 17.8086 288.186 19.625 288.186 21.041C288.186 22.6035 289.006 23.4238 290.002 23.4238ZM292.727 19.5273C291.867 19.2734 291.311 18.4434 291.135 17.7891C291.174 17.7012 291.184 17.623 291.184 17.5449C291.184 17.4375 291.154 17.3398 291.086 17.2617C291.125 17.0469 291.223 16.9199 291.418 16.9102C291.486 16.9102 291.555 16.9199 291.633 16.9492C292.443 17.252 292.775 18.1406 292.775 18.9707C292.775 19.1562 292.766 19.3516 292.727 19.5273ZM290.373 22.9258C289.914 22.9258 289.582 22.5059 289.582 21.6074C289.582 21.3535 289.611 21.0605 289.67 20.7285C289.934 19.2637 290.324 18.668 290.656 18.3945C290.676 18.375 290.686 18.3555 290.705 18.3457C291.066 19.2148 291.818 19.6836 292.629 19.9375C292.111 21.8809 291.086 22.9258 290.373 22.9258Z" fill="#A59C9C"/>
<path d="M299.65 14.9961C299.738 14.9961 299.826 14.8594 299.914 14.498C300.119 13.6387 300.461 12.8184 300.969 12.0664C301.057 11.9199 301.096 11.8027 301.096 11.7148C301.096 11.4902 300.861 11.4023 300.627 11.4023C300.334 11.4023 300.021 11.5098 299.953 11.6855C299.787 12.1445 299.631 12.6035 299.543 13.0723C299.445 13.5605 299.426 14.0098 299.416 14.4883C299.416 14.7324 299.533 14.9961 299.65 14.9961ZM301.467 14.9961C301.545 14.9961 301.633 14.8594 301.721 14.498C301.926 13.6289 302.248 12.877 302.775 12.0664C302.863 11.9199 302.902 11.8027 302.902 11.7148C302.902 11.4902 302.668 11.4023 302.434 11.4023C302.141 11.4023 301.828 11.5098 301.77 11.6855C301.584 12.1445 301.438 12.6035 301.35 13.0723C301.262 13.5312 301.232 14 301.213 14.459C301.213 14.6738 301.34 14.9961 301.467 14.9961Z" fill="#A59C9C"/>
</svg>
